<?xml version="1.0" encoding="UTF-8"?>
<svg version="1.1" xmlns="http://www.w3.org/2000/svg" width="247" height="229">
<path d="M0 0 C81.51 0 163.02 0 247 0 C247 75.57 247 151.14 247 229 C165.49 229 83.98 229 0 229 C0 153.43 0 77.86 0 0 Z " fill="#EEEEEE" transform="translate(0,0)"/>
<path d="M0 0 C1.25296875 0.03222656 2.5059375 0.06445312 3.796875 0.09765625 C7.96855517 0.47353099 10.83373065 0.88825137 13.921875 3.83203125 C15.82245832 6.46059029 17.39534006 9.18109962 19 12 C20.12150251 13.68826181 21.24400894 15.37595762 22.38476562 17.05126953 C24.62435362 20.34452196 26.80655361 23.67591858 29 27 C29.5671875 27.85706543 30.134375 28.71413086 30.71875 29.59716797 C32.52616215 32.33214481 34.32645012 35.0716888 36.125 37.8125 C36.99632568 39.13000244 36.99632568 39.13000244 37.88525391 40.47412109 C38.68842041 41.70316162 38.68842041 41.70316162 39.5078125 42.95703125 C39.98879395 43.68897705 40.46977539 44.42092285 40.96533203 45.17504883 C42 47 42 47 42 49 C36.28169377 47.29454025 30.94923398 45.12089495 25.5625 42.5625 C9.26873117 34.87898337 -6.42353064 29.57879382 -24.625 29.4375 C-26.09864014 29.41574707 -26.09864014 29.41574707 -27.60205078 29.39355469 C-37.22794806 29.52763377 -45.19249098 32.35710765 -52.24609375 39.01171875 C-60.05211205 47.86085754 -61.40431914 58.71140665 -63 70 C-63.33 70 -63.66 70 -64 70 C-64.47230008 50.34747272 -64.82847704 31.45297328 -51.82421875 15.296875 C-37.23087121 0.07341747 -19.95667665 -0.53358015 0 0 Z " fill="#636DF7" transform="translate(145,59)"/>
<path d="M0 0 C16.32810585 7.57529911 32.74233611 21.9278093 39 39 C40.15770379 43.07511735 40.18383931 47.04020225 40.1875 51.25 C40.19974609 51.97574219 40.21199219 52.70148438 40.22460938 53.44921875 C40.2666202 69.16126775 31.64363046 82.23509718 22 94 C21.64393173 94.58814484 21.28786346 95.17628967 20.92100525 95.78225708 C18.74819187 99.00144626 17.12803466 100.74692799 13.26005554 101.61470032 C9.80167145 101.81082623 6.40780433 101.78648278 2.9453125 101.68359375 C1.68862762 101.67368912 0.43194275 101.66378448 -0.86282349 101.65357971 C-4.18834604 101.62110123 -7.51044754 101.55834425 -10.83502197 101.48065186 C-14.23346539 101.40876425 -17.6322638 101.37701456 -21.03125 101.34179688 C-27.68843892 101.26470829 -34.34402214 101.1476396 -41 101 C-38.44692479 98.33413277 -35.93241004 96.72461554 -32.6875 94.9375 C-12.89039848 83.59067277 11.39315042 67.11405241 18.63671875 44.25 C20.26292097 34.17803785 20.03418395 24.06518691 14.30078125 15.4453125 C10.55250886 10.48198128 6.65772224 6.58895471 1.46875 3.15625 C0.9840625 2.7746875 0.499375 2.393125 0 2 C0 1.34 0 0.68 0 0 Z " fill="#626CF8" transform="translate(146,109)"/>
<path d="M0 0 C0.66 0 1.32 0 2 0 C2.06993164 0.76441406 2.13986328 1.52882813 2.21191406 2.31640625 C5.99677403 43.35359304 5.99677403 43.35359304 26.75 77.9375 C34.37402725 84.01335314 42.74328562 85.71003891 52.34765625 85.4765625 C57.67859975 84.78097415 62.28413036 83.04389674 67.234375 80.99609375 C68.14703125 80.66738281 69.0596875 80.33867187 70 80 C70.66 80.33 71.32 80.66 72 81 C65.0871955 86.03723739 57.79548975 89.53533789 50 93 C49.31035156 93.36351562 48.62070313 93.72703125 47.91015625 94.1015625 C38.09522461 98.71799251 23.00822102 98.75659147 12.875 95.25 C8.92251467 93.5662058 5.41955578 91.62431025 2 89 C0.576875 87.948125 0.576875 87.948125 -0.875 86.875 C-9.64761159 79.29034623 -15.01739964 69.27469633 -20 59 C-20.30728027 58.40493652 -20.61456055 57.80987305 -20.93115234 57.19677734 C-22.99179528 52.94356362 -23.05245609 50.53578748 -22 46 C-20.94360352 43.35717773 -20.94360352 43.35717773 -19.62890625 40.68359375 C-19.14131836 39.68126709 -18.65373047 38.67894043 -18.15136719 37.64624023 C-17.62704102 36.58735596 -17.10271484 35.52847168 -16.5625 34.4375 C-15.4748732 32.20852223 -14.38764075 29.97935201 -13.30078125 27.75 C-12.75115723 26.62851563 -12.2015332 25.50703125 -11.63525391 24.3515625 C-9.13685275 19.23092186 -6.69236295 14.08504296 -4.25 8.9375 C-3.42198074 7.19656429 -2.59386656 5.45567372 -1.765625 3.71484375 C-1.17702254 2.4765914 -0.58845494 1.23832247 0 0 Z " fill="#646EF7" transform="translate(56,86)"/>
<path d="M0 0 C1.25296875 0.03222656 2.5059375 0.06445312 3.796875 0.09765625 C8.18297704 0.49285072 10.91146451 0.92159985 14.09765625 4.078125 C15.94623379 6.63709009 17.48186109 9.23424162 19 12 C19.97363834 13.48281144 20.95225765 14.96237326 21.9375 16.4375 C23.63646901 19.05424006 24 19.76015427 24 23 C13.74452555 20.26277372 13.74452555 20.26277372 9.8125 18.875 C6.20713949 17.75333229 2.75433549 17.38837953 -1 17 C-1 16.34 -1 15.68 -1 15 C-5.33354515 15.1399224 -9.66677547 15.28800152 -14 15.4375 C-15.83111328 15.49647461 -15.83111328 15.49647461 -17.69921875 15.55664062 C-30.70394841 16.01356356 -40.91472404 17.00322247 -50.875 26.3125 C-62.14061674 38.65616619 -62.51934068 54.15481696 -63 70 C-63.33 70 -63.66 70 -64 70 C-64.47230008 50.34747272 -64.82847704 31.45297328 -51.82421875 15.296875 C-37.23087121 0.07341747 -19.95667665 -0.53358015 0 0 Z " fill="#3E3CE1" transform="translate(145,59)"/>
<path d="M0 0 C0.33 0 0.66 0 1 0 C1.79388678 2.97859046 2.58515639 5.95783716 3.375 8.9375 C3.59671875 9.76830078 3.8184375 10.59910156 4.046875 11.45507812 C5.13641486 15.57289789 6.15941885 19.68180456 7.03125 23.8515625 C7.71023815 26.97580232 8.54871219 29.62937247 10.125 32.4375 C12 35.82481752 12 35.82481752 12 38 C12.66 38 13.32 38 14 38 C15.7265625 40.3359375 15.7265625 40.3359375 17.625 43.375 C18.57246094 44.87160156 18.57246094 44.87160156 19.5390625 46.3984375 C21 49 21 49 21 51 C21.99 51.33 22.98 51.66 24 52 C25.33333333 53.33333333 26.66666667 54.66666667 28 56 C28.99 56.33 29.98 56.66 31 57 C31.33 57.66 31.66 58.32 32 59 C41.04002323 62.94439427 51.31928975 62.69115446 61 63 C61 63.66 61 64.32 61 65 C52.75848233 70.49434511 40.59060577 69.79117673 31 69 C24.64153499 67.5209326 19.18974193 64.9828252 14 61 C12.576875 59.948125 12.576875 59.948125 11.125 58.875 C2.35238841 51.29034623 -3.01739964 41.27469633 -8 31 C-8.46092041 30.10740479 -8.46092041 30.10740479 -8.93115234 29.19677734 C-10.96808838 24.9924952 -11.33005754 22.46396994 -10 18 C-8.9251273 15.31596524 -7.70799149 12.72133112 -6.4375 10.125 C-6.10814453 9.43664062 -5.77878906 8.74828125 -5.43945312 8.0390625 C-4.63304639 6.3561267 -3.81745506 4.67759707 -3 3 C-2.01 3 -1.02 3 0 3 C0 2.01 0 1.02 0 0 Z " fill="#3D3CDF" transform="translate(44,114)"/>
<path d="M0 0 C8.97446181 2.9434955 15.4303872 11.54236092 19.81640625 19.59375 C20.40228516 20.78484375 20.40228516 20.78484375 21 22 C21.33902344 22.6703125 21.67804688 23.340625 22.02734375 24.03125 C24.14624348 29.10879774 24.27150321 34.1362814 24.3125 39.5625 C24.31813965 40.27092041 24.3237793 40.97934082 24.32958984 41.70922852 C24.11583929 57.34381319 15.55591009 70.24926957 6 82 C5.34902344 83.09570312 4.69804687 84.19140625 4.02734375 85.3203125 C2.15369008 87.55856905 1.18547088 87.96793106 -1.73925781 88.47363281 C-5.11658298 88.59150607 -8.43649543 88.52252289 -11.8125 88.375 C-12.98232422 88.34792969 -14.15214844 88.32085937 -15.35742188 88.29296875 C-18.24016135 88.22237105 -21.11913571 88.12380574 -24 88 C-21.25693448 84.33618521 -18.43425383 81.59806247 -14.8125 78.8125 C-3.32197366 69.53462481 9.835517 54.9896563 13 40 C14.32581262 27.14981619 11.86843035 17.54490269 6 6 C5.34 6 4.68 6 4 6 C2.61061923 4.03852126 1.2739589 2.03833424 0 0 Z " fill="#3D3CE0" transform="translate(162,121)"/>
<path d="M0 0 C11.64432677 2.98572481 21.89981879 12.29885009 28.25 22.1875 C37.08491258 37.3532182 40.56782781 53.93060561 37.25 71.3125 C35.97721053 75.06722893 34.97146693 77.36812929 32 80 C29.375 80.4375 29.375 80.4375 27 80 C25 78 25 78 24.6875 75.125 C24.76283441 71.77604325 25.56173241 68.89361816 26.5 65.6875 C30.62808036 49.92573863 28.00351637 34.56854298 20.40625 20.27734375 C16.56302718 14.0534579 11.72485022 9.53042753 5.80078125 5.3203125 C3.64708277 3.74124506 1.8095114 1.96030402 0 0 Z " fill="#6B8BD8" transform="translate(176,122)"/>
<path d="M0 0 C1 1 1 1 1.0625 4.0625 C1.041875 5.031875 1.02125 6.00125 1 7 C-0.3125 7.58333333 -1.625 8.16666667 -2.9375 8.75 C-3.76121094 9.11738281 -4.58492187 9.48476563 -5.43359375 9.86328125 C-7.04689547 10.57784868 -8.66364068 11.28474156 -10.28515625 11.98046875 C-12.53968819 12.95464922 -14.77235493 13.96587506 -17 15 C-18.06154297 15.48339844 -18.06154297 15.48339844 -19.14453125 15.9765625 C-33.05069725 22.94217358 -42.03257527 34.5394759 -47.375 48.9375 C-49.31919657 55.21044194 -49.78911006 61.46241183 -50 68 C-50.66 67.67 -51.32 67.34 -52 67 C-52.71368931 48.22600615 -50.14891179 33.46742767 -37.26953125 18.796875 C-28.23694972 9.05549935 -14.04315993 -3.43914121 0 0 Z " fill="#6D93D5" transform="translate(126,27)"/>
<path d="M0 0 C4.62460267 0.79142685 7.18682197 3.86125921 10.48046875 6.9921875 C23.84826526 18.59602994 40.05796391 20.07870404 56.9375 19.125 C64.16606567 18.14629228 70.05288838 15.93057664 76.1953125 12.015625 C76.77023438 11.72171875 77.34515625 11.4278125 77.9375 11.125 C78.9275 11.62 78.9275 11.62 79.9375 12.125 C65.04448971 24.54295414 48.75692317 26.98824263 29.859375 25.95703125 C17.63447682 24.5374734 5.40787855 17.97822051 -3.0625 9.125 C-3.7225 8.465 -4.3825 7.805 -5.0625 7.125 C-5.3125 4.625 -5.3125 4.625 -5.0625 2.125 C-3.0625 0.125 -3.0625 0.125 0 0 Z " fill="#6C8BDC" transform="translate(25.0625,175.875)"/>
<path d="M0 0 C0.66 0.33 1.32 0.66 2 1 C0.02 3.31 -1.96 5.62 -4 8 C-2.35 8 -0.7 8 1 8 C1 7.34 1 6.68 1 6 C1.66 6 2.32 6 3 6 C1.66904363 9.01250612 0.27471531 10.83640577 -2.1875 13 C-13.41403207 23.96925737 -17.50842844 38.76128156 -18 54 C-18.66 53.67 -19.32 53.34 -20 53 C-20.69866449 34.62124235 -18.43167594 19.7799878 -5.703125 5.40625 C-3.84936142 3.53933916 -1.9743029 1.73801665 0 0 Z " fill="#6E78DF" transform="translate(94,41)"/>
<path d="M0 0 C10.57540894 2.71164332 21.03469625 11.25393289 27.125 20.1875 C28.70313322 22.91826294 29.01549724 23.75204409 28.8125 27 C28.544375 27.66 28.27625 28.32 28 29 C24.26307245 26.27819708 22.06738496 23.82955727 19.8125 19.8125 C14.85325155 11.71311606 7.95820989 6.02623782 0 1 C0 0.67 0 0.34 0 0 Z " fill="#6C68D5" transform="translate(176,122)"/>
<path d="M0 0 C3.79402426 1.73814904 7.18939162 4.02835677 10.625 6.375 C11.21023437 6.76171875 11.79546875 7.1484375 12.3984375 7.546875 C17.21787744 10.84089587 18.74282803 13.49987261 20 19 C20.94254891 22.35783051 21.8970792 25.69123759 23 29 C22.67 29.33 22.34 29.66 22 30 C21.76924918 31.34747084 21.58846937 32.70377565 21.4375 34.0625 C21.293125 35.361875 21.14875 36.66125 21 38 C20.67 38 20.34 38 20 38 C19.96261719 37.31035156 19.92523438 36.62070313 19.88671875 35.91015625 C19.06674883 24.18940971 16.2533865 16.60397283 8 8 C5.88311833 6.2568971 3.75476306 4.66853556 1.46875 3.15625 C0.9840625 2.7746875 0.499375 2.393125 0 2 C0 1.34 0 0.68 0 0 Z " fill="#6D84E9" transform="translate(146,109)"/>
<path d="M0 0 C1.32 0 2.64 0 4 0 C3.875 1.75 3.875 1.75 3 4 C2.10667969 4.59296875 1.21335938 5.1859375 0.29296875 5.796875 C-3.12019235 8.08041339 -5.71437705 10.55059245 -8.5625 13.5 C-10.3559567 15.35196664 -12.16774283 17.18641212 -14 19 C-15.14855469 20.15242188 -15.14855469 20.15242188 -16.3203125 21.328125 C-20.04601081 23.65261316 -23.02120934 23.44941655 -27.3125 23.25 C-28.42334961 23.22292969 -28.42334961 23.22292969 -29.55664062 23.1953125 C-31.3716571 23.14847337 -33.18600166 23.07673789 -35 23 C-34.67 22.34 -34.34 21.68 -34 21 C-31.74937546 21.03309742 -29.49926535 21.10257876 -27.25 21.1875 C-21.25977266 21.1155626 -17.88276512 19.72318488 -13.59082031 15.52856445 C-11.4915426 13.27025994 -9.46423031 10.96062628 -7.47216797 8.60742188 C-5.96179203 6.95828171 -4.37594566 5.59584826 -2.62890625 4.203125 C-1.76136719 3.47609375 -0.89382812 2.7490625 0 2 C0 1.34 0 0.68 0 0 Z " fill="#6969F7" transform="translate(141,117)"/>
<path d="M0 0 C1.485 0.495 1.485 0.495 3 1 C-1.62 5.62 -6.24 10.24 -11 15 C-16 13 -16 13 -18 11 C-21.12196336 10.53513282 -21.12196336 10.53513282 -24.625 10.375 C-25.81351562 10.30023438 -27.00203125 10.22546875 -28.2265625 10.1484375 C-29.14179687 10.09945312 -30.05703125 10.05046875 -31 10 C-31 9.34 -31 8.68 -31 8 C-28.91731407 7.91873913 -26.83371342 7.86069161 -24.75 7.8125 C-23.00976562 7.76029297 -23.00976562 7.76029297 -21.234375 7.70703125 C-17.67194654 8.02971499 -16.72383794 8.87563921 -14 11 C-10.85175971 11.00639886 -9.79513623 9.8184162 -7.421875 7.71484375 C-6.54015625 6.79832031 -5.6584375 5.88179687 -4.75 4.9375 C-3.85796875 4.01839844 -2.9659375 3.09929687 -2.046875 2.15234375 C-1.37140625 1.44207031 -0.6959375 0.73179687 0 0 Z " fill="#9090F5" transform="translate(105,140)"/>
<path d="M0 0 C1.3275376 3.78489442 0.77295886 6.95790118 0.1875 10.875 C-0.06966797 12.66550781 -0.06966797 12.66550781 -0.33203125 14.4921875 C-1 18 -1 18 -2.03515625 20.828125 C-3.35538147 25.1682986 -3.46186797 29.36168042 -3.625 33.875 C-3.68300781 35.19371094 -3.68300781 35.19371094 -3.7421875 36.5390625 C-3.83581034 38.69238793 -3.91896459 40.84616414 -4 43 C-4.33 43 -4.66 43 -5 43 C-5.70720037 13.57321131 -5.70720037 13.57321131 0 0 Z " fill="#5256CA" transform="translate(86,86)"/>
<path d="M0 0 C0 0.66 0 1.32 0 2 C24.75 2.495 24.75 2.495 50 3 C50 3.33 50 3.66 50 4 C31.19 4 12.38 4 -7 4 C-3 0 -3 0 0 0 Z " fill="#7674CF" transform="translate(112,206)"/>
<path d="M0 0 C0.66 0.33 1.32 0.66 2 1 C1.85831863 2.43791516 1.71148957 3.8753237 1.5625 5.3125 C1.48128906 6.11300781 1.40007812 6.91351563 1.31640625 7.73828125 C1 10 1 10 0 13 C-0.22451458 15.22574335 -0.40782878 17.45581519 -0.5625 19.6875 C-0.64628906 20.86699219 -0.73007813 22.04648438 -0.81640625 23.26171875 C-0.87699219 24.16535156 -0.93757813 25.06898437 -1 26 C-1.66 25.67 -2.32 25.34 -3 25 C-3.08132642 21.95778935 -3.14065374 18.9177762 -3.1875 15.875 C-3.21263672 15.0190625 -3.23777344 14.163125 -3.26367188 13.28125 C-3.32398809 8.05384474 -2.85261993 4.56718676 0 0 Z " fill="#7270D2" transform="translate(77,69)"/>
<path d="M0 0 C4.45724247 1.4189423 6.99490298 3.61905528 10.25 6.9375 C11.12140625 7.81277344 11.9928125 8.68804687 12.890625 9.58984375 C15 12 15 12 16 15 C15.01 15 14.02 15 13 15 C13.33 17.64 13.66 20.28 14 23 C11.63423284 20.63423284 11.08114955 18.77553737 10 15.625 C8.84787243 12.28563024 7.65742146 9.12246364 6 6 C5.34 6 4.68 6 4 6 C2.61061923 4.03852126 1.2739589 2.03833424 0 0 Z " fill="#474ADA" transform="translate(162,121)"/>
<path d="M0 0 C4.95 0 9.9 0 15 0 C15 0.66 15 1.32 15 2 C6.57006292 7.61995805 -5.2527805 6.22013796 -15 6 C-15 5.67 -15 5.34 -15 5 C-14.39937744 4.94465088 -13.79875488 4.88930176 -13.17993164 4.83227539 C-10.47366869 4.58029218 -7.76810116 4.3214883 -5.0625 4.0625 C-4.11697266 3.97548828 -3.17144531 3.88847656 -2.19726562 3.79882812 C-0.84858398 3.66831055 -0.84858398 3.66831055 0.52734375 3.53515625 C1.35999756 3.456604 2.19265137 3.37805176 3.05053711 3.29711914 C5.000612 3.19688602 5.000612 3.19688602 6 2 C3.03 1.505 3.03 1.505 0 1 C0 0.67 0 0.34 0 0 Z " fill="#4849D4" transform="translate(90,177)"/>
<path d="M0 0 C-6.9017678 5.02919514 -14.18553271 8.59400344 -22 12 C-22.33 11.34 -22.66 10.68 -23 10 C-23.66 9.67 -24.32 9.34 -25 9 C-23.39743892 8.49487756 -21.79288208 7.99608373 -20.1875 7.5 C-19.29417969 7.2215625 -18.40085937 6.943125 -17.48046875 6.65625 C-15 6 -15 6 -12 6 C-12 5.01 -12 4.02 -12 3 C-10.3789897 2.30314502 -8.75303934 1.61777139 -7.125 0.9375 C-6.22007813 0.55464844 -5.31515625 0.17179688 -4.3828125 -0.22265625 C-2 -1 -2 -1 0 0 Z " fill="#5661D7" transform="translate(128,167)"/>
<path d="M0 0 C0.66 0.33 1.32 0.66 2 1 C-3.33670889 5.36243234 -8.58476711 8.47548706 -15 11 C-15 10.34 -15 9.68 -15 9 C-17.64 9.33 -20.28 9.66 -23 10 C-20.50239043 7.50239043 -18.87103825 7.40227233 -15.4375 6.6875 C-10.25702779 5.48433377 -6.21332942 3.7403638 -1.7421875 0.890625 C-1.16726562 0.59671875 -0.59234375 0.3028125 0 0 Z " fill="#7A79DE" transform="translate(103,187)"/>
<path d="M0 0 C0.66 0.33 1.32 0.66 2 1 C1.66226563 1.56847656 1.32453125 2.13695313 0.9765625 2.72265625 C-3.23655065 10.01645619 -5.12259655 16.66466723 -6 25 C-6.33 25 -6.66 25 -7 25 C-7.63473828 8.05013694 -7.63473828 8.05013694 -1.8125 1.5625 C-1.214375 1.046875 -0.61625 0.53125 0 0 Z " fill="#7488E2" transform="translate(89,99)"/>
<path d="M0 0 C6.27495722 0.22818026 6.27495722 0.22818026 8.9375 3.0625 C9.288125 3.701875 9.63875 4.34125 10 5 C9.236875 4.690625 8.47375 4.38125 7.6875 4.0625 C5.81210323 3.32106407 3.91315348 2.63771783 2 2 C1.01 3.485 1.01 3.485 0 5 C2.49825283 8.21203935 5.0702992 11.17493137 8 14 C4.33987329 14 3.85067891 13.30810988 1.3125 10.8125 C-1.90898188 7.45509062 -1.90898188 7.45509062 -2.5625 4.1875 C-2 2 -2 2 0 0 Z " fill="#789EC3" transform="translate(22,176)"/>
<path d="M0 0 C0.66 0 1.32 0 2 0 C2 0.66 2 1.32 2 2 C2.99 2 3.98 2 5 2 C6.75 4.1875 6.75 4.1875 8 7 C7.6875 9.8125 7.6875 9.8125 7 12 C3.31959133 9.67553136 1.7005094 7.92034525 0.6875 3.75 C0.460625 2.5125 0.23375 1.275 0 0 Z " fill="#666DEB" transform="translate(197,139)"/>
<path d="M0 0 C3.88609811 1.75066796 7.27812258 4.18324006 10.75 6.625 C11.35199219 7.04523438 11.95398438 7.46546875 12.57421875 7.8984375 C14.05113043 8.92993137 15.52579194 9.96464579 17 11 C15 12 15 12 12.70703125 11.3125 C9.68497577 9.84726098 7.30106334 8.10633846 4.6875 6 C3.80449219 5.29875 2.92148438 4.5975 2.01171875 3.875 C1.34785156 3.25625 0.68398437 2.6375 0 2 C0 1.34 0 0.68 0 0 Z " fill="#6170D8" transform="translate(146,109)"/>
<path d="M0 0 C0.66 0 1.32 0 2 0 C2.33 6.27 2.66 12.54 3 19 C2.67 19 2.34 19 2 19 C1.34 15.04 0.68 11.08 0 7 C-0.33 7.66 -0.66 8.32 -1 9 C-1.66 9 -2.32 9 -3 9 C-2.01 6.03 -1.02 3.06 0 0 Z " fill="#6E6CD6" transform="translate(56,86)"/>
<path d="M0 0 C13.6332574 -0.738041 13.6332574 -0.738041 20 4 C18.02 4.99 18.02 4.99 16 6 C15.46439453 5.27876953 15.46439453 5.27876953 14.91796875 4.54296875 C12.14945328 2.31575162 9.81840977 2.48605989 6.3125 2.3125 C4.54326172 2.21388672 4.54326172 2.21388672 2.73828125 2.11328125 C1.83464844 2.07589844 0.93101563 2.03851563 0 2 C0 1.34 0 0.68 0 0 Z " fill="#BABAF2" transform="translate(74,148)"/>
<path d="M0 0 C0 0.66 0 1.32 0 2 C-3.50776784 3.60355101 -6.14354879 4.22036864 -10 4 C-10 3.34 -10 2.68 -10 2 C-13.63 2 -17.26 2 -21 2 C-21 1.67 -21 1.34 -21 1 C-18.25008168 0.83188272 -15.50007888 0.6654519 -12.75 0.5 C-11.97269531 0.45230469 -11.19539063 0.40460938 -10.39453125 0.35546875 C-9.26337891 0.28779297 -9.26337891 0.28779297 -8.109375 0.21875 C-7.41811523 0.17685547 -6.72685547 0.13496094 -6.01464844 0.09179688 C-4.01161035 0.00052902 -2.0051163 0 0 0 Z " fill="#6165E5" transform="translate(88,196)"/>
<path d="M0 0 C0.33 0.66 0.66 1.32 1 2 C-2.79037089 7.47035213 -6.75027653 11.89962427 -12 16 C-12.66 15.67 -13.32 15.34 -14 15 C-12.73542969 13.75283203 -12.73542969 13.75283203 -11.4453125 12.48046875 C-10.33840925 11.38294603 -9.2316457 10.28528241 -8.125 9.1875 C-7.56941406 8.64029297 -7.01382813 8.09308594 -6.44140625 7.52929688 C-5.90644531 6.99755859 -5.37148437 6.46582031 -4.8203125 5.91796875 C-4.32805176 5.43094482 -3.83579102 4.9439209 -3.32861328 4.44213867 C-1.77411511 2.82996499 -1.77411511 2.82996499 0 0 Z " fill="#6D72E6" transform="translate(155,170)"/>
<path d="M0 0 C0.33 0 0.66 0 1 0 C1 4.62 1 9.24 1 14 C2.65 13.67 4.3 13.34 6 13 C5.67 13.66 5.34 14.32 5 15 C2.625 15.125 2.625 15.125 0 15 C-2 13 -2 13 -2.25 9.75 C-2.00879145 6.1318718 -1.31162801 3.36104678 0 0 Z " fill="#7FA1C1" transform="translate(203,187)"/>
<path d="M0 0 C7.51869512 -0.59672183 11.74031045 0.85647028 18 5 C16 6 16 6 14.08203125 5.51171875 C13.33308594 5.23972656 12.58414063 4.96773438 11.8125 4.6875 C7.9029574 3.30840569 3.99504108 2.10501136 0 1 C0 0.67 0 0.34 0 0 Z " fill="#7F82DC" transform="translate(141,90)"/>
<path d="M0 0 C2.61047801 1.305239 2.68066423 2.35826574 3.625 5.0625 C3.88539063 5.79597656 4.14578125 6.52945313 4.4140625 7.28515625 C4.60742188 7.85105469 4.80078125 8.41695312 5 9 C4.67 9.33 4.34 9.66 4 10 C3.76924918 11.34747084 3.58846937 12.70377565 3.4375 14.0625 C3.2209375 16.0115625 3.2209375 16.0115625 3 18 C2.67 18 2.34 18 2 18 C1.93941406 17.28714844 1.87882813 16.57429688 1.81640625 15.83984375 C1.35191899 10.53039712 0.81924749 5.266591 0 0 Z " fill="#8592D7" transform="translate(164,129)"/>
<path d="M0 0 C1.65 1.65 3.3 3.3 5 5 C4.01 5.495 4.01 5.495 3 6 C3 5.34 3 4.68 3 4 C2.34 4 1.68 4 1 4 C1.66 5.98 2.32 7.96 3 10 C0.38472619 7.63379989 -1.26440562 5.057952 -3 2 C-2.34 2 -1.68 2 -1 2 C-0.67 1.34 -0.34 0.68 0 0 Z " fill="#7576DB" transform="translate(196,135)"/>
<path d="M0 0 C0.33 0 0.66 0 1 0 C1.53160457 2.41474617 2.05054766 4.83108107 2.5625 7.25 C2.71396484 7.93191406 2.86542969 8.61382812 3.02148438 9.31640625 C3.75233495 12.81769038 4.32203546 15.60298173 3 19 C0.36903961 12.51656189 -0.39325819 6.97669157 0 0 Z " fill="#7C7DDC" transform="translate(59,107)"/>
<path d="M0 0 C-1.2363168 0.89422914 -2.48971562 1.76487891 -3.75 2.625 C-4.44609375 3.11226562 -5.1421875 3.59953125 -5.859375 4.1015625 C-8 5 -8 5 -10.265625 4.1484375 C-10.83796875 3.76945313 -11.4103125 3.39046875 -12 3 C-10.3789897 2.30314502 -8.75303934 1.61777139 -7.125 0.9375 C-6.22007813 0.55464844 -5.31515625 0.17179688 -4.3828125 -0.22265625 C-2 -1 -2 -1 0 0 Z " fill="#818BC1" transform="translate(128,167)"/>
<path d="M0 0 C4.05281712 1.22527029 7.44360764 2.69880494 11 5 C10.01 5.66 9.02 6.32 8 7 C6.66382648 6.02471263 5.3311249 5.04466681 4 4.0625 C3.2575 3.51722656 2.515 2.97195312 1.75 2.41015625 C1.1725 1.94480469 0.595 1.47945313 0 1 C0 0.67 0 0.34 0 0 Z " fill="#7E78C0" transform="translate(176,122)"/>
<path d="M0 0 C1.32 0 2.64 0 4 0 C3.9375 1.75 3.9375 1.75 3 4 C0.75835678 5.59501537 -1.53566643 6.74543018 -4 8 C-2.66666667 5.33333333 -1.33333333 2.66666667 0 0 Z " fill="#1F1FFC" transform="translate(141,117)"/>
<path d="M0 0 C0.66 0.33 1.32 0.66 2 1 C-0.64 2.98 -3.28 4.96 -6 7 C-6.99 6.34 -7.98 5.68 -9 5 C-7.54735962 4.1361871 -6.0876837 3.28419546 -4.625 2.4375 C-3.40683594 1.72400391 -3.40683594 1.72400391 -2.1640625 0.99609375 C-1.44992188 0.66738281 -0.73578125 0.33867187 0 0 Z " fill="#837EC2" transform="translate(103,187)"/>
<path d="M0 0 C0.33 0.66 0.66 1.32 1 2 C0.0625 4.125 0.0625 4.125 -1 6 C-1.66 6 -2.32 6 -3 6 C-3.33 7.65 -3.66 9.3 -4 11 C-4.66 11 -5.32 11 -6 11 C-4.74194623 6.49197399 -3.09592835 3.5087188 0 0 Z " fill="#5350CB" transform="translate(93,75)"/>
<path d="M0 0 C0.66 0 1.32 0 2 0 C1.375 7.625 1.375 7.625 -2 11 C-1.34 7.37 -0.68 3.74 0 0 Z " fill="#80A1C4" transform="translate(211,189)"/>
<path d="M0 0 C0.66 0.66 1.32 1.32 2 2 C0.02 3.98 -1.96 5.96 -4 8 C-4.99 7.67 -5.98 7.34 -7 7 C-6.01 6.67 -5.02 6.34 -4 6 C-2.90833725 4.06669397 -2.90833725 4.06669397 -2 2 C-1.34 1.34 -0.68 0.68 0 0 Z " fill="#A1A1F4" transform="translate(98,147)"/>
<path d="M0 0 C-1.49097658 3.7952131 -3.75700849 5.61042731 -7 8 C-7 5 -7 5 -4.625 2.3125 C-2 0 -2 0 0 0 Z " fill="#4747FA" transform="translate(137,124)"/>
<path d="M0 0 C1.37562854 1.28965176 2.70766393 2.62689293 4 4 C4 4.66 4 5.32 4 6 C1.03 5.01 -1.94 4.02 -5 3 C-3.68 2.67 -2.36 2.34 -1 2 C-0.67 1.34 -0.34 0.68 0 0 Z " fill="#7D7AD4" transform="translate(183,102)"/>
<path d="M0 0 C3.43595166 1.52708963 6.11912454 3.59927045 9 6 C4.32409833 6 3.30350614 5.11997802 0 2 C0 1.34 0 0.68 0 0 Z " fill="#898EB9" transform="translate(146,109)"/>
<path d="M0 0 C2.475 0.99 2.475 0.99 5 2 C4.67 3.32 4.34 4.64 4 6 C2 4.6875 2 4.6875 0 3 C0 2.01 0 1.02 0 0 Z " fill="#6765E5" transform="translate(191,132)"/>
<path d="M0 0 C0.33 0.66 0.66 1.32 1 2 C-2.47307692 7.82980769 -2.47307692 7.82980769 -5.140625 8.69140625 C-5.75421875 8.79324219 -6.3678125 8.89507812 -7 9 C-6.02180976 7.68677212 -5.0424189 6.37443848 -4.0625 5.0625 C-3.51722656 4.33160156 -2.97195312 3.60070312 -2.41015625 2.84765625 C-1 1 -1 1 0 0 Z " fill="#757BDF" transform="translate(155,170)"/>
<path d="M0 0 C0.66 0.33 1.32 0.66 2 1 C-1.5 5.875 -1.5 5.875 -6 7 C-4.02 4.69 -2.04 2.38 0 0 Z " fill="#4B47D1" transform="translate(100,68)"/>
</svg>
