<?xml version="1.0" standalone="no"?>
<!DOCTYPE svg PUBLIC "-//W3C//DTD SVG 20010904//EN"
 "http://www.w3.org/TR/2001/REC-SVG-20010904/DTD/svg10.dtd">
<svg version="1.0" xmlns="http://www.w3.org/2000/svg"
 width="300.000000pt" height="371.000000pt" viewBox="0 0 300.000000 371.000000"
 preserveAspectRatio="xMidYMid meet">
<metadata>
Created by potrace 1.10, written by Peter Selinger 2001-2011
</metadata>
<g transform="translate(0.000000,371.000000) scale(0.100000,-0.100000)"
fill="#000000" stroke="none">
<path d="M1305 3386 c-255 -123 -453 -382 -484 -633 -7 -57 -6 -71 8 -87 15
-18 15 -19 -2 -13 -41 15 -8 -19 46 -49 32 -16 54 -33 51 -37 -4 -4 -1 -7 7
-7 24 -1 59 -34 50 -48 -4 -7 -15 -10 -24 -6 -9 3 -14 10 -11 15 3 5 -3 9 -13
9 -14 0 -15 2 -5 9 10 6 4 10 -20 15 -21 4 -28 9 -21 14 8 5 -4 14 -32 24 -25
10 -45 13 -45 8 0 -6 4 -10 8 -10 5 0 17 -7 28 -16 19 -15 18 -15 -3 -11 -25
6 -40 -7 -22 -18 5 -4 8 -13 5 -21 -3 -7 1 -38 9 -69 20 -74 20 -73 -19 -89
-66 -27 -182 -114 -252 -188 -97 -103 -138 -185 -143 -291 -6 -141 44 -213
202 -293 249 -124 524 -142 735 -47 41 19 52 28 51 46 -1 17 -2 18 -6 5 -9
-36 -18 -16 -20 46 -2 36 2 68 7 71 6 3 10 19 10 35 0 17 7 30 16 34 22 8 31
-1 16 -16 -15 -15 -16 -174 -2 -183 8 -5 17 121 11 158 0 4 3 7 8 7 4 0 7 12
5 26 -2 19 2 24 14 21 9 -2 15 -10 13 -18 -2 -8 -3 -22 -3 -32 0 -9 -3 -15 -8
-12 -6 4 -8 -8 -5 -27 4 -27 3 -29 -5 -13 -7 15 -8 7 -4 -30 10 -79 23 -77 27
3 2 39 5 48 15 40 6 -6 12 -22 12 -37 0 -20 -2 -23 -10 -11 -8 13 -10 13 -10
-2 0 -23 19 -33 26 -14 3 9 13 16 20 16 8 0 17 7 20 15 4 8 11 15 17 15 5 0
23 14 38 31 l28 32 48 -31 c136 -88 283 -135 418 -135 193 0 314 86 334 239
11 80 -6 250 -34 349 -30 101 -71 187 -131 272 -46 65 -149 163 -171 163 -7 0
-13 5 -13 11 0 7 -12 10 -30 7 -21 -3 -27 -1 -20 6 39 39 -25 16 -87 -32 -18
-13 -33 -19 -33 -14 0 6 -16 2 -35 -9 -19 -12 -35 -16 -35 -11 0 6 -8 13 -17
15 -14 4 -12 5 5 6 12 0 24 0 27 -1 2 -2 11 6 19 17 11 14 15 16 16 6 0 -10 7
-8 23 7 13 12 26 20 29 16 8 -7 58 25 58 38 0 6 -11 3 -25 -6 -32 -21 -38 -20
-25 3 15 28 13 33 -10 26 -11 -3 -20 -2 -20 2 0 11 -59 33 -98 37 l-27 3 -6
134 c-4 74 -12 154 -18 179 -60 230 -192 370 -350 370 -44 0 -72 -8 -126 -34z
m248 -13 c94 -52 168 -165 206 -313 21 -83 36 -278 23 -297 -5 -8 -21 -10 -44
-7 l-37 6 -6 77 c-15 181 -80 347 -169 436 -57 57 -106 83 -175 95 -37 6 -40
8 -16 10 101 7 164 -17 237 -92 88 -91 144 -235 155 -403 6 -101 22 -150 23
-70 0 123 -44 304 -97 394 -54 92 -161 181 -220 181 -10 0 -25 5 -33 11 -33
24 104 -2 153 -28z m-120 -44 c127 -65 228 -265 244 -481 5 -75 4 -88 -9 -88
-18 0 -28 29 -28 80 -1 59 -38 190 -79 275 -64 131 -153 207 -258 222 -37 5
-43 8 -28 14 30 13 113 1 158 -22z m-60 -25 c111 -58 202 -207 242 -394 21
-103 23 -144 4 -148 -12 -2 -18 13 -28 65 -50 277 -189 473 -335 473 -34 0
-37 2 -25 16 16 19 94 12 142 -12z m-47 -39 c114 -57 200 -200 244 -405 12
-56 15 -88 9 -95 -13 -12 -39 20 -39 48 0 34 -41 159 -72 222 -65 130 -157
218 -240 231 -21 4 -35 10 -32 15 10 17 81 9 130 -16z m-50 -33 c58 -30 138
-122 179 -205 35 -74 88 -251 77 -261 -11 -11 -32 -6 -32 8 0 8 -14 56 -31
108 -53 164 -162 306 -258 338 -23 7 -41 18 -41 24 0 6 -5 4 -10 -4 -5 -8 -10
-10 -10 -4 0 6 3 13 6 17 12 11 80 0 120 -21z m-136 -23 c0 -8 4 -8 14 1 23
18 98 -20 154 -78 61 -63 109 -144 142 -240 41 -118 44 -132 22 -132 -14 0
-23 15 -36 58 -57 181 -175 334 -283 367 -13 3 -23 11 -23 16 0 6 -4 7 -10 4
-5 -3 -10 -1 -10 4 0 6 7 11 15 11 8 0 15 -5 15 -11z m-20 -46 c0 -14 2 -15 9
-4 16 25 62 2 130 -67 70 -70 115 -146 156 -259 14 -37 25 -69 25 -70 0 -2 -9
-3 -19 -3 -14 0 -23 11 -32 38 -36 112 -125 245 -199 298 -25 18 -55 42 -67
53 -13 11 -23 16 -23 11 0 -6 -7 -10 -15 -10 -8 0 -15 6 -15 13 0 8 -4 7 -10
-3 -5 -8 -10 -10 -10 -4 0 17 11 24 42 24 20 0 28 -5 28 -17z m-22 -53 c2 -14
-1 -20 -5 -15 -4 6 -16 11 -25 12 -10 0 -30 1 -45 2 l-28 2 24 13 c38 21 75
14 79 -14z m78 -21 c56 -38 127 -132 169 -224 47 -101 50 -115 28 -115 -13 0
-23 12 -32 38 -33 89 -129 223 -193 268 -35 25 -52 64 -27 64 6 0 31 -14 55
-31z m-135 -2 c15 4 22 0 26 -18 6 -21 7 -22 14 -3 6 16 8 16 8 2 1 -23 -19
-34 -30 -17 -5 8 -9 10 -9 4 0 -5 -5 -3 -10 5 -5 8 -10 10 -10 3 0 -6 -9 -9
-20 -6 -11 3 -20 12 -20 20 0 8 5 11 10 8 6 -3 10 0 11 7 0 9 2 9 5 2 3 -7 14
-10 25 -7z m166 -112 c64 -71 140 -212 123 -228 -13 -14 -18 -9 -70 85 -19 35
-65 94 -103 132 -50 51 -66 73 -62 87 6 19 7 19 35 -1 16 -11 51 -45 77 -75z
m-207 63 c0 9 7 9 30 -3 20 -11 30 -23 29 -38 -1 -21 -1 -21 -9 3 -5 16 -8 19
-9 8 -2 -28 -61 -3 -61 25 0 18 2 19 10 7 7 -10 10 -11 10 -2z m150 -86 c56
-59 140 -190 143 -223 1 -11 5 -19 10 -19 4 0 5 -4 2 -10 -3 -5 -1 -10 5 -10
6 0 8 -4 5 -10 -10 -16 -21 -12 -33 14 -8 19 -8 26 1 30 7 2 5 5 -5 5 -9 1
-35 31 -58 67 -23 36 -66 92 -96 125 -52 57 -67 89 -42 89 7 0 37 -26 68 -58z
m-134 23 c6 -8 14 -12 17 -8 4 3 7 1 7 -6 0 -7 5 -9 10 -6 6 3 13 -1 16 -9 3
-9 10 -14 14 -11 17 10 175 -199 164 -217 -11 -17 -30 -7 -48 24 -11 17 -43
60 -73 94 -29 35 -53 68 -53 74 0 6 -4 9 -9 5 -5 -3 -16 2 -25 10 -11 11 -17
12 -22 3 -4 -6 4 -21 19 -34 15 -13 27 -29 27 -36 0 -9 -3 -9 -10 2 -7 10 -10
11 -10 2 0 -22 -40 10 -40 33 0 17 -2 17 -10 5 -7 -12 -10 -8 -10 15 0 21 3
26 9 16 5 -7 11 -9 14 -4 6 10 -6 35 -17 34 -20 -3 -26 1 -26 18 0 15 5 19 23
16 12 -3 27 -11 33 -20z m-96 -92 c0 -15 2 -16 10 -3 7 11 10 11 10 2 0 -7 5
-10 10 -7 6 3 10 1 10 -5 0 -6 5 -8 10 -5 6 3 10 1 10 -5 0 -6 5 -8 10 -5 6 3
10 -2 10 -12 0 -15 2 -16 10 -3 7 11 10 7 10 -18 0 -30 -2 -31 -20 -20 -11 7
-20 19 -20 27 0 8 -3 12 -6 8 -9 -9 -64 21 -64 36 0 8 -4 7 -10 -3 -9 -13 -10
-13 -10 0 0 13 -1 13 -10 0 -8 -13 -10 -13 -10 2 0 16 13 26 38 27 6 1 12 -7
12 -16z m224 -96 c31 -40 56 -79 56 -85 0 -7 6 -12 13 -12 7 0 4 -7 -7 -15
-19 -14 -32 -60 -14 -49 7 5 10 -3 7 -22 0 -4 4 -10 9 -13 14 -9 44 -83 31
-79 -6 2 -10 7 -9 11 0 5 -9 16 -20 25 -12 9 -22 27 -23 39 0 12 -4 20 -8 18
-3 -3 -11 6 -17 20 -9 20 -7 26 16 41 22 14 24 18 10 23 -29 10 -118 129 -118
157 0 33 8 27 74 -59z m-204 31 c0 -5 5 -6 10 -3 6 3 10 2 10 -3 0 -5 14 -15
30 -22 32 -13 38 -26 18 -33 -10 -3 -10 -7 1 -20 22 -28 2 -19 -29 12 -16 16
-26 31 -23 34 3 4 -4 4 -16 2 -16 -3 -24 3 -31 21 -13 33 -13 33 10 27 11 -3
20 -10 20 -15z m-64 -45 c-3 9 -3 17 1 17 3 0 12 -8 20 -17 8 -10 12 -13 9 -6
-4 7 4 6 24 -3 16 -9 30 -19 30 -23 0 -4 11 -13 24 -20 16 -9 22 -19 19 -31
-4 -16 -8 -17 -27 -7 -11 7 -24 17 -28 22 -4 6 -14 19 -22 30 -15 19 -16 19
-9 1 5 -15 3 -17 -8 -11 -33 20 15 -26 56 -54 l42 -28 13 36 14 36 9 -35 c5
-19 18 -52 28 -72 l20 -37 -23 -12 c-42 -22 -82 -21 -106 3 -20 23 -62 58
-112 97 -14 11 -22 23 -18 27 5 4 16 0 25 -8 10 -9 23 -13 30 -11 6 2 15 -1
19 -8 5 -9 2 -10 -9 -6 -25 9 -21 2 9 -18 15 -9 23 -12 19 -5 -5 8 -3 11 4 9
7 -3 12 -9 12 -14 0 -6 11 -16 25 -23 13 -7 24 -21 24 -32 0 -11 5 -20 10 -20
19 0 11 66 -10 85 -11 10 -20 13 -20 7 0 -6 8 -15 17 -21 10 -5 14 -13 10 -17
-4 -4 -18 3 -32 16 -14 13 -23 26 -20 29 3 2 -7 18 -22 34 -16 15 -28 38 -28
50 0 15 -5 21 -17 19 -10 -2 -18 2 -18 8 0 6 -4 9 -9 5 -5 -3 -13 0 -17 6 -4
8 -3 9 4 5 8 -4 12 0 12 11 1 15 4 13 16 -7 8 -14 13 -17 10 -7z m244 -39 c28
-37 39 -61 35 -72 -10 -25 -85 63 -85 101 0 15 2 27 4 27 2 0 23 -25 46 -56z
m355 6 c-3 -5 0 -10 8 -10 19 0 17 -42 -2 -48 -10 -3 -12 0 -8 12 4 9 2 16 -3
16 -6 0 -10 9 -10 20 0 11 5 20 11 20 5 0 7 -4 4 -10z m-615 -21 c-17 33 0 23
43 -25 30 -34 34 -43 22 -48 -9 -3 -14 -2 -11 3 3 4 -6 19 -19 31 -14 13 -25
20 -25 16 0 -4 -9 -2 -20 4 -11 6 -20 18 -20 28 0 14 5 12 21 -8 20 -25 20
-25 9 -1z m536 10 c3 -6 0 -15 -7 -20 -11 -7 -9 -9 6 -9 15 0 16 -3 7 -12 -10
-10 -15 -10 -22 2 -13 21 -12 30 3 30 8 0 7 4 -3 10 -9 6 -10 10 -3 10 6 0 15
-5 19 -11z m49 -14 c-1 -14 2 -25 6 -25 5 0 9 -4 9 -10 0 -5 -6 -10 -14 -10
-16 0 -29 27 -20 41 3 5 0 9 -6 9 -6 0 -8 5 -5 10 13 20 33 10 30 -15z m79 14
c-4 -8 3 -9 25 -4 21 4 31 3 31 -5 0 -8 11 -11 30 -8 22 3 27 2 19 -8 -7 -8
-6 -13 2 -16 17 -6 2 -28 -18 -28 -9 0 -13 6 -10 15 7 17 -9 30 -18 15 -10
-16 -28 -12 -21 6 5 13 1 14 -22 9 -23 -5 -28 -2 -29 15 -1 11 3 20 8 20 6 0
7 -5 3 -11z m216 -19 c0 -5 -4 -10 -9 -10 -5 0 -7 -8 -4 -19 4 -17 -23 -38
-35 -26 -3 3 0 5 7 5 7 0 9 5 5 12 -4 7 -3 8 4 4 7 -4 12 -3 12 3 0 12 -21 20
-37 13 -8 -2 -11 -13 -7 -27 4 -15 0 -24 -10 -28 -27 -11 -17 49 11 62 14 6
29 9 34 6 5 -4 9 -1 9 4 0 6 5 11 10 11 6 0 10 -4 10 -10z m101 -7 c-1 -4 -7
-8 -13 -8 -8 0 -12 -10 -10 -24 2 -15 0 -21 -7 -17 -6 4 -11 5 -11 2 0 -2 -3
-11 -6 -19 -6 -16 6 -17 38 -3 9 4 22 8 30 10 7 1 19 5 26 9 7 5 12 3 12 -4 0
-6 9 -1 19 12 24 30 36 21 15 -10 -9 -12 -22 -20 -30 -17 -7 3 -16 1 -19 -5
-4 -5 -11 -7 -16 -4 -5 4 -9 1 -9 -5 0 -6 -4 -8 -10 -5 -5 3 -10 2 -10 -3 0
-5 -10 -8 -22 -6 -13 1 -27 3 -32 3 -11 1 2 54 16 62 7 4 6 9 -1 13 -16 10
-13 29 4 23 8 -4 17 -2 21 4 6 11 16 6 15 -8z m-586 -3 c-3 -5 -1 -10 5 -10 6
0 8 -4 5 -10 -3 -5 -1 -10 5 -10 6 0 8 -4 5 -10 -3 -5 -1 -10 5 -10 6 0 8 -4
5 -10 -3 -5 -1 -10 6 -10 7 0 9 -3 6 -6 -3 -4 -2 -15 4 -26 6 -11 12 -27 14
-36 2 -9 7 -27 11 -39 4 -14 2 -23 -5 -23 -6 0 -12 5 -12 10 -3 19 -5 25 -16
45 -6 11 -9 28 -8 38 2 9 -1 17 -6 17 -6 0 -7 5 -4 10 3 6 1 10 -5 10 -6 0 -8
5 -5 10 3 6 1 10 -5 10 -6 0 -8 5 -5 10 3 6 1 10 -5 10 -6 0 -8 5 -5 10 3 6 1
10 -5 10 -6 0 -8 5 -5 10 3 6 11 10 16 10 6 0 7 -4 4 -10z m-140 -69 c-18 -19
-22 -15 -30 34 l-7 40 25 -30 c22 -26 24 -32 12 -44z m651 43 c-18 -12 -15
-18 6 -15 4 0 5 -6 1 -15 -3 -9 -9 -12 -15 -6 -16 16 -16 47 1 53 24 10 28 -1
7 -17z m-216 7 c0 -5 -10 -11 -22 -13 -15 -2 -23 -10 -23 -22 0 -11 -6 -21
-14 -24 -10 -3 -12 0 -8 12 6 15 3 17 -23 11 -17 -4 -30 -4 -30 -1 0 7 45 26
67 30 7 1 16 5 19 9 11 10 34 9 34 -2z m-185 -11 c-3 -5 -1 -10 5 -10 6 0 8
-4 5 -10 -11 -17 -31 -11 -32 10 -1 12 4 20 13 20 8 0 12 -4 9 -10z m52 -20
c2 -12 -3 -20 -11 -20 -11 0 -15 25 -7 49 3 9 15 -11 18 -29z m-184 6 c3 -7 0
-19 -6 -25 -9 -9 -8 -10 7 -5 13 5 17 4 12 -4 -4 -7 -2 -12 3 -12 6 0 10 -3 9
-7 -1 -5 5 -20 12 -36 7 -15 10 -30 6 -34 -8 -8 -27 10 -30 29 -1 8 -10 27
-19 42 -10 15 -15 31 -12 36 3 6 1 10 -5 10 -6 0 -8 5 -5 10 9 14 22 12 28 -4z
m97 5 c0 -5 -6 -12 -12 -14 -7 -3 -4 -6 6 -6 11 -1 17 -4 13 -7 -3 -4 0 -18 7
-33 7 -14 17 -48 20 -74 6 -40 4 -51 -10 -61 -16 -12 -16 -14 1 -39 16 -24 16
-27 1 -27 -9 0 -16 5 -16 10 0 6 -8 10 -19 10 -13 0 -23 13 -34 47 -9 26 -13
50 -11 53 9 9 33 -31 27 -46 -3 -8 0 -14 6 -14 6 0 8 -7 5 -15 -4 -8 -1 -15 4
-15 6 0 9 14 7 31 -4 25 -1 30 11 25 14 -5 15 -1 9 31 -4 21 -8 44 -8 51 0 6
-4 12 -9 12 -5 0 -6 5 -3 10 3 6 1 10 -6 10 -7 0 -9 3 -6 6 3 4 2 15 -4 26
-10 19 -5 38 12 38 5 0 9 -4 9 -9z m-172 -63 c25 -39 21 -46 -12 -25 -22 15
-25 15 -28 1 -2 -12 -6 -10 -15 5 -11 18 -10 19 4 14 12 -5 15 -2 10 9 -6 16
0 28 14 28 4 0 16 -15 27 -32z m217 22 c-3 -5 -2 -10 3 -10 5 0 12 -9 15 -20
3 -14 0 -20 -11 -20 -8 0 -13 3 -9 6 3 4 0 13 -8 21 -19 19 -19 33 1 33 8 0
12 -4 9 -10z m690 -12 c-11 -6 -24 -17 -28 -25 -4 -7 -13 -13 -20 -13 -8 0 -6
4 3 11 12 9 12 10 -3 5 -10 -3 -21 -6 -23 -6 -3 0 -2 -5 2 -12 5 -8 2 -9 -10
-5 -9 4 -15 3 -12 -2 3 -5 -5 -8 -19 -8 -15 0 -22 4 -18 11 3 6 2 7 -3 3 -5
-5 -9 -14 -9 -20 0 -7 -10 -13 -23 -13 -16 -1 -22 4 -20 14 2 9 6 15 11 14 4
-2 20 4 36 12 16 9 31 13 34 10 3 -3 22 4 43 15 42 23 98 31 59 9z m-555 -24
c0 -18 -4 -24 -13 -21 -8 3 -20 1 -28 -4 -10 -6 -10 -9 -1 -9 6 0 12 -4 12
-10 0 -5 -7 -10 -16 -10 -10 0 -14 7 -13 23 2 12 0 28 -4 35 -5 8 -2 12 8 12
9 0 14 -4 10 -9 -8 -14 9 -21 25 -10 10 6 11 9 3 9 -7 0 -13 5 -13 10 0 6 7
10 15 10 9 0 15 -10 15 -26z m250 11 c0 -8 -4 -15 -9 -15 -5 0 -7 -8 -4 -19 4
-17 -12 -39 -22 -29 -10 10 9 78 21 78 8 0 14 -7 14 -15z m350 -15 c0 -14 -7
-20 -21 -20 -11 0 -17 -5 -14 -10 4 -6 -7 -13 -24 -16 -17 -4 -31 -11 -31 -16
0 -5 -10 -6 -21 -3 -15 5 -19 4 -15 -4 4 -6 1 -11 -8 -11 -8 0 -23 -3 -33 -7
-16 -6 -17 -5 -3 12 14 17 13 18 -3 12 -11 -4 -16 -3 -12 3 3 6 13 10 21 10 8
0 13 4 10 8 -2 4 3 8 12 9 29 1 128 32 107 32 -17 1 -17 3 -5 11 24 16 40 12
40 -10z m-679 3 c7 -42 5 -53 -12 -53 -13 0 -17 -6 -13 -25 2 -14 0 -25 -6
-25 -5 0 -10 6 -11 13 0 6 -2 20 -4 30 -2 11 3 17 16 17 16 0 17 4 9 25 -7 20
-6 25 5 25 8 0 16 -3 16 -7z m364 -24 c0 -7 -8 -15 -17 -17 -18 -3 -25 18 -11
32 10 10 28 1 28 -15z m-85 -7 c0 -4 -4 -12 -10 -18 -6 -6 -6 -15 0 -24 7 -10
10 -11 10 -2 0 6 7 12 16 12 11 0 14 -6 8 -22 -9 -30 -14 -35 -22 -22 -4 6
-22 10 -41 10 -21 -1 -36 4 -39 13 -3 10 1 12 17 8 14 -3 24 0 27 9 2 8 6 21
9 29 5 16 25 21 25 7z m-498 -34 c53 -34 76 -71 58 -93 -5 -6 -7 -15 -3 -18 3
-4 -4 -7 -16 -7 -12 0 -20 -4 -16 -10 3 -5 12 -7 20 -4 8 4 17 -1 21 -9 4 -12
11 -14 30 -7 13 5 24 6 24 3 0 -4 5 -2 12 5 13 13 29 16 27 5 -5 -29 2 -45 17
-39 9 3 28 8 42 11 26 5 26 5 -2 -6 -21 -9 -25 -14 -15 -20 12 -8 11 -11 -1
-19 -22 -14 -33 -12 -26 5 7 19 2 19 -34 0 -17 -9 -31 -11 -35 -5 -3 5 -12 7
-19 4 -8 -3 -17 0 -22 7 -5 9 1 11 22 7 36 -7 59 2 60 25 2 21 2 21 -41 3 -19
-8 -35 -12 -35 -9 0 3 -6 0 -14 -6 -10 -8 -16 -9 -21 -1 -3 5 1 10 9 10 9 0
16 5 16 10 0 6 -13 9 -30 8 -16 -1 -30 -5 -30 -9 0 -3 -10 -10 -23 -16 -18 -9
-25 -6 -40 13 -21 28 -21 34 -3 34 7 0 16 -10 20 -22 4 -14 9 -19 13 -12 5 6
16 14 27 17 17 7 16 9 -7 27 -25 20 -39 51 -52 118 -8 41 3 41 67 0z m301 16
c-5 -13 -2 -15 15 -9 13 4 22 2 22 -4 0 -6 -9 -11 -21 -11 -15 0 -19 -5 -15
-15 3 -8 0 -15 -7 -15 -7 0 -13 16 -14 35 -2 25 1 35 12 35 9 0 12 -6 8 -16z
m634 9 c-9 -2 -15 -9 -12 -14 4 -5 -13 -8 -37 -8 -24 1 -33 4 -20 6 12 2 22 9
22 14 0 5 15 8 33 8 17 -1 24 -3 14 -6z m-522 -25 c-8 -25 -22 -44 -29 -37
-10 10 8 59 21 59 10 0 12 -6 8 -22z m185 2 c0 -16 -7 -20 -30 -20 -35 0 -40
17 -7 30 33 13 37 12 37 -10z m101 -24 c24 -23 28 -24 62 -12 20 7 40 15 43
19 4 4 30 6 58 6 44 -1 47 -2 21 -9 -16 -4 -25 -9 -20 -10 6 -2 -14 -6 -44 -9
-36 -4 -56 -11 -59 -21 -5 -13 -3 -13 12 -1 14 12 37 9 25 -3 -10 -10 -62 -18
-56 -9 4 5 -17 8 -54 5 -57 -4 -59 -3 -59 19 0 13 3 34 6 46 7 26 24 21 65
-21z m270 12 c-11 -5 -12 -7 -2 -7 28 -2 -32 -41 -63 -42 -30 -1 -30 -1 -6 -9
14 -4 18 -8 10 -9 -8 -1 -28 -8 -44 -16 -32 -17 -58 -13 -54 7 3 15 52 36 88
38 14 1 20 4 13 6 -7 3 0 16 19 33 24 21 35 25 44 17 9 -8 8 -13 -5 -18z
m-1067 6 c3 -9 6 -23 6 -32 0 -12 -5 -11 -25 8 -25 23 -25 40 0 40 7 0 16 -7
19 -16z m-161 -19 c28 -25 29 -49 2 -39 -8 4 -12 10 -9 15 3 5 -2 6 -10 3 -18
-7 -12 -22 16 -42 10 -7 18 -21 17 -30 0 -14 -2 -14 -8 2 -4 11 -17 20 -30 21
-15 1 -20 -3 -16 -12 3 -8 5 -17 5 -20 0 -3 7 0 15 7 13 11 14 10 10 -2 -4 -9
4 -19 20 -28 28 -15 33 -30 10 -30 -8 0 -15 6 -15 14 0 7 -11 16 -25 18 -17 4
-25 1 -25 -8 0 -19 -16 -18 -24 1 -3 9 0 15 9 15 8 0 15 7 15 16 0 8 -4 13 -9
9 -5 -3 -21 9 -34 27 -28 35 -22 49 28 63 28 8 29 9 6 13 -13 2 -28 -1 -34 -7
-15 -15 -27 -14 -27 2 0 7 16 13 43 14 33 2 48 -3 70 -22z m137 -26 c0 -15
-22 -10 -43 9 -19 16 -20 16 -8 -5 10 -20 9 -23 -9 -23 -26 0 -25 18 2 48 l23
23 17 -21 c10 -12 18 -26 18 -31z m387 31 c1 -11 -2 -20 -8 -20 -5 0 -9 7 -9
15 0 8 -5 15 -10 15 -6 0 -8 -11 -6 -25 3 -15 0 -25 -7 -25 -7 0 -13 14 -13
30 -2 26 2 30 25 30 20 0 27 -5 28 -20z m331 -22 c-5 -15 -33 -22 -54 -14 -24
9 -6 26 27 26 20 0 29 -4 27 -12z m422 -3 c0 -8 -8 -15 -17 -15 -15 0 -16 -2
-3 -10 13 -8 12 -10 -4 -10 -11 0 -16 -3 -12 -7 10 -10 -101 -63 -119 -57 -23
9 -6 30 36 44 21 7 39 17 39 21 0 5 7 5 17 2 11 -4 14 -3 9 5 -4 7 3 14 20 18
19 5 22 9 12 15 -10 7 -9 9 5 9 9 0 17 -7 17 -15z m-832 -15 c-10 -6 -14 -18
-11 -30 3 -11 0 -20 -6 -20 -6 0 -12 5 -12 10 -1 6 -2 16 -3 23 -1 6 5 15 14
19 23 10 37 9 18 -2z m178 -3 c4 -4 -2 -7 -14 -7 -12 0 -22 -4 -22 -10 0 -5
-12 -10 -27 -9 -16 0 -22 3 -13 6 8 3 18 11 22 18 8 12 43 14 54 2z m-453 -10
c-2 -4 1 -14 7 -22 6 -8 9 -19 5 -25 -9 -14 -28 -1 -21 15 2 7 -4 15 -16 18
-24 7 -15 26 12 24 10 -1 16 -5 13 -10z m1132 -17 c-2 -12 4 -24 15 -30 11 -6
19 -14 17 -18 -1 -4 2 -8 7 -9 16 -3 25 -27 16 -44 -5 -9 -6 -19 -3 -23 3 -3
1 -6 -5 -6 -18 0 -25 20 -12 35 9 11 6 16 -12 26 -19 10 -21 10 -12 -2 14 -18
-14 -46 -44 -44 -11 1 -20 -3 -19 -9 1 -6 -7 -11 -18 -11 -11 -1 -19 -6 -18
-12 3 -16 -79 -34 -184 -40 -79 -5 -93 -4 -93 9 0 12 17 17 70 22 39 4 93 13
121 20 27 7 52 9 55 5 9 -15 24 -10 24 7 0 8 4 13 9 10 5 -3 19 5 32 18 13 13
35 29 48 35 14 8 20 16 14 22 -12 12 -45 0 -37 -13 4 -6 -2 -8 -17 -3 -16 4
-20 3 -11 -3 11 -7 10 -10 -3 -16 -9 -3 -22 -3 -27 1 -7 3 -8 1 -4 -5 5 -8 -4
-12 -28 -12 -20 0 -36 5 -36 11 0 6 7 8 16 5 8 -3 12 -2 9 4 -3 6 3 10 14 10
12 0 21 5 21 11 0 5 5 7 10 4 6 -3 10 -2 10 4 0 6 7 7 17 4 11 -4 14 -3 9 5
-4 8 1 15 14 20 12 4 21 11 21 15 -2 21 0 28 8 22 6 -3 8 -14 6 -25z m-1179
-1 c5 -8 -1 -10 -19 -7 -14 3 -25 1 -24 -4 1 -6 -7 -14 -18 -18 -16 -6 -21 -4
-22 10 -2 25 69 41 83 19z m528 -27 c-6 -20 -24 -32 -24 -14 1 23 14 52 21 45
5 -5 6 -18 3 -31z m168 20 c9 -9 6 -18 -17 -42 -27 -28 -34 -30 -92 -29 -35 1
-63 5 -63 8 1 3 7 17 14 30 8 14 11 31 8 39 -4 12 8 14 66 10 40 -2 77 -9 84
-16z m-478 -18 c5 -13 9 -14 21 -4 9 7 15 8 15 2 0 -9 -22 -22 -40 -22 -4 0
-10 9 -13 20 -6 24 8 27 17 4z m216 6 c0 -5 -6 -7 -14 -4 -15 6 -29 -33 -15
-42 5 -3 9 2 9 12 0 12 6 15 25 12 25 -5 35 7 13 15 -7 2 0 4 15 4 21 0 27 -3
23 -14 -3 -8 -6 -23 -6 -34 0 -10 -4 -19 -10 -19 -5 0 -7 7 -4 15 4 8 1 15 -6
15 -6 0 -9 -3 -6 -8 2 -4 -3 -16 -11 -27 -15 -19 -15 -18 -9 15 6 30 5 32 -7
17 -19 -26 -47 -12 -47 24 0 24 4 29 25 29 14 0 25 -4 25 -10z m419 -1 c17 -6
31 -15 31 -20 0 -5 8 -9 18 -9 9 -1 28 -7 41 -14 23 -13 21 -14 -35 -20 -32
-4 -67 -9 -76 -12 -13 -4 -18 0 -18 15 0 13 7 21 18 21 9 0 24 5 32 10 10 6 3
8 -22 3 -34 -5 -38 -3 -38 16 0 24 5 25 49 10z m-79 -12 c0 -8 4 -7 10 3 8 13
10 12 10 -2 0 -10 -6 -18 -12 -19 -7 0 -20 -2 -30 -4 -9 -2 -18 5 -21 14 -3
12 3 17 19 19 13 1 24 -4 24 -11z m-775 -24 c20 -23 24 -25 25 -10 0 24 15 21
34 -8 20 -30 20 -39 1 -31 -8 3 -15 1 -15 -4 0 -6 -7 -10 -15 -10 -8 0 -15 5
-15 10 0 6 6 10 14 10 8 0 18 5 21 11 5 7 -5 8 -31 3 -32 -6 -36 -5 -31 10 5
11 1 16 -13 16 -20 0 -33 13 -23 24 12 11 24 6 48 -21z m374 11 c2 -2 1 -7 -2
-11 -4 -3 -22 1 -40 10 l-32 17 35 -6 c19 -4 37 -8 39 -10z m-582 -31 c4 -9 1
-19 -5 -21 -40 -13 -178 -115 -237 -176 -138 -140 -198 -332 -136 -431 11 -19
12 -18 6 5 -51 194 50 376 300 544 38 25 74 45 80 43 23 -8 7 -28 -60 -75 -85
-59 -176 -149 -222 -217 -70 -107 -95 -245 -59 -329 22 -52 29 -42 10 14 -38
107 13 259 128 385 78 85 210 185 238 180 13 -3 20 2 20 12 0 13 3 13 16 2 14
-12 14 -14 -3 -20 -10 -3 -21 -5 -25 -2 -5 2 -8 -2 -8 -9 0 -7 -23 -28 -51
-47 -84 -57 -203 -192 -246 -278 -32 -65 -39 -89 -42 -155 -3 -65 0 -85 19
-120 l22 -43 -24 23 c-14 12 -27 20 -30 16 -4 -3 -16 8 -29 25 -12 17 -26 28
-30 26 -14 -9 -47 45 -59 96 -35 146 58 325 242 461 67 51 154 105 171 107 4
1 11 -7 14 -16z m713 -13 c-8 -27 -6 -30 15 -30 13 0 27 -5 30 -10 4 -6 11 -8
16 -5 5 4 9 1 9 -4 0 -6 -9 -11 -20 -11 -11 0 -20 4 -20 8 0 4 -9 8 -20 8 -11
0 -20 -6 -20 -12 0 -7 8 -10 20 -7 11 3 20 1 20 -4 0 -18 -12 -22 -35 -11 -16
7 -21 16 -17 31 3 14 1 18 -6 13 -16 -9 -15 -39 1 -55 10 -10 9 -11 -5 -6 -28
11 -21 -9 7 -22 21 -9 27 -8 36 5 8 14 9 12 3 -7 -4 -16 -3 -21 5 -17 19 12
12 -3 -25 -57 -20 -29 -33 -44 -30 -33 7 20 -11 49 -25 40 -5 -3 -9 0 -9 6 0
6 -5 8 -11 4 -7 -4 -9 0 -5 14 4 13 1 22 -9 26 -8 3 -15 13 -15 23 1 16 3 15
19 -4 10 -12 22 -19 26 -15 4 4 6 0 3 -8 -4 -13 13 -40 25 -40 2 0 4 13 4 30
0 16 -4 27 -9 24 -4 -3 -8 0 -8 6 0 6 -4 8 -10 5 -5 -3 -10 -1 -10 5 0 6 -3 9
-7 7 -11 -7 -28 14 -30 36 0 12 4 16 13 13 7 -3 16 -1 18 3 3 5 -5 7 -17 6
-12 -1 -28 -3 -34 -4 -7 0 -13 -5 -13 -11 0 -5 7 -7 15 -4 8 4 15 1 15 -5 0
-6 -6 -11 -14 -11 -8 0 -16 -6 -19 -12 -6 -18 3 -39 14 -32 5 3 9 1 9 -5 0 -5
-6 -11 -12 -14 -8 -2 -9 -8 -4 -13 5 -5 11 -4 13 4 8 22 20 12 20 -18 0 -27
-2 -28 -14 -12 -13 15 -14 14 -8 -13 3 -16 2 -25 -2 -19 -4 6 -17 14 -28 17
-16 6 -14 2 8 -17 31 -28 33 -36 12 -36 -8 0 -15 7 -15 15 0 8 -7 15 -15 15
-8 0 -15 5 -15 10 0 18 -18 10 -23 -10 -6 -22 18 -41 41 -33 6 3 12 0 12 -6 0
-6 6 -8 14 -5 19 7 28 -23 15 -48 -15 -29 -89 -108 -101 -108 -5 0 -16 16 -24
36 -17 41 -6 84 27 107 11 9 15 18 9 27 -6 10 -14 7 -34 -16 -14 -16 -26 -34
-26 -40 0 -7 -13 -26 -29 -43 -17 -18 -30 -34 -30 -37 1 -22 -12 -21 -44 0
-36 25 -39 25 -55 9 -9 -9 -17 -21 -17 -27 0 -6 -13 -32 -29 -59 -28 -47 -76
-175 -76 -203 0 -8 -10 -18 -22 -23 -19 -7 -19 -8 -4 -14 10 -4 14 -11 11 -17
-3 -5 0 -10 7 -10 9 0 9 -3 -2 -10 -10 -6 -11 -10 -2 -10 6 0 12 -7 12 -15 0
-8 -4 -15 -10 -15 -6 0 -1 -9 10 -20 20 -20 19 -40 -2 -40 -6 0 -9 3 -5 6 3 3
-3 14 -14 25 -11 11 -17 24 -14 29 4 6 0 10 -7 10 -9 0 -9 3 2 10 9 6 10 10 3
10 -19 0 -13 78 12 152 26 75 88 193 110 205 13 8 15 12 15 34 0 5 5 7 10 4 6
-3 10 1 10 10 0 9 9 19 20 22 11 3 17 9 14 14 -3 5 1 9 8 9 7 1 3 9 -11 21
-13 11 -21 23 -17 27 4 4 14 -2 22 -12 7 -11 17 -16 21 -12 4 4 0 12 -10 17
-23 13 -22 26 3 34 11 3 20 11 20 16 0 6 -9 8 -19 4 -11 -3 -23 0 -27 6 -5 9
-2 10 11 6 17 -7 17 -6 0 20 -10 16 -26 33 -34 40 -9 6 -12 15 -8 20 5 4 16
-3 26 -16 14 -18 20 -20 23 -10 3 8 9 10 14 5 5 -5 4 -11 -3 -13 -22 -8 -14
-21 11 -19 13 0 21 6 18 11 -20 36 -68 102 -80 111 -12 9 -12 13 -2 19 8 5 19
-1 31 -16 10 -13 19 -18 19 -12 0 7 6 12 13 10 17 -3 15 25 -2 31 -8 3 -11 0
-7 -7 4 -6 2 -11 -3 -11 -17 0 -13 20 5 27 10 4 20 0 26 -10 4 -9 15 -14 23
-11 8 4 15 1 15 -5 0 -6 6 -11 13 -11 7 0 18 -9 25 -20 15 -25 4 -26 -15 -2
-13 15 -13 15 -8 -8 l7 -25 -19 25 c-19 27 -26 29 -56 15 -12 -5 -16 -14 -11
-29 9 -29 9 -29 34 -16 18 10 24 8 36 -7 8 -11 13 -13 14 -5 0 7 5 10 10 7 16
-10 11 -44 -10 -65 -24 -24 -25 -31 -3 -23 13 5 15 2 10 -11 -4 -10 -3 -26 3
-36 7 -13 6 -19 -6 -24 -11 -4 -14 -1 -9 13 7 24 -10 37 -19 14 -4 -9 1 -24
10 -34 10 -11 12 -19 6 -19 -6 0 -22 -18 -34 -40 -23 -39 -38 -46 -46 -20 -3
7 0 10 6 6 5 -3 9 2 8 12 0 10 6 16 16 16 10 -1 15 2 12 8 -3 5 0 16 7 24 21
26 3 25 -25 -1 -15 -14 -24 -25 -21 -25 4 0 -1 -7 -9 -16 -9 -8 -21 -12 -28
-8 -10 6 -10 5 -1 -7 17 -21 73 -52 73 -40 0 6 0 13 0 16 0 2 14 19 30 37 17
18 30 37 30 43 0 6 9 17 20 25 11 8 20 20 20 27 0 7 6 13 14 13 14 0 30 29 21
38 -3 3 -6 3 -8 1 -38 -51 -46 -58 -52 -49 -8 13 3 30 21 30 8 0 14 6 14 13 0
11 26 40 40 44 26 8 40 16 40 23 0 4 -8 10 -17 14 -10 3 -24 9 -30 12 -8 3
-13 -1 -13 -10 0 -9 -4 -16 -10 -16 -5 0 -10 -5 -10 -11 0 -5 5 -7 10 -4 16
10 11 0 -15 -31 -13 -15 -28 -25 -32 -21 -4 5 -1 12 7 17 8 6 11 10 5 10 -5 0
-3 5 5 10 13 9 13 11 0 20 -10 6 -11 10 -2 10 6 0 12 4 12 10 0 5 -7 7 -15 4
-17 -7 -21 11 -4 21 6 4 17 -1 25 -11 14 -18 15 -17 9 6 -5 20 -4 22 5 10 8
-12 9 -8 5 17 l-5 32 30 -17 c16 -9 30 -20 30 -24 0 -12 -15 -9 -28 4 -7 7
-12 8 -12 2 0 -6 12 -16 26 -22 14 -7 23 -8 19 -2 -3 5 -2 10 3 10 5 0 8 18 6
40 -1 22 2 40 8 40 6 0 8 -9 5 -20 -3 -11 -1 -20 4 -20 5 0 9 12 10 28 1 22 2
24 7 7 4 -11 14 -21 22 -21 8 -1 24 -5 34 -10 16 -6 18 -4 13 10 -5 12 -2 16
11 14 11 -2 18 5 20 20 2 12 7 22 12 22 5 0 5 -13 0 -30z m280 12 c0 -16 -7
-19 -42 -17 -23 1 -50 0 -61 -3 -31 -8 -2 -17 52 -16 l51 0 0 -36 c0 -34 -2
-36 -30 -36 -17 0 -30 5 -30 12 0 16 38 25 44 10 2 -6 5 -2 5 9 1 18 -5 20
-53 19 -71 -2 -146 15 -146 33 0 10 7 12 19 8 44 -14 60 -13 79 5 11 10 39 20
63 23 24 2 45 4 47 5 1 1 2 -6 2 -16z m195 -48 c-86 -19 -165 -18 -165 1 0 9
10 15 28 16 15 0 52 6 82 13 46 10 60 10 85 -3 l30 -15 -60 -12z m-1069 -10
c-3 -9 2 -14 14 -14 23 0 35 -16 19 -25 -12 -8 -71 44 -63 56 8 13 36 -3 30
-17z m1299 6 c3 -5 14 -14 25 -20 15 -8 17 -7 13 10 -3 11 0 20 6 20 17 0 13
-31 -7 -62 -51 -78 -141 -108 -324 -108 -117 0 -129 2 -126 17 3 15 14 17 80
14 78 -3 156 9 241 36 38 12 51 12 62 3 8 -7 15 -10 15 -6 0 16 -3 21 -11 19
-20 -6 -7 7 22 22 17 9 28 19 25 23 -9 9 -46 10 -40 1 6 -10 -35 -33 -44 -25
-12 12 -10 35 3 40 9 3 12 -2 10 -16 -3 -11 -3 -19 -1 -17 3 2 5 9 6 14 7 36
32 56 45 35z m-1165 -32 c22 -24 27 -42 9 -36 -6 2 -10 8 -10 13 0 6 -9 13
-20 17 -11 4 -17 12 -14 18 9 14 11 13 35 -12z m618 13 c6 -1 12 -5 12 -9 0
-5 -17 -7 -37 -6 -54 3 -55 3 -48 14 4 6 19 8 33 6 15 -2 33 -5 40 -5z m47
-58 c-3 -32 -7 -59 -9 -60 -8 -8 -36 11 -36 24 0 9 6 13 14 10 10 -4 16 7 21
39 9 64 17 54 10 -13z m-701 38 c7 -11 -35 -39 -51 -34 -22 8 -14 26 8 20 15
-4 19 -2 15 9 -6 15 19 20 28 5z m-75 -25 c15 -16 19 -26 11 -31 -18 -11 19
-46 44 -40 23 5 105 -59 92 -72 -4 -5 -13 0 -20 10 -7 9 -18 17 -25 17 -6 0
-11 6 -11 14 0 7 -9 16 -19 19 -14 3 -18 1 -14 -9 3 -8 0 -14 -6 -14 -7 0 -14
7 -17 15 -4 8 -12 15 -20 15 -8 0 -14 7 -14 15 0 8 -7 15 -15 15 -8 0 -15 -5
-15 -12 0 -6 -2 -9 -5 -7 -2 3 -2 15 2 27 5 19 8 21 22 10 14 -11 14 -11 4 3
-7 9 -11 19 -8 22 3 4 2 5 -2 2 -3 -3 -12 0 -20 7 -7 6 -16 8 -20 4 -3 -3 -1
-6 5 -6 7 0 12 -5 12 -10 0 -7 -7 -7 -21 1 -17 9 -19 13 -8 20 23 15 44 10 68
-15z m694 11 c9 -1 17 -5 17 -10 0 -4 5 -5 10 -2 11 7 12 0 4 -32 -4 -13 -10
-23 -16 -23 -5 0 -4 8 1 19 9 17 5 20 -34 30 -24 6 -47 11 -52 11 -13 -1 26
-21 49 -25 28 -6 34 -13 20 -27 -9 -9 -12 -9 -12 1 0 7 -4 9 -10 6 -5 -3 -10
-2 -10 4 0 5 -9 8 -20 6 -11 -2 -20 1 -20 6 0 6 -4 7 -10 4 -13 -8 -13 1 2 24
8 13 19 18 37 14 14 -2 34 -5 44 -6z m506 -1 c7 -8 8 -17 3 -20 -28 -17 -149
-36 -234 -36 -87 0 -96 2 -92 18 4 14 19 17 93 20 48 1 108 9 132 16 58 19 84
19 98 2z m148 -3 c0 -10 -5 -24 -11 -32 -9 -12 -8 -13 4 -6 12 6 13 5 3 -6
-10 -9 -16 -10 -24 -2 -8 8 -6 18 6 37 20 31 22 31 22 9z m-1249 -17 c-2 -5 7
-13 20 -17 13 -5 21 -13 18 -18 -3 -5 2 -12 11 -15 15 -6 15 -8 3 -17 -13 -8
-12 -12 4 -24 11 -8 17 -18 13 -21 -4 -4 -19 5 -33 19 -23 23 -24 27 -8 27 15
0 13 5 -11 30 -16 17 -33 30 -39 30 -5 0 -6 -3 -3 -7 11 -10 -13 -33 -34 -33
-11 0 -19 5 -19 11 0 6 9 9 20 6 12 -3 17 -1 14 5 -3 5 2 16 12 23 20 15 38
15 32 1z m-175 -10 c4 -10 -6 -23 -27 -35 -18 -12 -69 -58 -113 -104 -137
-143 -202 -312 -159 -419 19 -49 12 -63 -14 -28 -99 131 2 373 230 555 60 47
75 53 83 31z m927 1 c0 -4 6 -5 13 -1 9 6 9 4 -1 -8 -15 -18 -52 -13 -52 8 0
7 9 12 20 11 11 -1 20 -5 20 -10z m-210 -41 c0 -7 -7 -21 -16 -32 -15 -18 -15
-18 -9 9 4 19 2 26 -5 22 -5 -3 -10 -13 -10 -21 0 -8 -6 -14 -12 -14 -8 0 -5
-7 6 -15 11 -8 16 -18 11 -22 -4 -5 -10 -2 -12 5 -3 6 -9 10 -14 6 -16 -9 -10
17 12 52 19 32 49 38 49 10z m679 10 c9 -10 8 -15 -3 -19 -16 -6 -40 16 -29
26 10 11 19 8 32 -7z m-1376 -10 c4 -9 -11 -28 -38 -50 -63 -52 -159 -176
-196 -253 -36 -75 -50 -187 -31 -242 16 -45 -9 -41 -31 4 -39 82 -13 213 64
332 38 57 200 223 219 223 5 0 10 -6 13 -14z m1424 -6 c-1 -11 -5 -20 -9 -20
-4 0 -14 -12 -22 -28 -18 -35 -77 -68 -157 -87 -81 -19 -162 -19 -269 0 -47 8
-86 15 -88 15 -1 0 2 9 8 19 8 17 15 18 42 10 18 -5 88 -9 156 -9 126 0 224
21 263 56 12 11 18 11 29 1 10 -10 12 -9 7 5 -4 11 0 21 11 27 9 6 13 11 9 11
-11 0 2 20 13 20 5 0 8 -9 7 -20z m-669 -3 c6 0 12 -7 12 -14 0 -8 -6 -13 -14
-11 -8 2 -14 -1 -13 -7 1 -5 11 -11 21 -12 11 -2 21 -5 24 -7 7 -7 -10 -76
-19 -76 -12 0 -11 27 1 35 12 7 2 33 -13 32 -42 -1 -48 3 -37 24 6 11 9 25 7
32 -3 7 -8 0 -12 -15 -4 -16 -12 -28 -17 -28 -5 0 -7 6 -4 13 3 6 9 20 12 30
4 12 12 16 23 11 9 -3 22 -7 29 -7z m592 -2 c15 -18 16 -17 -35 -43 -65 -33
-154 -45 -279 -40 -118 5 -138 10 -130 31 3 9 45 12 152 12 137 0 151 2 207
27 74 32 70 31 85 13z m-1252 -43 c25 -20 53 -44 62 -53 9 -8 25 -19 36 -23
12 -4 6 5 -14 24 -18 16 -37 30 -42 30 -13 0 -22 18 -12 24 4 3 28 -13 53 -35
l44 -39 -33 -31 c-34 -32 -47 -34 -36 -5 4 11 13 15 23 11 9 -3 -2 10 -23 30
-22 19 -44 35 -50 35 -6 -1 2 -12 19 -25 23 -19 27 -27 17 -37 -9 -9 -15 -9
-24 1 -11 12 -9 13 7 7 16 -5 14 -1 -7 18 -19 17 -26 30 -21 42 5 14 3 16 -11
11 -10 -4 -15 -3 -11 3 3 5 -3 17 -15 27 -11 10 -20 22 -20 27 0 5 3 6 7 3 3
-4 27 -24 51 -45z m-132 -72 c-117 -122 -193 -282 -183 -380 8 -67 15 -93 29
-102 10 -6 8 -8 -4 -8 -10 0 -18 4 -18 8 0 5 -9 19 -20 31 -47 55 -34 182 32
302 52 93 204 255 225 238 11 -9 -1 -26 -61 -89z m884 79 c0 -12 -6 -16 -20
-12 -11 3 -20 11 -20 19 0 7 9 12 20 11 12 -1 20 -8 20 -18z m595 2 c-5 -29
-31 -74 -51 -92 -68 -59 -214 -89 -346 -69 -99 14 -179 34 -179 43 -1 24 11
26 81 11 53 -11 108 -15 190 -11 118 4 173 18 232 59 16 11 33 16 39 12 8 -4
9 -3 5 4 -4 6 1 23 10 37 20 30 24 31 19 6z m-877 -6 c-2 -5 -7 -9 -12 -7 -4
1 -14 -3 -22 -9 -17 -14 -19 2 -2 19 14 14 41 12 36 -3z m319 7 c13 -8 5 -26
-14 -29 -7 -2 -13 6 -13 17 0 21 7 25 27 12z m-879 -111 c-107 -118 -175 -272
-166 -372 5 -46 4 -50 -16 -47 -18 3 -21 11 -24 63 -7 123 58 255 191 392 41
43 53 50 60 38 6 -11 -6 -31 -45 -74z m582 50 c0 -12 -3 -12 -12 -3 -17 17
-39 15 -32 -3 4 -8 1 -15 -5 -15 -14 0 -14 16 -1 41 9 16 14 17 30 6 11 -6 20
-18 20 -26z m110 24 c0 -8 -5 -15 -11 -15 -5 0 -7 -4 -4 -10 8 -13 -4 -32 -15
-25 -10 6 10 65 22 65 4 0 8 -7 8 -15z m114 -22 c-7 -42 -11 -49 -20 -41 -8 9
7 78 18 78 5 0 6 -16 2 -37z m-69 15 c4 4 5 -6 3 -21 -4 -19 -1 -30 8 -34 16
-6 19 -33 4 -33 -5 0 -10 5 -10 11 0 5 -4 8 -9 4 -16 -9 -24 15 -10 31 10 12
9 16 -9 20 -13 4 -19 11 -15 20 4 10 9 11 18 4 6 -5 15 -6 20 -2z m114 3 c7
-5 10 -14 6 -21 -6 -9 -9 -9 -16 1 -6 10 -9 11 -9 2 0 -21 4 -28 15 -25 6 1 1
-4 -9 -13 -25 -19 -29 -15 -21 29 8 38 11 41 34 27z m-199 -16 c0 -8 -5 -15
-11 -15 -5 0 -7 -4 -4 -10 13 -21 -6 -30 -31 -13 -18 11 -22 19 -14 27 8 8 13
7 20 -4 8 -12 11 -11 16 8 7 25 24 30 24 7z m-563 -41 l22 -35 -35 -45 c-56
-74 -112 -201 -121 -274 -7 -58 -11 -65 -32 -68 -23 -4 -23 -3 -16 54 12 99
67 217 147 317 40 51 29 58 -13 9 -52 -61 -107 -160 -130 -232 -23 -74 -24
-186 -2 -208 7 -7 13 -17 13 -22 0 -17 -26 1 -43 29 -13 22 -14 30 -5 34 8 3
5 6 -6 6 -16 1 -18 9 -15 79 4 68 10 90 46 163 36 72 148 228 163 228 3 0 15
-16 27 -35z m500 -34 c-12 -31 -21 -37 -32 -21 -3 6 1 13 9 18 11 6 12 13 6
23 -8 12 -11 11 -16 -7 -7 -26 -24 -31 -24 -8 0 8 5 15 10 15 6 0 10 9 10 20
0 19 1 20 24 5 21 -14 23 -19 13 -45z m844 27 c-14 -36 -83 -84 -150 -104 -84
-25 -223 -21 -345 11 -54 14 -101 28 -104 30 -2 3 -2 12 1 19 5 13 16 12 74
-6 54 -16 97 -20 208 -20 153 -1 197 9 264 61 20 15 39 26 44 24 4 -1 7 3 7
10 0 6 2 9 5 6 3 -3 1 -17 -4 -31z m-718 -20 c4 3 9 -2 13 -11 3 -9 10 -14 14
-11 5 3 11 1 15 -5 10 -17 24 -2 18 20 -3 11 0 20 6 20 12 0 14 -14 5 -47 -4
-14 -12 -21 -23 -19 -39 9 -61 19 -61 28 0 5 -4 7 -9 3 -6 -3 -14 3 -20 12
-10 19 -10 19 -24 -27 -4 -12 -6 -11 -13 4 -5 13 -3 21 4 24 7 2 10 8 6 13
-13 22 9 28 35 9 16 -10 31 -17 34 -13z m-98 -24 c-4 -21 -10 -39 -15 -41 -4
-2 -6 -12 -3 -22 3 -11 1 -20 -5 -20 -17 0 -25 21 -13 33 6 6 11 19 11 29 0
10 4 18 9 18 5 0 7 9 4 20 -3 12 0 20 7 20 9 0 10 -11 5 -37z m841 -18 c4 -23
-1 -39 -25 -71 -59 -82 -199 -124 -352 -104 -104 13 -299 78 -299 100 0 21 24
20 83 -4 99 -39 217 -59 321 -54 107 6 171 30 229 86 56 54 45 61 -14 8 -66
-59 -132 -80 -254 -79 -134 1 -354 62 -335 92 7 12 24 10 102 -15 83 -25 108
-29 223 -29 125 0 132 1 196 31 37 18 75 43 85 57 22 29 31 24 40 -18z m-1320
11 c3 -7 -14 -43 -36 -79 -47 -74 -89 -186 -90 -234 0 -27 -4 -33 -22 -34 -17
-1 -19 -2 -5 -6 16 -4 20 -15 20 -55 0 -10 2 -18 6 -18 3 0 12 -9 19 -20 7
-12 8 -20 2 -20 -16 0 -51 40 -45 50 4 6 0 10 -7 10 -11 0 -10 2 0 9 11 7 11
9 -2 14 -30 12 -3 158 46 247 37 66 93 150 101 150 4 0 10 -6 13 -14z m214
-21 c0 -17 -17 -28 -30 -20 -6 4 -5 13 2 25 13 20 28 18 28 -5z m169 -26 c3
-23 3 -24 -17 -6 -20 18 -20 18 -32 -18 -11 -34 -13 -36 -28 -21 -15 15 -14
19 13 45 35 33 59 33 64 0z m51 16 c0 -8 -6 -15 -14 -15 -9 0 -12 -9 -8 -27 3
-22 2 -25 -8 -16 -16 15 -3 73 16 73 8 0 14 -7 14 -15z m160 0 c3 0 13 -5 23
-11 16 -9 15 -11 -14 -12 -30 -1 -59 -23 -39 -30 6 -2 7 -8 4 -13 -3 -6 -11
-3 -18 6 -11 15 -13 15 -25 1 -11 -13 -9 -16 13 -22 15 -3 23 -11 19 -17 -4
-6 0 -8 10 -4 10 3 17 2 17 -3 0 -6 -4 -10 -9 -10 -5 0 -17 -3 -27 -7 -12 -4
-15 -3 -10 5 4 7 1 12 -6 12 -8 0 -14 -9 -14 -20 0 -15 5 -19 19 -14 13 4 17
2 13 -5 -4 -6 -20 -10 -35 -9 -23 2 -26 6 -23 30 2 15 7 27 11 26 28 -3 33 3
15 18 -12 10 -15 17 -8 20 7 3 10 14 7 24 -4 14 0 20 11 20 9 0 16 -5 16 -11
0 -5 5 -7 10 -4 6 4 8 11 5 16 -9 14 5 30 18 22 7 -4 14 -8 17 -8z m-450 -21
c0 -3 -11 -26 -24 -52 -13 -26 -32 -70 -41 -98 -14 -44 -49 -84 -62 -71 -2 3
13 47 34 98 29 70 43 93 55 91 13 -2 16 3 12 22 -3 20 -1 24 11 20 8 -4 15 -8
15 -10z m89 -28 c-5 -6 -9 -17 -9 -25 0 -11 4 -10 14 5 8 10 17 16 21 13 10
-11 -24 -39 -40 -32 -11 3 -13 1 -10 -10 6 -13 -42 -63 -51 -54 -6 6 20 67 28
67 4 0 8 7 8 16 0 8 8 26 18 39 15 20 18 21 23 7 4 -10 3 -21 -2 -26z m-46 18
c-23 -88 -90 -199 -100 -167 -6 18 47 123 61 123 10 0 13 7 11 21 -3 12 -2 26
1 31 7 11 30 4 27 -8z m-111 0 c3 -3 -9 -38 -27 -77 -18 -40 -36 -88 -40 -107
-8 -34 -29 -59 -52 -60 -15 0 8 74 54 173 33 70 49 88 65 71z m1234 -58 c-29
-50 -61 -76 -132 -107 -70 -31 -228 -31 -337 -1 -110 31 -228 88 -221 107 8
19 19 19 47 1 12 -8 65 -29 117 -46 228 -76 464 -39 526 82 10 18 19 27 21 20
3 -7 -7 -32 -21 -56z m-942 46 c9 -15 -6 -52 -20 -52 -15 0 -18 18 -8 44 7 17
20 21 28 8z m130 0 c7 -11 -5 -27 -32 -41 -27 -14 -42 -7 -42 20 0 23 18 26
26 4 4 -8 11 -15 16 -15 6 0 8 6 5 14 -8 21 15 37 27 18z m-96 -45 c2 -10 -3
-17 -12 -17 -10 0 -16 9 -16 21 0 24 23 21 28 -4z m-102 -18 c21 -20 21 -22 6
-40 -10 -11 -22 -52 -28 -92 -7 -40 -19 -88 -28 -107 -15 -32 -16 -32 -11 -7
4 20 2 27 -6 22 -8 -5 -9 -1 -3 16 4 13 8 35 9 49 5 77 5 76 16 60 8 -12 9
-10 4 8 -4 13 -2 22 5 22 6 0 8 5 5 10 -4 6 -18 0 -37 -15 -30 -25 -58 -33
-58 -15 0 5 11 17 25 26 13 9 34 31 46 50 24 40 26 40 55 13z m1025 -13 c-19
-48 -90 -114 -149 -138 -47 -18 -76 -22 -162 -22 -136 0 -220 25 -388 113 -34
17 -41 25 -32 36 9 11 26 6 93 -25 258 -121 527 -104 622 39 23 35 30 34 16
-3z m-891 -20 c-5 -13 -6 -27 -3 -30 4 -3 2 -6 -4 -6 -6 0 -9 -13 -7 -30 2
-16 -1 -30 -6 -30 -6 0 -11 3 -11 8 -6 33 -5 52 3 52 5 0 7 3 5 8 -7 11 11 52
22 52 7 0 7 -9 1 -24z m40 -16 c0 -11 -5 -20 -11 -20 -5 0 -7 -4 -4 -10 3 -5
15 -10 26 -10 10 0 19 -4 19 -10 0 -15 -22 -12 -48 6 -17 12 -20 19 -12 33 5
10 6 21 3 25 -3 3 1 6 10 6 10 0 17 -8 17 -20z m126 -11 c12 -20 170 -89 250
-109 99 -26 236 -27 313 -3 40 13 71 32 109 69 28 27 52 49 52 47 0 -15 -35
-64 -67 -95 -134 -130 -381 -114 -646 40 -48 28 -56 36 -46 48 14 17 25 18 35
3z m-481 -72 c-4 -13 -8 -32 -10 -43 -2 -10 -4 -20 -5 -21 -2 -2 -3 -9 -4 -15
-1 -7 -7 -12 -12 -11 -6 1 -11 -5 -11 -12 0 -11 4 -12 13 -4 10 8 13 6 13 -8
0 -31 6 -58 14 -64 5 -3 2 -9 -7 -12 -25 -10 -43 39 -42 113 1 51 4 65 16 65
8 0 18 8 22 18 11 25 19 21 13 -6z m105 16 c0 -15 -15 -31 -24 -26 -6 3 -7 2
-3 -3 5 -5 13 -10 18 -10 5 -1 12 -2 15 -3 3 0 -1 -8 -9 -16 -9 -8 -13 -23
-10 -34 3 -10 -3 -31 -12 -45 -21 -31 -32 -28 -15 4 7 14 8 20 2 16 -7 -4 -9
12 -7 50 4 46 2 54 -8 45 -8 -6 -13 -21 -12 -33 1 -13 -2 -31 -7 -40 -12 -24
-38 -12 -32 15 2 12 6 36 10 52 5 28 8 30 50 30 24 0 44 -1 44 -2z m-196 -45
c-5 -8 0 -7 11 2 17 14 18 13 11 -15 -5 -16 -9 -34 -10 -40 -1 -5 -6 -16 -10
-24 -7 -10 -5 -12 5 -6 8 5 11 5 7 0 -4 -4 -1 -20 8 -36 8 -16 11 -29 7 -29
-5 0 -1 -5 7 -10 12 -7 11 -9 -6 -8 -18 2 -55 28 -38 28 3 0 2 6 -4 13 -18 21
-6 137 14 137 3 0 2 -6 -2 -12z m-45 -40 c-13 -24 -13 -26 2 -44 11 -14 -15
-39 -31 -29 -8 5 -7 12 2 23 8 9 8 13 2 9 -21 -12 -24 23 -4 43 27 27 44 26
29 -2z m177 -47 c-2 -15 -7 -34 -11 -42 -8 -12 -6 -12 8 0 14 11 17 11 17 0 0
-8 8 -2 18 14 21 34 27 34 29 0 0 -14 -2 -21 -6 -14 -5 8 -13 6 -25 -8 -14
-16 -22 -18 -40 -10 -13 6 -23 16 -24 22 0 7 -2 21 -4 32 -2 11 2 20 9 20 6 0
15 3 19 8 12 12 14 8 10 -22z m-356 -5 c-1 -5 2 -12 7 -15 12 -9 34 -61 25
-61 -13 0 -53 49 -57 70 -3 15 0 20 11 18 8 -2 14 -7 14 -12z m-92 -17 c19
-30 6 -37 -18 -9 -23 27 -24 30 -7 30 7 0 18 -9 25 -21z m278 -26 c-2 -10 4
-24 13 -31 13 -10 11 -10 -11 -1 -15 7 -25 16 -22 20 3 5 -1 9 -8 9 -9 0 -9 3
2 10 22 14 29 12 26 -7z"/>
<path d="M883 2476 c-19 -9 -32 -26 -20 -26 8 0 67 32 67 36 0 7 -24 2 -47
-10z"/>
<path d="M1505 2274 c-19 -15 -17 -20 11 -27 4 -1 9 8 10 21 4 26 5 26 -21 6z"/>
<path d="M1275 2197 c-11 -6 -25 -17 -31 -25 -6 -8 -16 -12 -22 -8 -20 12 -13
-8 14 -39 15 -16 23 -25 20 -18 -3 6 0 13 6 16 10 4 11 7 1 18 -15 16 -17 33
-3 24 6 -3 10 -1 10 5 0 6 4 9 9 6 5 -3 12 1 15 10 9 22 5 25 -19 11z"/>
<path d="M1420 2195 c-7 -8 -19 -15 -26 -15 -16 0 -19 -16 -4 -25 6 -3 13 1
16 10 4 10 10 12 18 6 8 -6 11 -2 11 15 0 28 1 28 -15 9z"/>
<path d="M1557 2204 c-11 -11 -8 -26 3 -19 6 3 10 2 10 -4 0 -5 -4 -13 -10
-16 -5 -3 -10 -12 -10 -18 0 -7 9 -1 20 13 21 26 26 45 11 36 -5 -4 -11 -1
-13 5 -2 5 -7 7 -11 3z"/>
<path d="M370 1005 l0 -235 30 0 30 0 0 235 0 235 -30 0 -30 0 0 -235z"/>
<path d="M508 1005 l-3 -235 34 0 33 0 -3 155 c-4 146 1 186 15 131 3 -13 29
-83 57 -155 49 -126 52 -131 80 -131 l29 0 0 235 0 235 -31 0 -31 0 4 -152 c3
-84 10 -164 15 -178 6 -14 7 -34 2 -45 -8 -22 -7 -26 -14 35 0 8 -5 24 -9 35
-5 11 -34 84 -64 163 -53 136 -56 142 -83 142 l-28 0 -3 -235z"/>
<path d="M850 1220 c-17 -17 -20 -33 -20 -103 0 -113 7 -121 107 -127 l78 -5
0 -75 0 -75 -54 -3 c-59 -3 -75 7 -66 45 6 24 2 27 -37 37 -28 6 -28 6 -28
-47 0 -31 6 -61 16 -75 14 -20 23 -22 109 -22 125 0 125 0 125 144 0 74 -4
116 -12 124 -7 7 -41 12 -83 12 -42 0 -76 5 -83 12 -16 16 -16 90 0 106 13 13
75 16 102 6 9 -3 16 -14 16 -24 0 -11 12 -22 30 -29 l30 -10 0 48 c0 70 -16
81 -123 81 -74 0 -90 -3 -107 -20z"/>
<path d="M1160 1005 l0 -235 30 0 30 0 0 235 0 235 -30 0 -30 0 0 -235z"/>
<path d="M1317 1222 c-25 -27 -25 -412 -1 -436 12 -12 37 -16 109 -16 119 0
125 7 125 127 l0 83 -59 0 c-58 0 -59 -1 -63 -30 -4 -28 -3 -30 29 -30 31 0
33 -2 33 -34 0 -45 -18 -58 -77 -54 l-48 3 -3 164 c-3 183 -4 181 64 181 48 0
68 -17 59 -53 -7 -27 -4 -31 38 -41 l27 -6 0 60 c0 88 -15 100 -128 100 -73 0
-92 -3 -105 -18z"/>
<path d="M1630 1005 l0 -235 30 0 30 0 0 113 0 112 61 -1 61 -2 -1 -111 -2
-111 33 0 33 0 -3 235 -3 235 -30 0 -30 0 2 -92 2 -93 -62 -3 -61 -3 0 96 0
95 -30 0 -30 0 0 -235z"/>
<path d="M1950 1205 l0 -34 51 6 50 6 -3 -207 -3 -206 33 0 33 0 -1 203 -1
202 45 -2 c46 -1 46 -1 46 33 l0 34 -125 0 -125 0 0 -35z"/>
<path d="M2346 1228 c-2 -7 -23 -106 -45 -220 -23 -113 -44 -213 -47 -222 -5
-13 1 -16 30 -16 31 0 36 3 36 23 0 56 10 67 56 67 46 0 47 -1 56 -65 2 -15
12 -21 37 -23 25 -3 32 0 29 10 -3 7 -25 113 -49 236 l-43 222 -29 0 c-15 0
-29 -6 -31 -12z m44 -109 c0 -11 -7 -19 -16 -19 -11 0 -14 5 -10 16 3 9 6 20
6 25 0 6 5 7 10 4 6 -3 10 -15 10 -26z m3 -96 c4 -32 10 -68 13 -80 6 -21 3
-23 -31 -23 -29 0 -36 3 -31 15 3 8 11 44 17 80 6 36 14 65 19 65 4 0 10 -26
13 -57z"/>
<path d="M854 496 c6 -24 -32 -156 -45 -156 -5 0 -9 -4 -9 -10 0 -5 14 -10 30
-10 17 0 30 5 30 10 0 6 -4 10 -9 10 -5 0 -7 9 -4 20 7 26 68 29 78 3 3 -10 1
-19 -4 -21 -23 -8 -10 -22 19 -22 29 0 40 13 21 24 -11 7 -45 125 -43 152 1
17 -5 20 -34 20 -30 0 -35 -3 -30 -20z m51 -63 c6 -31 5 -33 -20 -33 -21 0
-26 4 -21 16 3 9 9 27 12 41 8 30 19 20 29 -24z"/>
<path d="M1094 509 c-3 -5 2 -12 10 -15 24 -9 23 -142 -1 -160 -16 -12 -13
-13 25 -14 23 0 42 5 42 10 0 6 -7 10 -15 10 -23 0 -22 145 1 154 9 4 14 10
10 14 -11 10 -65 11 -72 1z"/>
<path d="M1568 509 c-15 -8 -18 -24 -18 -87 0 -89 8 -102 60 -102 40 0 60 14
60 42 0 25 -17 23 -25 -3 -5 -16 -14 -19 -38 -17 l-32 3 0 70 0 70 33 3 c27 3
35 -1 39 -17 7 -26 23 -28 23 -3 0 41 -61 66 -102 41z"/>
<path d="M1810 503 c0 -7 5 -13 10 -13 6 0 10 -32 10 -75 0 -43 -4 -75 -10
-75 -5 0 -10 -4 -10 -10 0 -5 14 -10 30 -10 17 0 30 5 30 10 0 6 -4 10 -10 10
-5 0 -10 14 -10 30 0 23 4 30 20 30 21 0 50 -46 43 -67 -3 -8 5 -13 21 -13 14
0 26 5 26 10 0 6 -4 10 -9 10 -5 0 -14 14 -21 30 -11 26 -10 33 3 48 18 19 16
64 -2 86 -16 19 -121 17 -121 -1z m105 -48 c0 -27 -4 -30 -32 -33 -32 -3 -33
-2 -33 33 0 35 1 36 33 33 28 -3 32 -6 32 -33z"/>
<path d="M2100 504 c0 -8 5 -14 10 -14 6 0 10 -32 10 -75 0 -43 -4 -75 -10
-75 -5 0 -10 -4 -10 -10 0 -5 14 -10 30 -10 29 0 42 14 19 22 -6 2 -9 29 -7
68 l3 65 23 -67 c14 -40 29 -68 37 -68 8 0 21 24 31 58 25 82 34 85 34 13 0
-49 -4 -67 -17 -77 -16 -12 -14 -13 20 -14 20 0 37 5 37 10 0 6 -4 10 -10 10
-6 0 -10 32 -10 75 0 43 4 75 10 75 6 0 10 7 10 15 0 11 -8 15 -27 12 -25 -3
-31 -12 -54 -76 l-25 -73 -25 72 c-21 66 -27 74 -51 76 -19 2 -28 -2 -28 -12z"/>
<path d="M1310 415 c0 -11 12 -15 45 -15 33 0 45 4 45 15 0 11 -12 15 -45 15
-33 0 -45 -4 -45 -15z"/>
</g>
</svg>
