<?xml version="1.0" encoding="UTF-8"?>
<svg version="1.1" xmlns="http://www.w3.org/2000/svg" width="834" height="380">
<path d="M0 0 C275.22 0 550.44 0 834 0 C834 125.4 834 250.8 834 380 C558.78 380 283.56 380 0 380 C0 254.6 0 129.2 0 0 Z " fill="#242424" transform="translate(0,0)"/>
<path d="M0 0 C2.6374359 0.0236596 5.27386118 0.02053616 7.91137695 0.01391602 C9.61385684 0.0194926 11.31633254 0.02660236 13.01879883 0.03540039 C14.18168175 0.03403328 14.18168175 0.03403328 15.36805725 0.03263855 C21.26807428 0.10783925 28.33123879 0.19970526 33.13598633 3.93774414 C33.59102539 4.60547852 34.04606445 5.27321289 34.51489258 5.96118164 C35.0743457 6.76555664 35.63379883 7.56993164 36.21020508 8.39868164 C36.82637695 9.36805664 37.44254883 10.33743164 38.07739258 11.33618164 C38.44445312 11.91239258 38.81151367 12.48860352 39.18969727 13.08227539 C41.31145165 16.42564594 43.40053063 19.78803879 45.47583008 23.16040039 C47.90533482 27.08952102 50.43669859 30.9409406 53.01489258 34.77368164 C56.73335889 40.31614729 60.42760494 45.87317702 64.07739258 51.46118164 C64.54653076 52.17201904 65.01566895 52.88285645 65.49902344 53.61523438 C67.76438803 57.09634324 69.72210955 60.37813917 71.07739258 64.33618164 C64.34318532 62.81797867 58.25721398 59.44601685 52.13989258 56.33618164 C46.87616192 53.6877637 41.58466297 51.42042486 36.07739258 49.33618164 C34.80108947 48.83424173 33.52506958 48.33158137 32.24926758 47.82836914 C25.6439173 45.25181407 19.25979741 42.85877844 12.23364258 41.69946289 C10.13045239 41.34512107 8.13222715 40.84039197 6.07739258 40.27368164 C-9.90836443 36.22947618 -30.17491207 36.4822337 -44.92260742 44.33618164 C-55.71702768 51.00489267 -61.03713963 59.77813684 -64.15307617 71.91040039 C-65.02045629 75.77178293 -65.80561948 79.63502236 -66.43041992 83.54321289 C-66.5928418 84.13489258 -66.75526367 84.72657227 -66.92260742 85.33618164 C-67.91260742 85.83118164 -67.91260742 85.83118164 -68.92260742 86.33618164 C-69.27518706 73.25999725 -69.06077153 61.07947423 -65.92260742 48.33618164 C-65.72924805 47.45317383 -65.53588867 46.57016602 -65.33666992 45.66040039 C-61.46445362 30.2972565 -52.11608228 17.1923841 -38.67260742 8.83618164 C-34.84831057 6.73762881 -31.01178891 4.8696247 -26.92260742 3.33618164 C-26.01103882 2.95333008 -26.01103882 2.95333008 -25.08105469 2.56274414 C-16.90581706 -0.43129189 -8.58270993 -0.08237994 0 0 Z " fill="#676CF6" transform="translate(190.922607421875,104.663818359375)"/>
<path d="M0 0 C4.68713474 1.55940795 8.22044776 4.13221511 12.125 7.0625 C13.11632935 7.80330811 13.11632935 7.80330811 14.12768555 8.55908203 C15.46491753 9.56366521 16.79951068 10.57177132 18.13134766 11.58349609 C19.76925994 12.82509095 21.42068614 14.04881658 23.07421875 15.26953125 C33.98274091 23.65711106 41.67840174 34.32524739 47 47 C47.37640625 47.88171875 47.7528125 48.7634375 48.140625 49.671875 C49.3625433 54.40403133 49.28927327 58.94588694 49.25 63.8125 C49.26160156 65.23272461 49.26160156 65.23272461 49.2734375 66.68164062 C49.25123651 74.74615171 48.39649289 82.0747509 44.5 89.25 C42.78495929 92.45001498 41.32571675 95.6199701 40 99 C39.01517978 101.00751815 38.01847486 103.00934459 37 105 C36.34 105 35.68 105 35 105 C34.61714844 105.82951172 34.61714844 105.82951172 34.2265625 106.67578125 C32.80940954 109.36115072 31.1565138 111.72815923 29.375 114.1875 C28.42753906 115.50814453 28.42753906 115.50814453 27.4609375 116.85546875 C26.64882812 117.89316406 25.83671875 118.93085938 25 120 C24.30247116 121.11124237 24.30247116 121.11124237 23.59085083 122.24493408 C20.67666068 126.32587075 18.49152679 128.66244585 13.49960327 129.79219055 C9.15483778 130.15767144 4.82128247 130.01341615 0.46875 129.87890625 C-1.13403737 129.86209721 -2.73687133 129.84929687 -4.33972168 129.84031677 C-8.53639865 129.80612985 -12.73022313 129.71788948 -16.92578125 129.61798096 C-21.21575332 129.52552115 -25.50619143 129.4847261 -29.796875 129.43945312 C-38.19921846 129.34324448 -46.59925335 129.18986927 -55 129 C-55 128.34 -55 127.68 -55 127 C-54.12859375 126.5153125 -53.2571875 126.030625 -52.359375 125.53125 C-34.64458776 115.59894213 -17.72064138 104.05394567 -3 90 C-1.99453125 89.08927734 -1.99453125 89.08927734 -0.96875 88.16015625 C10.56919668 77.33188487 21.58334048 61.97539771 22.43359375 45.78125 C22.45704859 44.02098911 22.45800989 42.26029767 22.4375 40.5 C22.42505249 39.11699707 22.42505249 39.11699707 22.41235352 37.70605469 C22.13560609 26.60070255 18.54659089 19.12287601 11 11 C8.10353915 8.25187542 5.16906817 5.59294236 2.16015625 2.96875 C1.09087891 1.99421875 1.09087891 1.99421875 0 1 C0 0.67 0 0.34 0 0 Z " fill="#676CF6" transform="translate(212,174)"/>
<path d="M0 0 C0.66 0 1.32 0 2 0 C2.05607422 1.44052734 2.05607422 1.44052734 2.11328125 2.91015625 C2.87718335 19.7160024 4.56619337 36.73560356 9 53 C9.309375 54.17949219 9.61875 55.35898438 9.9375 56.57421875 C11.56627616 62.56124362 13.33028001 68.26927601 16.015625 73.8671875 C17.07533643 76.16322893 17.89920854 78.49427653 18.75 80.875 C21.16086875 86.97810475 24.96611586 91.87673031 29 97 C29.72509766 97.99193359 29.72509766 97.99193359 30.46484375 99.00390625 C36.0244663 106.2072433 44.15590476 111.09316222 53 113 C56.4842444 113.29221779 59.94246277 113.32492017 63.4375 113.3125 C64.79198242 113.33666992 64.79198242 113.33666992 66.17382812 113.36132812 C72.17610661 113.36567445 76.50695343 112.41955623 82 110 C89.66666667 106.88888889 89.66666667 106.88888889 93 108 C92.34515625 108.35191406 91.6903125 108.70382813 91.015625 109.06640625 C89.64664063 109.80697266 89.64664063 109.80697266 88.25 110.5625 C87.23292969 111.11035156 86.21585937 111.65820312 85.16796875 112.22265625 C83.1784098 113.33886997 81.21623184 114.50701066 79.30078125 115.74609375 C62.31772543 126.62397116 40.19298208 130.68122467 20.375 127.0625 C4.94388465 122.90943439 -8.02857822 110.51868988 -16.25 97.125 C-17.17638633 95.42191782 -18.09167054 93.71278082 -19 92 C-19.75605799 90.68888314 -20.51689189 89.3805142 -21.28125 88.07421875 C-22.10466818 86.65393647 -22.92758355 85.23336257 -23.75 83.8125 C-24.13961914 83.14686035 -24.52923828 82.4812207 -24.93066406 81.79541016 C-28.49298415 75.52940444 -31.59620728 68.32618215 -30 61 C-28.6946323 58.68986978 -27.2529756 56.64511243 -25.60546875 54.56640625 C-24.17043475 52.2724468 -23.49716036 50.61179089 -22.72265625 48.06640625 C-20.85665222 42.13411165 -18.01669599 36.73036232 -15.18829346 31.20739746 C-13.6052765 28.11591661 -12.04180982 25.01456745 -10.4765625 21.9140625 C-10.17185028 21.31166748 -9.86713806 20.70927246 -9.55319214 20.08862305 C-6.20972841 13.46433074 -3.05818923 6.76020777 0 0 Z " fill="#666BF7" transform="translate(90,140)"/>
<path d="M0 0 C4.29 0 8.58 0 13 0 C16.89802219 8.51790035 20.24122622 17.21534935 23.4765625 26.00390625 C26.08966689 33.08305888 28.78834755 40.03492217 32.01953125 46.86328125 C33 49 33 49 34 52 C34.33 34.84 34.66 17.68 35 0 C39.29 0 43.58 0 48 0 C48 29.04 48 58.08 48 88 C43.71 88 39.42 88 35 88 C34.55269531 86.83984375 34.10539062 85.6796875 33.64453125 84.484375 C29.15766362 72.87606867 24.64714939 61.30835287 19.30859375 50.05859375 C17.33822846 45.45323249 15.71184595 40.70757636 14 36 C13.67 53.16 13.34 70.32 13 88 C8.71 88 4.42 88 0 88 C0 58.96 0 29.92 0 0 Z " fill="#E5E5E5" transform="translate(389,108)"/>
<path d="M0 0 C1.69154647 -0.01653294 3.38302383 -0.04378815 5.07421875 -0.08203125 C7.51892155 -0.13700599 9.96198756 -0.15870539 12.40722656 -0.17333984 C13.1574408 -0.19600922 13.90765503 -0.21867859 14.68060303 -0.24203491 C18.51763257 -0.22671538 21.22907236 0.25603668 24.28564453 2.52416992 C27.14474846 5.74031453 27.51912088 6.87053736 27.38378906 11.08837891 C27.36445312 12.15507813 27.34511719 13.22177734 27.32519531 14.32080078 C27.27492188 15.42359375 27.22464844 16.52638672 27.17285156 17.66259766 C27.13224609 19.34579102 27.13224609 19.34579102 27.09082031 21.06298828 C27.02024157 23.82732225 26.92169644 26.5877218 26.79785156 29.35009766 C22.08381368 28.87070397 18.13205855 28.38175718 13.79785156 26.35009766 C13.73726562 25.49544922 13.67667969 24.64080078 13.61425781 23.76025391 C13.53046875 22.65552734 13.44667969 21.55080078 13.36035156 20.41259766 C13.27914062 19.31044922 13.19792969 18.20830078 13.11425781 17.07275391 C13.09367073 14.43899863 13.09367073 14.43899863 11.79785156 13.35009766 C10.46741531 13.25172556 9.13191812 13.21931173 7.79785156 13.21728516 C6.99347656 13.21599609 6.18910156 13.21470703 5.36035156 13.21337891 C4.51472656 13.21724609 3.66910156 13.22111328 2.79785156 13.22509766 C1.95222656 13.22123047 1.10660156 13.21736328 0.23535156 13.21337891 C-0.56902344 13.21466797 -1.37339844 13.21595703 -2.20214844 13.21728516 C-3.31589844 13.21897705 -3.31589844 13.21897705 -4.45214844 13.22070312 C-6.23040655 13.1606755 -6.23040655 13.1606755 -7.20214844 14.35009766 C-7.30125404 16.21645553 -7.33014105 18.0865796 -7.33154297 19.95556641 C-7.33469513 21.1535083 -7.33784729 22.3514502 -7.34109497 23.58569336 C-7.33907074 24.88982178 -7.33704651 26.1939502 -7.33496094 27.53759766 C-7.33563404 28.87898781 -7.33660412 30.22037784 -7.33786011 31.56176758 C-7.33933679 34.37631387 -7.33718348 37.19082848 -7.33251953 40.00537109 C-7.32682224 43.62050397 -7.33010141 47.2355626 -7.336092 50.85069275 C-7.33969841 53.62154707 -7.33855866 56.39238368 -7.3359642 59.16323853 C-7.33496877 61.14699349 -7.33801585 63.13074913 -7.34109497 65.11450195 C-7.33794281 66.31244385 -7.33479065 67.51038574 -7.33154297 68.74462891 C-7.33074738 69.80528564 -7.32995178 70.86594238 -7.32913208 71.95874023 C-7.47187123 74.30324708 -7.47187123 74.30324708 -6.20214844 75.35009766 C-4.87171219 75.44846976 -3.53621499 75.48088358 -2.20214844 75.48291016 C-1.39777344 75.48419922 -0.59339844 75.48548828 0.23535156 75.48681641 C1.50378906 75.48101562 1.50378906 75.48101562 2.79785156 75.47509766 C3.64347656 75.47896484 4.48910156 75.48283203 5.36035156 75.48681641 C6.16472656 75.48552734 6.96910156 75.48423828 7.79785156 75.48291016 C8.91160156 75.48121826 8.91160156 75.48121826 10.04785156 75.47949219 C11.82610968 75.53951981 11.82610968 75.53951981 12.79785156 74.35009766 C13.03312929 72.00022504 13.21171573 69.64453727 13.36035156 67.28759766 C13.44414063 65.99724609 13.52792969 64.70689453 13.61425781 63.37744141 C13.70513672 61.87890625 13.70513672 61.87890625 13.79785156 60.35009766 C10.16785156 60.35009766 6.53785156 60.35009766 2.79785156 60.35009766 C3.45785156 56.39009766 4.11785156 52.43009766 4.79785156 48.35009766 C12.05785156 48.35009766 19.31785156 48.35009766 26.79785156 48.35009766 C26.88986643 53.10164316 26.96943986 57.85007881 27.01757812 62.60180664 C27.03765048 64.21682224 27.06491486 65.83176555 27.09960938 67.4465332 C27.14832371 69.77264267 27.1708631 72.09778859 27.18847656 74.42431641 C27.2091217 75.14221848 27.22976685 75.86012054 27.2510376 76.59977722 C27.25265534 80.24263509 26.89832867 82.19495222 24.8984375 85.28295898 C19.95162329 90.15100593 12.10641954 88.65328424 5.54077148 88.70019531 C3.84238982 88.71674589 2.14407755 88.7440245 0.44604492 88.78222656 C-2.00606307 88.83709424 -4.45653991 88.85888279 -6.90917969 88.87353516 C-7.66455521 88.89620453 -8.41993073 88.9188739 -9.19819641 88.94223022 C-13.28676537 88.92590813 -14.97537457 88.53961595 -18.15795898 85.87988281 C-18.8325415 85.04505371 -19.50712402 84.21022461 -20.20214844 83.35009766 C-20.53214844 83.02009766 -20.86214844 82.69009766 -21.20214844 82.35009766 C-21.31833395 80.00393333 -21.37012299 77.68678264 -21.37915039 75.33935547 C-21.38572159 74.60596954 -21.39229279 73.87258362 -21.39906311 73.11697388 C-21.41884506 70.67905587 -21.43047084 68.24119966 -21.44042969 65.80322266 C-21.44450521 64.97190575 -21.44858074 64.14058884 -21.45277977 63.28408051 C-21.4736636 58.8822606 -21.487954 54.48047206 -21.49731445 50.07861328 C-21.50837056 45.53100461 -21.54275426 40.9838864 -21.58248615 36.43645096 C-21.60863649 32.94141735 -21.61700497 29.4465007 -21.62059593 25.95137787 C-21.62546776 24.27524257 -21.63709874 22.5991127 -21.65563393 20.92307281 C-21.6799877 18.57446058 -21.67906758 16.22711788 -21.67211914 13.87841797 C-21.69133423 12.84175491 -21.69133423 12.84175491 -21.7109375 11.78414917 C-21.65996617 7.05021031 -20.53618674 4.678334 -17.20214844 1.35009766 C-12.44907754 -1.02643779 -5.28289267 0.03783721 0 0 Z " fill="#E7E7E7" transform="translate(560.2021484375,107.64990234375)"/>
<path d="M0 0 C0.77775284 -0.00478363 1.55550568 -0.00956726 2.35682678 -0.01449585 C3.99661285 -0.01788794 5.63646718 -0.00873366 7.27612305 0.01220703 C9.77482336 0.0389519 12.26901804 0.01246056 14.76757812 -0.01953125 C16.36589526 -0.01622631 17.96420961 -0.00981833 19.5625 0 C20.30330307 -0.01012115 21.04410614 -0.02024231 21.80735779 -0.03067017 C25.65356951 0.05541791 28.30244161 0.61787442 31.32885742 2.92895508 C33.84765625 5.6640625 33.84765625 5.6640625 34.52880859 7.8840332 C34.4973877 8.61195068 34.4659668 9.33986816 34.43359375 10.08984375 C34.41425781 10.88583984 34.39492188 11.68183594 34.375 12.50195312 C34.32472656 13.31857422 34.27445312 14.13519531 34.22265625 14.9765625 C34.18205078 16.23049805 34.18205078 16.23049805 34.140625 17.50976562 C34.07025188 19.56231497 33.96263947 21.61352841 33.84765625 23.6640625 C32.03433471 23.35636543 30.2220128 23.04277186 28.41015625 22.7265625 C26.89615234 22.46552734 26.89615234 22.46552734 25.3515625 22.19921875 C22.84765625 21.6640625 22.84765625 21.6640625 21.84765625 20.6640625 C21.80684842 18.66447886 21.80511269 16.66360996 21.84765625 14.6640625 C19.10862899 13.75105341 17.47317355 13.53559642 14.65234375 13.53125 C13.85441406 13.52996094 13.05648438 13.52867188 12.234375 13.52734375 C11.40550781 13.53121094 10.57664062 13.53507812 9.72265625 13.5390625 C8.88605469 13.53519531 8.04945313 13.53132813 7.1875 13.52734375 C3.20049869 13.13256297 3.20049869 13.13256297 -0.15234375 14.6640625 C-0.2522135 17.50741298 -0.29112256 20.32103413 -0.27734375 23.1640625 C-0.28121094 23.96199219 -0.28507812 24.75992188 -0.2890625 25.58203125 C-0.66133985 29.4324557 -0.66133985 29.4324557 0.84765625 32.6640625 C2.78815848 32.77360698 4.7322913 32.81995089 6.67578125 32.83984375 C7.86816406 32.86369141 9.06054688 32.88753906 10.2890625 32.91210938 C12.8123322 32.95481086 15.33582054 32.98620552 17.859375 33.00585938 C19.05691406 33.03357422 20.25445312 33.06128906 21.48828125 33.08984375 C23.13618652 33.11171753 23.13618652 33.11171753 24.81738281 33.1340332 C28.50224762 33.77855798 30.18128657 35.09120217 32.84765625 37.6640625 C33.99053112 39.94981225 34.00342167 41.30785414 34.05639648 43.85083008 C34.08533241 45.14776543 34.08533241 45.14776543 34.11485291 46.47090149 C34.17256461 50.42692933 34.22186665 54.38277494 34.25268555 58.33911133 C34.27427884 60.42554258 34.30839731 62.51188293 34.35522461 64.59790039 C34.42214631 67.60604296 34.4496708 70.61231231 34.46875 73.62109375 C34.49658066 74.5514595 34.52441132 75.48182526 34.55308533 76.44038391 C34.53827038 81.10768483 34.36263168 83.03363403 31.32666016 86.75024414 C27.28161826 88.97544298 24.06954513 89.3897021 19.5625 89.328125 C18.78379044 89.33290863 18.00508087 89.33769226 17.20277405 89.34262085 C15.56476814 89.34600785 13.92669352 89.33688948 12.28881836 89.31591797 C9.78801444 89.28909316 7.29168256 89.31571925 4.79101562 89.34765625 C3.19400056 89.34435264 1.59698827 89.3379474 0 89.328125 C-0.7428273 89.33824615 -1.4856546 89.34836731 -2.25099182 89.35879517 C-6.09572536 89.27235322 -8.00948855 88.76939508 -11.13134766 86.4675293 C-13.40080286 83.31940727 -13.74741868 81.96774482 -13.640625 78.14453125 C-13.62451172 77.12294922 -13.60839844 76.10136719 -13.59179688 75.04882812 C-13.54990234 73.99373047 -13.50800781 72.93863281 -13.46484375 71.8515625 C-13.44228516 70.77712891 -13.41972656 69.70269531 -13.39648438 68.59570312 C-13.33769973 65.950394 -13.25558332 63.30794837 -13.15234375 60.6640625 C-11.52691295 60.80501314 -9.90200324 60.95198337 -8.27734375 61.1015625 C-7.37242187 61.18277344 -6.4675 61.26398438 -5.53515625 61.34765625 C-3.15234375 61.6640625 -3.15234375 61.6640625 -1.15234375 62.6640625 C-0.7734375 65.3515625 -0.7734375 65.3515625 -0.58984375 68.6640625 C-0.69803356 72.48140862 -0.69803356 72.48140862 0.84765625 75.6640625 C3.83783786 75.79074014 6.79459733 75.84927088 9.78515625 75.8515625 C10.62240234 75.86380859 11.45964844 75.87605469 12.32226562 75.88867188 C13.12341797 75.89060547 13.92457031 75.89253906 14.75 75.89453125 C15.48726318 75.89864014 16.22452637 75.90274902 16.98413086 75.90698242 C19.09362931 75.82460472 19.09362931 75.82460472 20.84765625 73.6640625 C21.15899211 71.07661811 21.15899211 71.07661811 21.11328125 68.0703125 C21.11585938 66.95785156 21.1184375 65.84539062 21.12109375 64.69921875 C21.10949219 62.94931641 21.10949219 62.94931641 21.09765625 61.1640625 C21.10539062 59.99746094 21.113125 58.83085937 21.12109375 57.62890625 C21.11851562 56.51644531 21.1159375 55.40398437 21.11328125 54.2578125 C21.11102539 53.23365234 21.10876953 52.20949219 21.10644531 51.15429688 C21.09398697 48.49024047 21.09398697 48.49024047 18.84765625 46.6640625 C16.11330119 46.37445384 16.11330119 46.37445384 12.921875 46.42578125 C11.73271484 46.40966797 10.54355469 46.39355469 9.31835938 46.37695312 C6.80799384 46.36010503 4.29752292 46.35478718 1.78710938 46.36132812 C0.59408203 46.34134766 -0.59894531 46.32136719 -1.828125 46.30078125 C-2.92036377 46.29780029 -4.01260254 46.29481934 -5.13793945 46.29174805 C-9.26307186 45.43277701 -10.68945938 44.0587582 -13.15234375 40.6640625 C-13.65245525 37.80304729 -13.85627919 35.547914 -13.81640625 32.6953125 C-13.82118988 31.93738403 -13.82597351 31.17945557 -13.8309021 30.39855957 C-13.83429321 28.80165523 -13.82514575 27.20468072 -13.80419922 25.60791016 C-13.77741579 23.17061848 -13.80396682 20.73793058 -13.8359375 18.30078125 C-13.83263325 16.74478155 -13.8262267 15.18878471 -13.81640625 13.6328125 C-13.8265274 12.90872192 -13.83664856 12.18463135 -13.84707642 11.43859863 C-13.76214643 7.75160609 -13.22149373 5.76467601 -11.12036133 2.70751953 C-7.38649717 0.13678308 -4.3847184 -0.05974257 0 0 Z " fill="#EBEBEB" transform="translate(465.15234375,107.3359375)"/>
<path d="M0 0 C3.96 0 7.92 0 12 0 C12 10.89 12 21.78 12 33 C19.59 33 27.18 33 35 33 C35 22.11 35 11.22 35 0 C38.96 0 42.92 0 47 0 C47 29.04 47 58.08 47 88 C43.04 88 39.08 88 35 88 C35 73.81 35 59.62 35 45 C27.41 45 19.82 45 12 45 C12 59.19 12 73.38 12 88 C8.04 88 4.08 88 0 88 C0 58.96 0 29.92 0 0 Z " fill="#EBEBEB" transform="translate(602,108)"/>
<path d="M0 0 C4.29 0 8.58 0 13 0 C14.37491501 6.62928866 15.74383909 13.25977874 17.10766602 19.89135742 C17.57061384 22.13842632 18.0350845 24.38518213 18.5012207 26.6315918 C20.9331973 38.35691275 23.31794715 50.06189356 25.04914856 61.91438293 C25.71297169 66.43181307 26.59635229 70.81507615 27.6875 75.25 C28.77015061 79.66518451 29.31615633 83.46842593 29 88 C25.04 88 21.08 88 17 88 C14 76.5 14 76.5 14 72 C8.72 72 3.44 72 -2 72 C-2.33 73.98 -2.66 75.96 -3 78 C-3.64412155 81.33814819 -4.32458647 84.66795993 -5 88 C-8.96 88 -12.92 88 -17 88 C-17.20955906 82.30514911 -16.43054728 77.17135316 -15.28515625 71.6015625 C-15.10995956 70.72599701 -14.93476288 69.85043152 -14.7542572 68.94833374 C-14.38503802 67.11057811 -14.01255197 65.27347609 -13.63696289 63.43701172 C-13.06036269 60.61453781 -12.49523915 57.78993953 -11.93164062 54.96484375 C-11.57098273 53.176948 -11.20967774 51.38918264 -10.84765625 49.6015625 C-10.6778273 48.75373199 -10.50799835 47.90590149 -10.33302307 47.03237915 C-9.11581155 41.11581155 -9.11581155 41.11581155 -8 40 C-7.42438622 37.30760071 -6.89964614 34.62180541 -6.40625 31.9140625 C-6.25466431 31.10133881 -6.10307861 30.28861511 -5.94689941 29.45126343 C-5.46090357 26.84317958 -4.98010716 24.23417378 -4.5 21.625 C-4.01928497 19.02308787 -3.53743788 16.42140028 -3.05310059 13.82015991 C-2.75144231 12.19901722 -2.45197429 10.57746514 -2.15490723 8.95547485 C-1.58578497 5.8890083 -0.98767978 2.96303934 0 0 Z " fill="#E7E7E7" transform="translate(738,108)"/>
<path d="M0 0 C0.66 1.32 1.32 2.64 2 4 C1.34 4.66 0.68 5.32 0 6 C-1.9432009 21.3027071 6.82289122 38.3112219 13 52 C13.30518555 52.68916504 13.61037109 53.37833008 13.92480469 54.08837891 C16.02789453 58.5972601 18.33533742 61.55589581 22 65 C24.30836997 68.0079958 26.51098864 71.07784153 28.71875 74.16015625 C33.64675256 80.29484437 39.80090212 83.70637347 47.08984375 86.30859375 C48.60291442 86.85626964 50.08910051 87.47814169 51.5625 88.125 C62.20030762 91.94370017 72.08780452 89.70686221 82.5234375 86.875 C86 86 86 86 89 86 C89 85.34 89 84.68 89 84 C83.39 84 77.78 84 72 84 C72 83.67 72 83.34 72 83 C73.134375 82.96261719 74.26875 82.92523438 75.4375 82.88671875 C86.53976027 82.46261038 86.53976027 82.46261038 97 79 C104.52504039 75.84168013 104.52504039 75.84168013 108 77 C107.34515625 77.35191406 106.6903125 77.70382813 106.015625 78.06640625 C104.64664063 78.80697266 104.64664063 78.80697266 103.25 79.5625 C102.23292969 80.11035156 101.21585937 80.65820312 100.16796875 81.22265625 C98.1784098 82.33886997 96.21623184 83.50701066 94.30078125 84.74609375 C77.31772543 95.62397116 55.19298208 99.68122467 35.375 96.0625 C19.94388465 91.90943439 6.97142178 79.51868988 -1.25 66.125 C-2.17638633 64.42191782 -3.09167054 62.71278082 -4 61 C-4.75605799 59.68888314 -5.51689189 58.3805142 -6.28125 57.07421875 C-7.10466818 55.65393647 -7.92758355 54.23336257 -8.75 52.8125 C-9.13961914 52.14686035 -9.52923828 51.4812207 -9.93066406 50.79541016 C-13.49298415 44.52940444 -16.59620728 37.32618215 -15 30 C-13.65572325 27.62101182 -12.12536773 25.47762935 -10.51171875 23.2734375 C-8.63070783 20.44463038 -7.80176142 17.71897541 -6.85546875 14.484375 C-5.11371522 9.42613186 -2.47418657 4.73218209 0 0 Z " fill="#423CDE" transform="translate(75,171)"/>
<path d="M0 0 C2.6374359 0.0236596 5.27386118 0.02053616 7.91137695 0.01391602 C9.61385684 0.0194926 11.31633254 0.02660236 13.01879883 0.03540039 C14.18168175 0.03403328 14.18168175 0.03403328 15.36805725 0.03263855 C21.26807428 0.10783925 28.33123879 0.19970526 33.13598633 3.93774414 C33.59102539 4.60547852 34.04606445 5.27321289 34.51489258 5.96118164 C35.33666992 7.14260742 35.33666992 7.14260742 36.17504883 8.34790039 C37.11670898 9.82709961 37.11670898 9.82709961 38.07739258 11.33618164 C38.49230957 11.98151855 38.90722656 12.62685547 39.3347168 13.29174805 C47.14177113 25.46493875 47.14177113 25.46493875 49.07739258 29.33618164 C44.20842955 28.73998209 39.74948306 27.76641342 35.07739258 26.33618164 C35.07739258 25.67618164 35.07739258 25.01618164 35.07739258 24.33618164 C34.53211914 24.21500977 33.9868457 24.09383789 33.42504883 23.96899414 C32.67094727 23.80141602 31.9168457 23.63383789 31.13989258 23.46118164 C30.31618164 23.27942383 29.4924707 23.09766602 28.64379883 22.91040039 C27.02433015 22.54805352 25.40679566 22.17684323 23.79223633 21.79321289 C23.06133789 21.62176758 22.33043945 21.45032227 21.57739258 21.27368164 C20.92770508 21.11770508 20.27801758 20.96172852 19.60864258 20.80102539 C11.05032083 19.22935828 2.56708938 19.15321755 -6.11010742 19.14868164 C-7.35469727 19.13643555 -8.59928711 19.12418945 -9.8815918 19.11157227 C-11.68660156 19.10867187 -11.68660156 19.10867187 -13.52807617 19.10571289 C-14.61241943 19.101604 -15.6967627 19.09749512 -16.81396484 19.09326172 C-20.14546559 19.35359654 -22.80539888 20.15931274 -25.92260742 21.33618164 C-30.2793213 22.88523546 -34.52091553 23.89166863 -39.06713867 24.67602539 C-39.67944336 24.89387695 -40.29174805 25.11172852 -40.92260742 25.33618164 C-41.25260742 26.32618164 -41.58260742 27.31618164 -41.92260742 28.33618164 C-43.58709565 29.00826881 -45.25413354 29.67405089 -46.92260742 30.33618164 C-49.32906977 32.30742227 -49.32906977 32.30742227 -51.54760742 34.64868164 C-52.30299805 35.40793945 -53.05838867 36.16719727 -53.83666992 36.94946289 C-58.34577031 42.10875191 -60.37279436 47.83086924 -62.61010742 54.21118164 C-62.93043945 55.08387695 -63.25077148 55.95657227 -63.58081055 56.85571289 C-65.56548614 62.4838974 -66.92655859 67.48414204 -65.37182617 73.44946289 C-64.76271196 76.00774259 -65.20890148 77.96079372 -65.73510742 80.52368164 C-65.99227539 81.84432617 -65.99227539 81.84432617 -66.25463867 83.19165039 C-66.47506836 83.8993457 -66.69549805 84.60704102 -66.92260742 85.33618164 C-67.91260742 85.83118164 -67.91260742 85.83118164 -68.92260742 86.33618164 C-69.27518706 73.25999725 -69.06077153 61.07947423 -65.92260742 48.33618164 C-65.72924805 47.45317383 -65.53588867 46.57016602 -65.33666992 45.66040039 C-61.46445362 30.2972565 -52.11608228 17.1923841 -38.67260742 8.83618164 C-34.84831057 6.73762881 -31.01178891 4.8696247 -26.92260742 3.33618164 C-26.01103882 2.95333008 -26.01103882 2.95333008 -25.08105469 2.56274414 C-16.90581706 -0.43129189 -8.58270993 -0.08237994 0 0 Z " fill="#423CDE" transform="translate(190.922607421875,104.663818359375)"/>
<path d="M0 0 C14.79102275 10.73922663 27.30182695 23.68143535 32 42 C32.28227971 45.60809481 32.27919246 49.19506816 32.25 52.8125 C32.26160156 54.23272461 32.26160156 54.23272461 32.2734375 55.68164062 C32.25123651 63.74615171 31.39649289 71.0747509 27.5 78.25 C25.78495929 81.45001498 24.32571675 84.6199701 23 88 C22.01517978 90.00751815 21.01847486 92.00934459 20 94 C19.34 94 18.68 94 18 94 C17.61714844 94.82951172 17.61714844 94.82951172 17.2265625 95.67578125 C15.80940954 98.36115072 14.1565138 100.72815923 12.375 103.1875 C11.74335938 104.06792969 11.11171875 104.94835937 10.4609375 105.85546875 C9.64882812 106.89316406 8.83671875 107.93085938 8 109 C7.50661133 109.77545166 7.01322266 110.55090332 6.50488281 111.34985352 C3.5598314 115.45408428 1.51429569 117.69282859 -3.54931641 118.7199707 C-7.71116227 118.99474506 -11.84065844 118.78759711 -16 118.5625 C-17.456907 118.51728564 -18.91394943 118.47623319 -20.37109375 118.43945312 C-23.9169077 118.34096688 -27.45757717 118.18609172 -31 118 C-28.93556791 115.86152709 -27.23920765 114.1321937 -24.625 112.6875 C-21.63939964 110.76818548 -19.89852974 108.62271093 -17.67578125 105.89453125 C-15.8776313 103.86165776 -13.95535987 102.17820928 -11.875 100.4375 C-8.53384222 97.6098788 -6.37780291 94.68969417 -4 91 C-2.35704805 89.63755204 -0.69175663 88.30135125 1 87 C3.93190881 83.72979402 5.31661862 80.0254772 7 76 C7.99 74.515 7.99 74.515 9 73 C9.99 73 10.98 73 12 73 C12.11214844 72.32710938 12.22429687 71.65421875 12.33984375 70.9609375 C12.97972861 68.09092137 13.8848205 65.40268433 14.86743164 62.63476562 C20.2952266 46.94048812 18.23179819 32.80516872 12.71875 17.42578125 C10.74144963 13.4846621 8.38646996 10.79320126 5.3125 7.6875 C0 2.24101513 0 2.24101513 0 0 Z " fill="#423DDF" transform="translate(229,185)"/>
<path d="M0 0 C15.51 0 31.02 0 47 0 C47 3.96 47 7.92 47 12 C41.39 12 35.78 12 30 12 C30 37.08 30 62.16 30 88 C25.71 88 21.42 88 17 88 C17 62.92 17 37.84 17 12 C11.39 12 5.78 12 0 12 C0 8.04 0 4.08 0 0 Z " fill="#E6E6E6" transform="translate(664,108)"/>
<path d="M0 0 C4.29 0 8.58 0 13 0 C13 29.04 13 58.08 13 88 C8.71 88 4.42 88 0 88 C0 58.96 0 29.92 0 0 Z " fill="#E2E2E2" transform="translate(513,108)"/>
<path d="M0 0 C4.29 0 8.58 0 13 0 C13 29.04 13 58.08 13 88 C8.71 88 4.42 88 0 88 C0 58.96 0 29.92 0 0 Z " fill="#E2E2E2" transform="translate(363,108)"/>
<path d="M0 0 C5.90994096 0.95500217 10.38061956 5.46287441 15 9 C15.63421875 9.4640625 16.2684375 9.928125 16.921875 10.40625 C30.08928231 20.68936809 39.70600666 38.45067153 42.59765625 54.7421875 C44.20365015 68.95648543 45.65472226 86.84635165 39 100 C35.53076119 102.31282587 34.07794425 102.42478586 30 102 C28.30078125 100.81640625 28.30078125 100.81640625 27 99 C26.85546875 96.4765625 26.85546875 96.4765625 27.1875 93.625 C27.28417969 92.68914062 27.38085938 91.75328125 27.48046875 90.7890625 C28 88 28 88 28.98828125 85.6484375 C33.97254368 72.60083162 32.77761189 51.83645156 28 39 C27.58621094 37.7934375 27.17242187 36.586875 26.74609375 35.34375 C22.44237219 23.33346953 16.07977531 13.96426691 6 6 C3.98251717 4.35167361 1.98522328 2.68743979 0 1 C0 0.67 0 0.34 0 0 Z " fill="#6982D3" transform="translate(254,191)"/>
<path d="M0 0 C2 2 2 2 2.375 4.875 C1.90428822 8.79759819 1.04375187 9.55123032 -2 12 C-5.34765625 13.265625 -5.34765625 13.265625 -9.0625 14.25 C-10.29097656 14.58515625 -11.51945312 14.9203125 -12.78515625 15.265625 C-16 16 -16 16 -19 16 C-19 16.66 -19 17.32 -19 18 C-19.59425781 18.1959375 -20.18851563 18.391875 -20.80078125 18.59375 C-37.60190973 24.65574348 -50.87001066 38.70117877 -58.4375 54.6875 C-59.32242603 56.77891674 -60.17967288 58.8824114 -61 61 C-61.31582031 61.80566406 -61.63164063 62.61132812 -61.95703125 63.44140625 C-64.66713141 71.33140229 -65.18598931 79.74497394 -66 88 C-66.33 88 -66.66 88 -67 88 C-70.04484869 74.7488185 -68.17671064 60.02528353 -62 48 C-61.505 46.91847656 -61.01 45.83695313 -60.5 44.72265625 C-56.63604533 36.48491956 -52.16791835 29.77282803 -46 23 C-45.39800781 22.30519531 -44.79601562 21.61039063 -44.17578125 20.89453125 C-33.93119799 9.76104706 -15.6292785 -3.18374192 0 0 Z " fill="#6A82D7" transform="translate(181,62)"/>
<path d="M0 0 C2.99267082 -0.36118441 5.09455411 -0.59381376 8 0 C9.73708402 1.50427894 10.94250833 3.15330605 12.3125 4.99609375 C15.5309513 8.81800467 19.8436131 11.29607904 24 14 C24.67160156 14.46535156 25.34320313 14.93070312 26.03515625 15.41015625 C31.34429816 18.97502155 36.95689837 20.99137991 43 23 C44.21623047 23.43505859 44.21623047 23.43505859 45.45703125 23.87890625 C64.2844179 30.51820614 83.34510042 27.01198099 101 19 C101.93070312 18.42121094 102.86140625 17.84242188 103.8203125 17.24609375 C104.53960937 16.83488281 105.25890625 16.42367188 106 16 C106.66 16.33 107.32 16.66 108 17 C90.35267163 31.94518546 68.43089049 35.20031521 46 34 C37.87820914 33.18065162 30.84084102 31.46748801 24 27 C22.73869887 26.53573384 21.4667941 26.09960462 20.1875 25.6875 C11.98019252 22.73477429 2.95554019 16.22093 -2 9 C-2.05971899 5.29742245 -1.63193897 3.26387794 0 0 Z " fill="#6A82D7" transform="translate(44,259)"/>
<path d="M0 0 C3.63 0 7.26 0 11 0 C11.36351562 1.10794922 11.36351562 1.10794922 11.734375 2.23828125 C13.78713316 8.45182228 15.93143591 14.60887636 18.265625 20.72265625 C19 23 19 23 19 26 C19.66 26 20.32 26 21 26 C21.309375 24.2984375 21.309375 24.2984375 21.625 22.5625 C23.31648767 14.82643138 26.28945991 7.42415226 29 0 C32.63 0 36.26 0 40 0 C40 1.32 40 2.64 40 4 C39.01 4 38.02 4 37 4 C37 13.9 37 23.8 37 34 C37.99 34 38.98 34 40 34 C40 35.32 40 36.64 40 38 C36.04 38 32.08 38 28 38 C28 36.68 28 35.36 28 34 C29.32 34 30.64 34 32 34 C31.505 21.625 31.505 21.625 31 9 C28.36 16.92 25.72 24.84 23 33 C20.525 33.495 20.525 33.495 18 34 C14.73578095 26.08563649 11.84865362 18.07118524 9 10 C8.67 17.92 8.34 25.84 8 34 C9.32 34 10.64 34 12 34 C12 35.32 12 36.64 12 38 C8.04 38 4.08 38 0 38 C0 36.68 0 35.36 0 34 C0.99 34 1.98 34 3 34 C3 24.1 3 14.2 3 4 C2.01 4 1.02 4 0 4 C0 2.68 0 1.36 0 0 Z " fill="#676767" transform="translate(652,244)"/>
<path d="M0 0 C3.39537852 -0.14575327 6.78994902 -0.23421542 10.1875 -0.3125 C11.14720703 -0.35439453 12.10691406 -0.39628906 13.09570312 -0.43945312 C17.74029359 -0.51980936 20.2222934 -0.53007862 24.140625 2.140625 C26.27589438 5.42427455 26.64605112 7.17491549 26.5625 11.0625 C26.56378906 12.08472656 26.56507813 13.10695313 26.56640625 14.16015625 C25.876986 17.61676677 24.53877314 18.65846222 22 21 C22.09874151 25.5421093 23.66560026 29.13926197 26 33 C27.485 33.495 27.485 33.495 29 34 C29 35.32 29 36.64 29 38 C25.7 38 22.4 38 19 38 C19.2475 37.360625 19.495 36.72125 19.75 36.0625 C20.0805905 32.01276632 18.68578799 29.56964017 16.91015625 25.98828125 C16 24 16 24 16 22 C13.36 22 10.72 22 8 22 C8 25.96 8 29.92 8 34 C8.99 34 9.98 34 11 34 C11 35.32 11 36.64 11 38 C7.37 38 3.74 38 0 38 C0 36.68 0 35.36 0 34 C0.99 34 1.98 34 3 34 C3 24.1 3 14.2 3 4 C2.01 4 1.02 4 0 4 C0 2.68 0 1.36 0 0 Z " fill="#686868" transform="translate(597,244)"/>
<path d="M0 0 C4.62 0 9.24 0 14 0 C14 1.32 14 2.64 14 4 C13.34 4 12.68 4 12 4 C12.40992188 5.24394531 12.81984375 6.48789063 13.2421875 7.76953125 C16.06075853 16.43502681 18.81757275 24.92792883 20 34 C20.99 34 21.98 34 23 34 C23 35.32 23 36.64 23 38 C19.37 38 15.74 38 12 38 C12 36.68 12 35.36 12 34 C13.32 34 14.64 34 16 34 C15.67 33.236875 15.34 32.47375 15 31.6875 C14 29 14 29 14 26 C9.38 26 4.76 26 0 26 C-0.33 28.31 -0.66 30.62 -1 33 C-0.01 33.33 0.98 33.66 2 34 C2 35.32 2 36.64 2 38 C-1.63 38 -5.26 38 -9 38 C-9 36.68 -9 35.36 -9 34 C-8.01 34 -7.02 34 -6 34 C-5.90847656 33.09121094 -5.81695312 32.18242187 -5.72265625 31.24609375 C-4.92882137 25.68924956 -3.11202536 20.4044017 -1.4375 15.0625 C-0.9434668 13.46438477 -0.9434668 13.46438477 -0.43945312 11.83398438 C0.369 9.22115762 1.18226535 6.60993378 2 4 C1.34 4 0.68 4 0 4 C0 2.68 0 1.36 0 0 Z " fill="#696969" transform="translate(415,244)"/>
<path d="M0 0 C1.96453125 0.03287109 1.96453125 0.03287109 3.96875 0.06640625 C5.2784375 0.06511719 6.588125 0.06382812 7.9375 0.0625 C11.46875 0.62890625 11.46875 0.62890625 13.921875 2.3984375 C16.37884376 5.94118791 15.74999282 8.41026401 15.46875 12.62890625 C14.14875 12.62890625 12.82875 12.62890625 11.46875 12.62890625 C11.159375 11.65953125 10.85 10.69015625 10.53125 9.69140625 C9.77351658 6.78824833 9.77351658 6.78824833 8.46875 5.62890625 C6.97136876 5.53100055 5.46932108 5.49915761 3.96875 5.50390625 C3.1540625 5.50132812 2.339375 5.49875 1.5 5.49609375 C-0.52655377 5.40438845 -0.52655377 5.40438845 -1.53125 6.62890625 C-1.63096786 8.54348907 -1.66205589 10.46172942 -1.6640625 12.37890625 C-1.66535156 13.54421875 -1.66664063 14.70953125 -1.66796875 15.91015625 C-1.66410156 17.13734375 -1.66023437 18.36453125 -1.65625 19.62890625 C-1.66011719 20.85609375 -1.66398438 22.08328125 -1.66796875 23.34765625 C-1.66667969 24.51296875 -1.66539062 25.67828125 -1.6640625 26.87890625 C-1.66293457 27.9565625 -1.66180664 29.03421875 -1.66064453 30.14453125 C-1.81217371 32.57110622 -1.81217371 32.57110622 -0.53125 33.62890625 C1.53647734 33.82832493 1.53647734 33.82832493 3.90625 33.81640625 C4.70933594 33.83058594 5.51242187 33.84476562 6.33984375 33.859375 C8.68505633 33.83052981 8.68505633 33.83052981 10.46875 31.62890625 C11.11642793 29.05829314 11.11642793 29.05829314 11.46875 26.62890625 C12.78875 26.62890625 14.10875 26.62890625 15.46875 26.62890625 C15.77379777 30.51826529 15.88665806 32.91588286 13.88671875 36.328125 C10.69113194 39.36883684 8.88737252 39.30039635 4.53125 39.25390625 C2.72333984 39.27324219 2.72333984 39.27324219 0.87890625 39.29296875 C-2.53125 38.62890625 -2.53125 38.62890625 -5.4375 36.96484375 C-8.85513137 31.51958781 -8.21169481 25.9150459 -8.09375 19.62890625 C-8.10470703 18.35789062 -8.11566406 17.086875 -8.12695312 15.77734375 C-8.05333672 6.45259937 -8.05333672 6.45259937 -5.71655273 2.76586914 C-3.53125 0.62890625 -3.53125 0.62890625 0 0 Z " fill="#696969" transform="translate(554.53125,243.37109375)"/>
<path d="M0 0 C1.65 0 3.3 0 5 0 C5 1.65 5 3.3 5 5 C4.41299316 5.10183594 3.82598633 5.20367187 3.22119141 5.30859375 C0.61247553 6.12062753 -0.58193116 7.17159347 -2.5390625 9.0625 C-3.52483276 10.00488525 -3.52483276 10.00488525 -4.53051758 10.96630859 C-5.56728638 11.97298584 -5.56728638 11.97298584 -6.625 13 C-7.34647217 13.67756348 -8.06794434 14.35512695 -8.8112793 15.05322266 C-11.8748152 17.93570176 -14.82473138 20.80081917 -17.60546875 23.9609375 C-22.95344109 29.81057804 -22.95344109 29.81057804 -26.99414062 30.18457031 C-29.35301536 30.16297643 -31.70526101 30.08990661 -34.0625 30 C-40.31877741 29.78126642 -44.08943374 30.58117499 -48.9375 34.7109375 C-54.12125255 39.70639479 -59.002029 45.0030435 -63 51 C-65.80266896 49.76682566 -67.50348138 48.54127252 -69.8125 46.4375 C-75.18245556 42.41594738 -82.5563834 43.09122237 -89 43 C-89 42.34 -89 41.68 -89 41 C-71.98249622 40.13859655 -71.98249622 40.13859655 -67.4375 43.5 C-66.633125 44.325 -65.82875 45.15 -65 46 C-61.95106884 44.87076624 -60.35458426 43.3656342 -58.375 40.875 C-57.59125 39.92625 -56.8075 38.9775 -56 38 C-55.34 38 -54.68 38 -54 38 C-53.72027344 37.41605469 -53.44054687 36.83210938 -53.15234375 36.23046875 C-51.02272612 32.10839531 -49.19057107 29.24020442 -45 27 C-41.89740315 26.59105531 -38.81332311 26.61777753 -35.6875 26.625 C-27.52417336 26.59364722 -27.52417336 26.59364722 -20.75 22.3125 C-19.15449425 20.55262599 -17.57292791 18.78008228 -16 17 C-13.35435814 14.49570161 -10.64062004 12.06698725 -7.9375 9.625 C-6.6277827 8.4366288 -5.3239458 7.2417298 -4.02734375 6.0390625 C-3.46781006 5.52553223 -2.90827637 5.01200195 -2.33178711 4.48291016 C-0.75288722 2.92302342 -0.75288722 2.92302342 0 0 Z " fill="#251F88" transform="translate(202,181)"/>
<path d="M0 0 C4.62 0 9.24 0 14 0 C14 1.32 14 2.64 14 4 C12.35 4 10.7 4 9 4 C9 13.9 9 23.8 9 34 C10.65 34 12.3 34 14 34 C14 35.32 14 36.64 14 38 C9.38 38 4.76 38 0 38 C0 36.68 0 35.36 0 34 C1.65 34 3.3 34 5 34 C5 24.1 5 14.2 5 4 C3.35 4 1.7 4 0 4 C0 2.68 0 1.36 0 0 Z " fill="#6A6A6A" transform="translate(461,244)"/>
<path d="M0 0 C1.91031003 2.86546504 2.33949027 3.98670974 2.81640625 7.23828125 C2.94080078 8.05876953 3.06519531 8.87925781 3.19335938 9.72460938 C3.31517578 10.57861328 3.43699219 11.43261719 3.5625 12.3125 C3.81368904 13.99611062 4.06498865 15.67970475 4.31640625 17.36328125 C4.43258301 18.15814941 4.54875977 18.95301758 4.66845703 19.77197266 C5.07748315 22.52070049 5.53083094 25.26094636 6 28 C2.37 28 -1.26 28 -5 28 C-5.35398371 21.86428233 -4.32736772 16.77433333 -2.73046875 10.8515625 C-2.12495703 8.48780015 -1.67823864 6.22846687 -1.375 3.8125 C-1 1 -1 1 0 0 Z " fill="#313131" transform="translate(744,140)"/>
<path d="M0 0 C8.3984375 -0.1953125 8.3984375 -0.1953125 11 0 C13 2 13 2 13.265625 4.05859375 C13.26046875 4.84363281 13.2553125 5.62867188 13.25 6.4375 C13.25515625 7.21996094 13.2603125 8.00242187 13.265625 8.80859375 C13 11 13 11 11 14 C7.30406029 14.41620943 3.72880913 14.13007474 0 14 C0 9.38 0 4.76 0 0 Z " fill="#272727" transform="translate(605,248)"/>
<path d="M0 0 C5.90601572 0.95436788 10.38773506 5.45867407 15 9 C15.65742188 9.49886719 16.31484375 9.99773437 16.9921875 10.51171875 C22.13638411 14.64841141 26.01923978 19.76814371 30 25 C29.67 25.66 29.34 26.32 29 27 C28.01 27.33 27.02 27.66 26 28 C26.495 28.515625 26.99 29.03125 27.5 29.5625 C29.49649241 32.80680017 29.21564385 35.26217334 29 39 C27.09704544 36.14556816 26.07620035 33.69200094 24.875 30.5 C20.71577468 20.4129638 14.51235067 12.72580794 6 6 C3.98251717 4.35167361 1.98522328 2.68743979 0 1 C0 0.67 0 0.34 0 0 Z " fill="#5E5DDF" transform="translate(254,191)"/>
<path d="M0 0 C1.65 0 3.3 0 5 0 C5 1.65 5 3.3 5 5 C4.12057739 5.15166626 4.12057739 5.15166626 3.22338867 5.30639648 C0.60033281 6.12467931 -0.60591828 7.19524256 -2.57421875 9.09765625 C-3.56760254 10.04789673 -3.56760254 10.04789673 -4.58105469 11.01733398 C-5.27618164 11.69223877 -5.97130859 12.36714355 -6.6875 13.0625 C-7.41227539 13.7419165 -8.13705078 14.42133301 -8.88378906 15.12133789 C-11.85634279 17.9133627 -14.71055285 20.65805744 -17.34765625 23.7734375 C-20.08127018 26.88313384 -22.09622536 28.74303652 -26.31884766 29.31298828 C-32.22874153 29.66647928 -38.10082808 29.44233156 -44 29 C-44 28.67 -44 28.34 -44 28 C-38.06 28 -32.12 28 -26 28 C-25.67 27.01 -25.34 26.02 -25 25 C-23.44897461 23.44824219 -23.44897461 23.44824219 -21.46484375 21.796875 C-17.05796153 18.05579489 -12.79500214 14.18666089 -8.5625 10.25 C-7.48452148 9.26193359 -7.48452148 9.26193359 -6.38476562 8.25390625 C-5.70220703 7.61839844 -5.01964844 6.98289063 -4.31640625 6.328125 C-3.70224854 5.7599707 -3.08809082 5.19181641 -2.45532227 4.60644531 C-0.7603917 2.95213557 -0.7603917 2.95213557 0 0 Z " fill="#261CB5" transform="translate(202,181)"/>
<path d="M0 0 C0.66 0.33 1.32 0.66 2 1 C-8.69071331 10.05376099 -23.77235553 17.5134789 -38 17 C-38 16.67 -38 16.34 -38 16 C-37.030625 15.731875 -36.06125 15.46375 -35.0625 15.1875 C-34.051875 14.795625 -33.04125 14.40375 -32 14 C-31.67 13.01 -31.34 12.02 -31 11 C-30.06994141 10.88785156 -30.06994141 10.88785156 -29.12109375 10.7734375 C-23.12519972 9.88321743 -17.72462969 8.31670813 -12.125 6.0625 C-11.4952124 5.80968262 -10.8654248 5.55686523 -10.21655273 5.29638672 C-7.38479372 4.12085422 -4.7861487 2.86700937 -2.1796875 1.24609375 C-1.46039063 0.83488281 -0.74109375 0.42367188 0 0 Z " fill="#5F5FE3" transform="translate(150,275)"/>
<path d="M0 0 C0.93423645 3.01031744 1.04449911 3.86650268 0 7 C-0.66 7 -1.32 7 -2 7 C-2.144375 8.27875 -2.28875 9.5575 -2.4375 10.875 C-2.70642746 13.25692894 -2.92226346 14.84452691 -4 17 C-3.34 17 -2.68 17 -2 17 C-1.67 16.34 -1.34 15.68 -1 15 C-1.29648438 16.25683594 -1.59296875 17.51367188 -1.8984375 18.80859375 C-3.09449058 24.19083259 -3.88025132 29.60227625 -4.625 35.0625 C-4.7590625 36.02349609 -4.893125 36.98449219 -5.03125 37.97460938 C-5.35741065 40.31597687 -5.68026702 42.65774764 -6 45 C-6.33 45 -6.66 45 -7 45 C-10.052188 31.71687783 -8.12388594 17.07208662 -2 5 C-1.32165413 3.33805262 -0.64800425 1.67401097 0 0 Z " fill="#514FBF" transform="translate(121,105)"/>
<path d="M0 0 C0.66 0 1.32 0 2 0 C2.67184618 2.10251861 3.33730968 4.20707763 4 6.3125 C4.37125 7.48425781 4.7425 8.65601563 5.125 9.86328125 C6 13 6 13 6 16 C2.7 16 -0.6 16 -4 16 C-2.83672541 10.59908226 -1.57704144 5.29435341 0 0 Z " fill="#292929" transform="translate(421,250)"/>
<path d="M0 0 C0.33 0 0.66 0 1 0 C0.57353202 3.19850989 0.1288265 6.36373476 -0.51171875 9.52734375 C-1.89895602 16.38482161 -3.38082447 24.10958 -1.4375 30.9921875 C-0.86749584 33.60809945 -1.27602544 35.57459871 -1.8125 38.1875 C-1.98394531 39.06792969 -2.15539062 39.94835937 -2.33203125 40.85546875 C-2.55246094 41.56316406 -2.77289063 42.27085937 -3 43 C-3.99 43.495 -3.99 43.495 -5 44 C-5.41218798 28.71311029 -5.11360125 14.58488008 0 0 Z " fill="#3A3AA2" transform="translate(127,147)"/>
<path d="M0 0 C-0.71285156 0.38671875 -1.42570312 0.7734375 -2.16015625 1.171875 C-3.11792969 1.69265625 -4.07570312 2.2134375 -5.0625 2.75 C-6.06539062 3.29269531 -7.06828125 3.83539063 -8.1015625 4.39453125 C-10.42857564 5.68348327 -12.68053115 7.03305432 -14.9375 8.4375 C-18 10 -18 10 -20.4375 9.75 C-20.953125 9.5025 -21.46875 9.255 -22 9 C-21.01 9 -20.02 9 -19 9 C-19 8.34 -19 7.68 -19 7 C-24.61 7 -30.22 7 -36 7 C-36 6.67 -36 6.34 -36 6 C-34.865625 5.96261719 -33.73125 5.92523438 -32.5625 5.88671875 C-21.46023973 5.46261038 -21.46023973 5.46261038 -11 2 C-3.47495961 -1.15831987 -3.47495961 -1.15831987 0 0 Z " fill="#5560CD" transform="translate(183,248)"/>
<path d="M0 0 C-0.66 1.32 -1.32 2.64 -2 4 C0.97359449 5.48679725 3.66299179 5.11112605 6.9765625 5.09765625 C7.66181 5.0962413 8.3470575 5.09482635 9.05307007 5.09336853 C11.24375761 5.08776675 13.4343433 5.07521406 15.625 5.0625 C17.10937352 5.05748522 18.59374865 5.05292228 20.078125 5.04882812 C23.71878315 5.03779677 27.35938164 5.02053099 31 5 C30.67 5.66 30.34 6.32 30 7 C16.47 7 2.94 7 -11 7 C-11 6.34 -11 5.68 -11 5 C-9.54462432 4.16151196 -8.08559627 3.32936066 -6.625 2.5 C-5.81289062 2.0359375 -5.00078125 1.571875 -4.1640625 1.09375 C-2 0 -2 0 0 0 Z " fill="#5D59DE" transform="translate(168,296)"/>
<path d="M0 0 C17.49615975 -1.08472173 17.49615975 -1.08472173 24.53125 4.39453125 C26 6 26 6 27 9 C22.55516013 9 22.58450081 8.89290309 19.6875 6.0625 C14.01521752 1.47065228 6.95948522 2.01812366 0 2 C0 1.34 0 0.68 0 0 Z " fill="#25215B" transform="translate(113,222)"/>
<path d="M0 0 C1.65 0 3.3 0 5 0 C5 1.65 5 3.3 5 5 C4.44570312 5.07089844 3.89140625 5.14179688 3.3203125 5.21484375 C0.10791867 6.3018659 -1.68210456 8.23263405 -4.125 10.5625 C-8.79095164 15 -8.79095164 15 -11 15 C-9.53772972 11.5778282 -7.63410368 9.47749512 -4.9375 6.9375 C-1.74730313 3.95486048 -1.74730313 3.95486048 0 0 Z " fill="#261BD5" transform="translate(202,181)"/>
<path d="M0 0 C4.95 0 9.9 0 15 0 C15 1.32 15 2.64 15 4 C10.05 4 5.1 4 0 4 C0 2.68 0 1.36 0 0 Z " fill="#6D6D6D" transform="translate(503,261)"/>
<path d="M0 0 C0.66 0 1.32 0 2 0 C2.04898438 0.99515625 2.09796875 1.9903125 2.1484375 3.015625 C2.74465657 14.38509573 3.79426465 25.6801351 5 37 C4.34 36.67 3.68 36.34 3 36 C2.40234375 33.1484375 2.40234375 33.1484375 1.9375 29.375 C1.85516113 28.71363037 1.77282227 28.05226074 1.68798828 27.37084961 C0.84180525 20.26710115 0.38495644 13.14195508 0 6 C-0.66 6 -1.32 6 -2 6 C-1.34 4.02 -0.68 2.04 0 0 Z " fill="#524EC0" transform="translate(90,140)"/>
<path d="M0 0 C4.3573226 1.47130373 7.71934134 3.83080615 11.3125 6.625 C11.86228516 7.04523438 12.41207031 7.46546875 12.97851562 7.8984375 C14.32292168 8.92720039 15.66201413 9.9629009 17 11 C16.67 11.66 16.34 12.32 16 13 C13 13 13 13 11.1328125 11.42578125 C10.47023437 10.72839844 9.80765625 10.03101563 9.125 9.3125 C8.42632812 8.58675781 7.72765625 7.86101562 7.0078125 7.11328125 C6.34523437 6.41589844 5.68265625 5.71851563 5 5 C4.00358206 3.99643073 3.00429486 2.99568662 2 2 C1.34 1.34 0.68 0.68 0 0 Z " fill="#606DE0" transform="translate(212,174)"/>
<path d="M0 0 C4.08378283 0.74250597 8.01939223 1.82923301 12 3 C12.66 2.01 13.32 1.02 14 0 C14.83905565 1.12073862 15.67107831 2.24674547 16.5 3.375 C17.19609375 4.31472656 17.19609375 4.31472656 17.90625 5.2734375 C19 7 19 7 19 9 C12.28875149 7.51198562 6.08093371 4.11842755 0 1 C0 0.67 0 0.34 0 0 Z " fill="#524EBE" transform="translate(243,160)"/>
<path d="M0 0 C1.62999441 4.88998324 -1.51531813 9.01268507 -3.6875 13.4375 C-4.120625 14.283125 -4.55375 15.12875 -5 16 C-5.33 16 -5.66 16 -6 16 C-6.05447047 14.58376784 -6.09300508 13.16691809 -6.125 11.75 C-6.14820312 10.96109375 -6.17140625 10.1721875 -6.1953125 9.359375 C-5.97954438 6.75289611 -5.40935125 5.19232417 -4 3 C-1.875 2.25 -1.875 2.25 0 2 C0 1.34 0 0.68 0 0 Z " fill="#6B7DF1" transform="translate(130,162)"/>
<path d="M0 0 C3.76119476 0.62393651 6.18960042 2.34773715 9.25 4.5625 C10.14203125 5.20316406 11.0340625 5.84382812 11.953125 6.50390625 C12.96632813 7.24447266 12.96632813 7.24447266 14 8 C13.34 9.32 12.68 10.64 12 12 C8 8 4 4 0 0 Z " fill="#514ABE" transform="translate(254,191)"/>
<path d="M0 0 C0.33 0 0.66 0 1 0 C1.125 7.75 1.125 7.75 0 10 C-0.0689472 11.37342831 -0.08467708 12.75002102 -0.0625 14.125 C-0.041875 15.40375 -0.02125 16.6825 0 18 C-0.99 17.34 -1.98 16.68 -3 16 C-2.88487847 14.27014758 -2.75744323 12.54111249 -2.625 10.8125 C-2.55539062 9.84957031 -2.48578125 8.88664062 -2.4140625 7.89453125 C-1.99784147 4.98491062 -1.20125904 2.67109226 0 0 Z " fill="#5B789C" transform="translate(284,274)"/>
<path d="M0 0 C5.37305699 -0.44041451 5.37305699 -0.44041451 8 0 C10 2.5 10 2.5 11 5 C10.278125 4.649375 9.55625 4.29875 8.8125 3.9375 C5.60801052 2.86933684 4.12672123 2.73241031 1 4 C-0.37466625 6.47636012 -0.37466625 6.47636012 -1 9 C-1.33 9 -1.66 9 -2 9 C-1.125 2.25 -1.125 2.25 0 0 Z " fill="#6481A6" transform="translate(44,259)"/>
<path d="M0 0 C1.1171875 1.609375 1.1171875 1.609375 2 4 C1.3203125 7.015625 1.3203125 7.015625 0.125 10.25 C-0.26429687 11.32765625 -0.65359375 12.4053125 -1.0546875 13.515625 C-1.36664063 14.33546875 -1.67859375 15.1553125 -2 16 C-3.18056334 12.4998791 -2.82576105 9.90750019 -2.125 6.3125 C-1.85042969 4.85263672 -1.85042969 4.85263672 -1.5703125 3.36328125 C-1 1 -1 1 0 0 Z " fill="#4C4EE3" transform="translate(127,153)"/>
<path d="M0 0 C0.66 0 1.32 0 2 0 C0.52278578 3.45201639 -1.43794001 5.64961936 -4.125 8.25 C-4.84945312 8.95640625 -5.57390625 9.6628125 -6.3203125 10.390625 C-6.87460938 10.92171875 -7.42890625 11.4528125 -8 12 C-8.66 11.67 -9.32 11.34 -10 11 C-8.88200014 9.66079162 -7.75538103 8.32877444 -6.625 7 C-5.99851563 6.2575 -5.37203125 5.515 -4.7265625 4.75 C-4.15679687 4.1725 -3.58703125 3.595 -3 3 C-2.34 3 -1.68 3 -1 3 C-0.67 2.01 -0.34 1.02 0 0 Z " fill="#343653" transform="translate(141,91)"/>
<path d="M0 0 C1.32 0.33 2.64 0.66 4 1 C-1.90377651 3.8751252 -7.53287812 5.83805848 -14 7 C-13.67 6.01 -13.34 5.02 -13 4 C-11.07421875 3.26953125 -11.07421875 3.26953125 -8.6875 2.8125 C-7.90761719 2.65394531 -7.12773437 2.49539063 -6.32421875 2.33203125 C-4 2 -4 2 0 2 C0 1.34 0 0.68 0 0 Z " fill="#3C38C6" transform="translate(159,258)"/>
<path d="M0 0 C0.66 0.33 1.32 0.66 2 1 C-1.63 4.63 -5.26 8.26 -9 12 C-9.66 11.67 -10.32 11.34 -11 11 C-9.92173635 9.72486237 -8.83714481 8.45507431 -7.75 7.1875 C-7.14671875 6.47980469 -6.5434375 5.77210938 -5.921875 5.04296875 C-4.07629602 3.08110329 -2.20054668 1.54330375 0 0 Z " fill="#32364D" transform="translate(144,149)"/>
<path d="M0 0 C0.66 0.33 1.32 0.66 2 1 C-4.49700599 6.38323353 -4.49700599 6.38323353 -8 8 C-10.15234375 7.0703125 -10.15234375 7.0703125 -12 6 C-10.04669132 4.96958487 -8.08718472 3.9509107 -6.125 2.9375 C-5.03445312 2.36902344 -3.94390625 1.80054688 -2.8203125 1.21484375 C-1.42425781 0.61349609 -1.42425781 0.61349609 0 0 Z " fill="#453F99" transform="translate(150,275)"/>
<path d="M0 0 C0.66 0.99 1.32 1.98 2 3 C-0.64 5.64 -3.28 8.28 -6 11 C-6.66 10.67 -7.32 10.34 -8 10 C-5.36 6.7 -2.72 3.4 0 0 Z " fill="#252073" transform="translate(146,219)"/>
<path d="M0 0 C2.62901288 1.52206009 4.84365964 2.84365964 7 5 C6.67 5.99 6.34 6.98 6 8 C4.125 7.6875 4.125 7.6875 2 7 C0 4 0 4 0 0 Z " fill="#697BEF" transform="translate(227,186)"/>
<path d="M0 0 C0.66 0.33 1.32 0.66 2 1 C-1.61251516 5.56048012 -4.98797445 9.01665146 -10 12 C-10.66 11.67 -11.32 11.34 -12 11 C-11.278125 10.443125 -10.55625 9.88625 -9.8125 9.3125 C-7.02282044 7.01876348 -4.51793656 4.5859889 -2 2 C-1.34 1.34 -0.68 0.68 0 0 Z " fill="#5653F2" transform="translate(211,289)"/>
<path d="M0 0 C5.61 0 11.22 0 17 0 C17 0.66 17 1.32 17 2 C14.36 2.33 11.72 2.66 9 3 C9 2.34 9 1.68 9 1 C6.03 1 3.06 1 0 1 C0 0.67 0 0.34 0 0 Z " fill="#6D81F4" transform="translate(147,255)"/>
<path d="M0 0 C0.33 0 0.66 0 1 0 C1.144375 0.9075 1.28875 1.815 1.4375 2.75 C1.88234036 5.80306834 1.88234036 5.80306834 2.625 7.875 C3.23399379 11.32596481 2.51778333 14.5481111 2 18 C1.67 18 1.34 18 1 18 C0.04380267 14.00204108 -0.1039592 10.29196078 -0.0625 6.1875 C-0.05347656 5.02605469 -0.04445313 3.86460937 -0.03515625 2.66796875 C-0.02355469 1.78753906 -0.01195313 0.90710938 0 0 Z " fill="#3F3A8C" transform="translate(113,132)"/>
<path d="M0 0 C0.66 0.33 1.32 0.66 2 1 C-1.95825209 5.82485166 -5.59160025 9.83410746 -11 13 C-9.46356148 9.31930113 -7.21849055 7.01224796 -4.375 4.25 C-3.55773437 3.45078125 -2.74046875 2.6515625 -1.8984375 1.828125 C-0.95871094 0.92320312 -0.95871094 0.92320312 0 0 Z " fill="#5A62F1" transform="translate(145,133)"/>
<path d="M0 0 C1.13643966 3.40931897 0.86747764 4.00335456 -0.4375 7.1875 C-0.72496094 7.90292969 -1.01242188 8.61835938 -1.30859375 9.35546875 C-1.53675781 9.89816406 -1.76492187 10.44085938 -2 11 C-2.66 11 -3.32 11 -4 11 C-3.67 8.03 -3.34 5.06 -3 2 C-2.01 2 -1.02 2 0 2 C0 1.34 0 0.68 0 0 Z " fill="#5E5CE2" transform="translate(119,120)"/>
<path d="M0 0 C-0.99 0.33 -1.98 0.66 -3 1 C-3 1.66 -3 2.32 -3 3 C-9.27 2.67 -15.54 2.34 -22 2 C-22 1.67 -22 1.34 -22 1 C-19.27093526 0.83150207 -16.54176829 0.6651397 -13.8125 0.5 C-13.04357422 0.45230469 -12.27464844 0.40460938 -11.48242188 0.35546875 C-7.648496 0.12510411 -3.84309823 -0.0616128 0 0 Z " fill="#5A69B9" transform="translate(169,253)"/>
<path d="M0 0 C0 0.66 0 1.32 0 2 C-5.75 5 -5.75 5 -8 5 C-8 4.34 -8 3.68 -8 3 C-8.66 2.67 -9.32 2.34 -10 2 C-6.38026598 0.68373308 -3.90432869 0 0 0 Z " fill="#5954D3" transform="translate(140,282)"/>
<path d="M0 0 C3 4 3 4 3.14453125 6.0703125 C2.22222222 11.77777778 2.22222222 11.77777778 0 14 C0 9.38 0 4.76 0 0 Z " fill="#5562BF" transform="translate(123,172)"/>
<path d="M0 0 C4.10958767 1.45044271 7.43258745 3.51110752 11 6 C10.01 6.66 9.02 7.32 8 8 C6.66372225 6.85760183 5.33104612 5.71098945 4 4.5625 C3.2575 3.92441406 2.515 3.28632813 1.75 2.62890625 C1.1725 2.09136719 0.595 1.55382812 0 1 C0 0.67 0 0.34 0 0 Z " fill="#4B54A3" transform="translate(212,174)"/>
<path d="M0 0 C2.10494301 0.08708038 4.20902142 0.19525693 6.3125 0.3125 C8.07013672 0.39951172 8.07013672 0.39951172 9.86328125 0.48828125 C13.0983686 1.01604768 14.08684881 1.42380724 16 4 C10.63486869 3.152874 5.3212615 2.08318169 0 1 C0 0.67 0 0.34 0 0 Z " fill="#5354BD" transform="translate(201,145)"/>
<path d="M0 0 C-2.97 1.65 -5.94 3.3 -9 5 C-9 4.34 -9 3.68 -9 3 C-9.66 2.67 -10.32 2.34 -11 2 C-9.73392393 1.46770674 -8.46189588 0.94955456 -7.1875 0.4375 C-6.47980469 0.14746094 -5.77210938 -0.14257812 -5.04296875 -0.44140625 C-3 -1 -3 -1 0 0 Z " fill="#424A89" transform="translate(183,248)"/>
<path d="M0 0 C3 1 3 1 5 4 C5.07905064 6.33199388 5.08798769 8.66832622 5 11 C0 3.5 0 3.5 0 0 Z " fill="#565BC0" transform="translate(278,219)"/>
<path d="M0 0 C0.66 0.33 1.32 0.66 2 1 C0.02 3.31 -1.96 5.62 -4 8 C-4.99 7.67 -5.98 7.34 -7 7 C-4.69 4.69 -2.38 2.38 0 0 Z " fill="#5D6DC0" transform="translate(143,77)"/>
<path d="M0 0 C6.70459519 4.11378556 6.70459519 4.11378556 7.9375 7.8125 C7.958125 8.534375 7.97875 9.25625 8 10 C6.33333333 8.33333333 4.66666667 6.66666667 3 5 C2.401875 4.443125 1.80375 3.88625 1.1875 3.3125 C0 2 0 2 0 0 Z " fill="#474AD9" transform="translate(229,185)"/>
<path d="M0 0 C0.99 0.33 1.98 0.66 3 1 C2.34 3.97 1.68 6.94 1 10 C0.67 10 0.34 10 0 10 C0 6.7 0 3.4 0 0 Z " fill="#5754D2" transform="translate(114,130)"/>
<path d="M0 0 C-2.42130331 2.42130331 -3.80111377 2.52840504 -7.125 3.125 C-8.03507813 3.29257813 -8.94515625 3.46015625 -9.8828125 3.6328125 C-10.58148438 3.75398438 -11.28015625 3.87515625 -12 4 C-10.720327 1.44065399 -9.75798964 1.3010767 -7.125 0.3125 C-6.07699219 -0.09548828 -6.07699219 -0.09548828 -5.0078125 -0.51171875 C-3 -1 -3 -1 0 0 Z " fill="#6889B4" transform="translate(181,72)"/>
<path d="M0 0 C0.66 0.33 1.32 0.66 2 1 C0.68 2.65 -0.64 4.3 -2 6 C-3.32 5.67 -4.64 5.34 -6 5 C-4.02 3.35 -2.04 1.7 0 0 Z " fill="#5A59CE" transform="translate(200,272)"/>
<path d="M0 0 C1.65 0 3.3 0 5 0 C5 1.65 5 3.3 5 5 C3.68 4.67 2.36 4.34 1 4 C0.67 2.68 0.34 1.36 0 0 Z " fill="#2719F8" transform="translate(202,181)"/>
<path d="M0 0 C0.66 0 1.32 0 2 0 C2 2.31 2 4.62 2 7 C0.68 6.67 -0.64 6.34 -2 6 C-1.34 4.02 -0.68 2.04 0 0 Z " fill="#4743A1" transform="translate(90,140)"/>
<path d="M0 0 C0.99 0 1.98 0 3 0 C1.25 5.75 1.25 5.75 -1 8 C-0.67 5.36 -0.34 2.72 0 0 Z " fill="#6574DA" transform="translate(125,170)"/>
</svg>
