<?xml version="1.0" encoding="UTF-8"?>
<svg version="1.1" xmlns="http://www.w3.org/2000/svg" width="766" height="356">
<path d="M0 0 C252.78 0 505.56 0 766 0 C766 117.48 766 234.96 766 356 C513.22 356 260.44 356 0 356 C0 238.52 0 121.04 0 0 Z " fill="#FEFEFE" transform="translate(0,0)"/>
<path d="M0 0 C1.02685913 0.0920874 1.02685913 0.0920874 2.07446289 0.18603516 C6.44763066 0.72604283 8.53105781 1.80439175 11.25 5.25 C12.39923304 6.82219532 13.49867457 8.431301 14.5625 10.0625 C15.25859375 11.1246875 15.9546875 12.186875 16.671875 13.28125 C17.07212891 13.89742187 17.47238281 14.51359375 17.88476562 15.1484375 C19.44476032 17.54980273 21.01131307 19.94682736 22.578125 22.34375 C25.12167612 26.2366777 27.65984404 30.13305403 30.1953125 34.03125 C32.96770622 38.2906426 35.75580757 42.5392174 38.5546875 46.78125 C39.2468335 47.8333667 39.93897949 48.8854834 40.65209961 49.96948242 C41.99045917 52.00326883 43.33232188 54.03475504 44.67797852 56.0637207 C45.27795654 56.97726318 45.87793457 57.89080566 46.49609375 58.83203125 C47.02904053 59.63874268 47.5619873 60.4454541 48.11108398 61.27661133 C49.25 63.25 49.25 63.25 49.25 65.25 C43.24938162 63.51671327 37.83231986 60.68465822 32.25 57.9375 C23.70776512 53.79075793 15.30150691 50.14697955 6.25 47.25 C5.4971875 46.98058594 4.744375 46.71117187 3.96875 46.43359375 C-3.43437066 43.79554143 -11.12173853 42.10079131 -18.75 40.25 C-19.34449951 40.07202881 -19.93899902 39.89405762 -20.55151367 39.71069336 C-25.46978649 38.68006806 -30.62504212 38.9833585 -35.63720703 38.95483398 C-37.03151666 38.94339465 -38.42578533 38.92307241 -39.81982422 38.89331055 C-51.14803125 38.65196931 -62.27275031 39.42463854 -71.25 47.1875 C-72.41015625 48.16009766 -72.41015625 48.16009766 -73.59375 49.15234375 C-86.03891576 61.25932566 -88.23801058 75.71022865 -89.75 92.25 C-90.41 92.25 -91.07 92.25 -91.75 92.25 C-92.35628447 65.89294868 -92.64165249 40.57125013 -74.6484375 19.19921875 C-54.10389476 -1.89486937 -27.7120892 -2.76480044 0 0 Z " fill="#6A6FFA" transform="translate(181.75,95.75)"/>
<path d="M0 0 C14.35312823 2.49326641 33.41438543 21.56094899 41.95703125 32.5078125 C51.0968262 45.8491254 55.65453774 61.42860179 53.69140625 77.53125 C53.23973426 79.73764769 52.66687745 81.84903112 52 84 C51.65001953 85.20269531 51.65001953 85.20269531 51.29296875 86.4296875 C46.87479985 100.02715708 38.88273264 112.51533006 29.46936035 123.19877625 C27.94721214 124.97316296 27.94721214 124.97316296 26.79103088 127.04296875 C24.17794019 130.95962127 22.20822708 132.75669676 17.51257324 133.70227051 C13.05085711 134.03219442 8.59684974 133.90018191 4.12890625 133.78125 C2.47984063 133.7663134 0.8307393 133.75493307 -0.81837463 133.74694824 C-5.14134181 133.71652417 -9.46212973 133.63805093 -13.78424072 133.54931641 C-18.20156374 133.46721116 -22.61924188 133.4308845 -27.03710938 133.390625 C-35.69240205 133.30504208 -44.34592932 133.16865936 -53 133 C-53 132.34 -53 131.68 -53 131 C-51.54150391 129.96948242 -51.54150391 129.96948242 -49.4765625 128.85546875 C-48.71142334 128.43241455 -47.94628418 128.00936035 -47.15795898 127.57348633 C-46.32208252 127.11611084 -45.48620605 126.65873535 -44.625 126.1875 C-34.5220911 120.50503108 -25.2193829 114.00883175 -16 107 C-15.02289063 106.2575 -14.04578125 105.515 -13.0390625 104.75 C3.86043664 91.52894074 23.3380141 73.55529582 26.25097656 51.06201172 C27.55894259 37.1574784 24.07851537 25.34357084 15.25 14.5 C11.22694359 9.96336192 6.98554119 6.48951932 1.8359375 3.3046875 C1.23007813 2.87414062 0.62421875 2.44359375 0 2 C0 1.34 0 0.68 0 0 Z " fill="#6A6FF9" transform="translate(176,162)"/>
<path d="M0 0 C0.66 0 1.32 0 2 0 C2.02578125 0.83015625 2.0515625 1.6603125 2.078125 2.515625 C2.9353288 21.14032568 5.03079597 40.28039433 11 58 C11.30679688 59.07507813 11.61359375 60.15015625 11.9296875 61.2578125 C16.87053226 78.53035246 25.16661264 98.31561805 41.203125 107.91796875 C48.73971009 111.74997639 54.32656744 113.2017058 62.6875 113.25 C63.56083984 113.270625 64.43417969 113.29125 65.33398438 113.3125 C71.20508624 113.34757753 75.67043877 112.42273126 81 110 C81.92167969 109.62617188 82.84335938 109.25234375 83.79296875 108.8671875 C85.39783338 108.20220281 87.00199442 107.53551767 88.60546875 106.8671875 C91.05698765 105.97936173 93.43459265 105.44655403 96 105 C92.72347486 108.67468515 88.9579033 110.96995492 84.6875 113.3125 C83.98471924 113.70131348 83.28193848 114.09012695 82.55786133 114.49072266 C69.800335 121.46234481 56.78856298 128.13308424 42 129 C40.98421875 129.06445312 39.9684375 129.12890625 38.921875 129.1953125 C23.17141573 129.72503647 10.21340788 125.45695725 -1.47265625 114.92578125 C-12.87230187 104.24023818 -20.50438006 92.19194537 -27 78 C-27.42539062 77.10152344 -27.85078125 76.20304687 -28.2890625 75.27734375 C-28.85753906 73.99537109 -28.85753906 73.99537109 -29.4375 72.6875 C-29.76621094 71.94886719 -30.09492188 71.21023437 -30.43359375 70.44921875 C-32.07610955 63.34675386 -28.5050523 57.23826436 -25.4375 51.0625 C-24.98568359 50.13373047 -24.53386719 49.20496094 -24.06835938 48.24804688 C-21.11004316 42.18537626 -18.09718782 36.14891401 -15.05395508 30.12841797 C-11.68892097 23.44927082 -8.50168991 16.68603301 -5.32421875 9.91601562 C-4.92074219 9.06072266 -4.51726563 8.20542969 -4.1015625 7.32421875 C-3.74400879 6.56197998 -3.38645508 5.79974121 -3.01806641 5.0144043 C-2 3 -2 3 0 0 Z " fill="#6A6FF9" transform="translate(58,131)"/>
<path d="M0 0 C3.96 0 7.92 0 12 0 C12.70125 1.835625 13.4025 3.67125 14.125 5.5625 C17.01255771 13.07015004 19.99889193 20.53716853 23 28 C24.02193095 30.54122754 25.04256622 33.08297032 26.0625 35.625 C26.50722656 36.73101562 26.95195312 37.83703125 27.41015625 38.9765625 C29.64629368 44.63558351 31.81568297 50.32077571 34 56 C34.33 37.52 34.66 19.04 35 0 C38.63 0 42.26 0 46 0 C46 29.04 46 58.08 46 88 C42.37 88 38.74 88 35 88 C31.65947102 80.76175926 28.5131219 73.49140618 25.57421875 66.08203125 C25.22540649 65.20848999 24.87659424 64.33494873 24.51721191 63.43493652 C23.2377733 60.22860062 21.96288869 57.020449 20.6875 53.8125 C17.820625 46.614375 14.95375 39.41625 12 32 C11.67 50.48 11.34 68.96 11 88 C7.37 88 3.74 88 0 88 C0 58.96 0 29.92 0 0 Z " fill="#252525" transform="translate(358,99)"/>
<path d="M0 0 C0.73431747 -0.00004028 1.46863495 -0.00008057 2.22520447 -0.00012207 C3.76912043 0.00521278 5.31303758 0.02270843 6.85668945 0.05175781 C9.21194874 0.09369845 11.56435108 0.09281436 13.91992188 0.0859375 C15.425801 0.09642899 16.93166548 0.10936689 18.4375 0.125 C19.13657974 0.12520142 19.83565948 0.12540283 20.55592346 0.12561035 C24.90893765 0.23040397 27.695997 0.91908814 31.15234375 3.59375 C33.18355082 6.64056061 33.3989425 7.19493324 33.34765625 10.60546875 C33.34121094 11.36279297 33.33476562 12.12011719 33.328125 12.90039062 C33.31136719 13.68607422 33.29460937 14.47175781 33.27734375 15.28125 C33.26832031 16.07853516 33.25929688 16.87582031 33.25 17.69726562 C33.2264596 19.662889 33.19058922 21.62835775 33.15234375 23.59375 C29.19234375 22.60375 25.23234375 21.61375 21.15234375 20.59375 C20.49234375 18.28375 19.83234375 15.97375 19.15234375 13.59375 C16.00652952 13.56486486 12.86074906 13.54699077 9.71484375 13.53125 C8.81701172 13.52287109 7.91917969 13.51449219 6.99414062 13.50585938 C6.14013672 13.50263672 5.28613281 13.49941406 4.40625 13.49609375 C3.61549072 13.49085693 2.82473145 13.48562012 2.01000977 13.48022461 C0.13641686 13.38879091 0.13641686 13.38879091 -0.84765625 14.59375 C-0.947526 17.43710048 -0.98643506 20.25072163 -0.97265625 23.09375 C-0.97652344 23.89167969 -0.98039062 24.68960938 -0.984375 25.51171875 C-1.35665235 29.3621432 -1.35665235 29.3621432 0.15234375 32.59375 C2.01949892 32.71539 3.89086614 32.77345887 5.76171875 32.8046875 C7.48261719 32.84722656 7.48261719 32.84722656 9.23828125 32.890625 C11.6652167 32.94237202 14.09232158 32.98674103 16.51953125 33.0234375 C17.67195313 33.054375 18.824375 33.0853125 20.01171875 33.1171875 C21.06842773 33.13700684 22.12513672 33.15682617 23.21386719 33.17724609 C26.56570041 33.65233977 28.44292729 34.58972628 31.15234375 36.59375 C33.18141019 39.63734966 33.40666786 40.26892683 33.44287109 43.69458008 C33.4556308 44.51585892 33.4683905 45.33713776 33.48153687 46.18330383 C33.48376251 47.06769638 33.48598816 47.95208893 33.48828125 48.86328125 C33.49493805 49.77704025 33.50159485 50.69079926 33.50845337 51.63224792 C33.51858018 53.56641629 33.52327038 55.5006196 33.52294922 57.43481445 C33.52731213 60.38486881 33.56360249 63.33341454 33.6015625 66.28320312 C33.60743281 68.1640574 33.61140077 70.04491876 33.61328125 71.92578125 C33.62765228 72.8041011 33.64202332 73.68242096 33.65682983 74.58735657 C33.61639208 80.04675149 32.90025312 83.32574508 29.15234375 87.59375 C25.5891035 88.78149675 22.30939846 88.79355143 18.59765625 88.83203125 C17.85909393 88.840103 17.12053162 88.84817474 16.35958862 88.85649109 C14.79785494 88.87030873 13.23609136 88.88104125 11.67431641 88.88891602 C10.07982517 88.90044676 8.48537287 88.92091613 6.89111328 88.95043945 C4.5846947 88.99315091 2.27942138 89.00928795 -0.02734375 89.01953125 C-0.73583466 89.03703934 -1.44432556 89.05454742 -2.17428589 89.07258606 C-5.78776743 89.0568229 -7.71422378 88.68045995 -10.77392578 86.69213867 C-13.86618056 83.56311468 -13.96993507 81.87026439 -13.9453125 77.5859375 C-13.94208984 76.59980469 -13.93886719 75.61367187 -13.93554688 74.59765625 C-13.92716797 73.56511719 -13.91878906 72.53257812 -13.91015625 71.46875 C-13.90564453 70.42847656 -13.90113281 69.38820313 -13.89648438 68.31640625 C-13.88467577 65.74213038 -13.868207 63.16796854 -13.84765625 60.59375 C-5.27622768 61.59375 -5.27622768 61.59375 -1.84765625 62.59375 C-1.78707031 63.44839844 -1.72648437 64.30304688 -1.6640625 65.18359375 C-1.58027344 66.28832031 -1.49648438 67.39304687 -1.41015625 68.53125 C-1.32894531 69.63339844 -1.24773437 70.73554688 -1.1640625 71.87109375 C-1.14347541 74.50484903 -1.14347541 74.50484903 0.15234375 75.59375 C1.5558311 75.69235131 2.96414852 75.72453937 4.37109375 75.7265625 C5.22058594 75.72785156 6.07007813 75.72914063 6.9453125 75.73046875 C7.83863281 75.72660156 8.73195313 75.72273438 9.65234375 75.71875 C10.54566406 75.72261719 11.43898438 75.72648437 12.359375 75.73046875 C13.63361328 75.72853516 13.63361328 75.72853516 14.93359375 75.7265625 C15.71798828 75.72543457 16.50238281 75.72430664 17.31054688 75.72314453 C19.16987363 75.79482442 19.16987363 75.79482442 20.15234375 74.59375 C20.23992378 72.59410018 20.25930951 70.5913889 20.25 68.58984375 C20.24677734 67.37490234 20.24355469 66.15996094 20.24023438 64.90820312 C20.23185547 63.62880859 20.22347656 62.34941406 20.21484375 61.03125 C20.21033203 59.74798828 20.20582031 58.46472656 20.20117188 57.14257812 C20.1893392 53.95958978 20.17285443 50.77669238 20.15234375 47.59375 C17.49371356 46.2644349 15.41950917 46.44978201 12.4453125 46.41796875 C10.72924805 46.38219727 10.72924805 46.38219727 8.97851562 46.34570312 C6.56462953 46.30294508 4.1505131 46.27158065 1.73632812 46.25195312 C0.58841797 46.22423828 -0.55949219 46.19652344 -1.7421875 46.16796875 C-2.79253174 46.15338623 -3.84287598 46.13880371 -4.92504883 46.1237793 C-8.53481173 45.46913096 -10.22355805 44.10739696 -12.84765625 41.59375 C-15.14262064 37.00382122 -14.20103826 30.28754917 -14.25268555 25.19116211 C-14.27426327 23.58970574 -14.30836455 21.98836724 -14.35522461 20.38745117 C-14.42230035 18.07417367 -14.44969121 15.76333201 -14.46875 13.44921875 C-14.49658066 12.73759079 -14.52441132 12.02596283 -14.55308533 11.29277039 C-14.53655954 7.27898464 -13.94595235 5.70768797 -11.29931641 2.63989258 C-7.75251283 0.13021127 -4.24363581 -0.09981347 0 0 Z " fill="#292929" transform="translate(433.84765625,98.40625)"/>
<path d="M0 0 C0.73431747 -0.00004028 1.46863495 -0.00008057 2.22520447 -0.00012207 C3.76912043 0.00521278 5.31303758 0.02270843 6.85668945 0.05175781 C9.21194874 0.09369845 11.56435108 0.09281436 13.91992188 0.0859375 C15.425801 0.09642899 16.93166548 0.10936689 18.4375 0.125 C19.13657974 0.12520142 19.83565948 0.12540283 20.55592346 0.12561035 C24.89860164 0.23015514 27.69158221 0.93918628 31.15234375 3.59375 C32.4309599 6.15098229 32.26570984 7.96112102 32.25 10.8203125 C32.24677734 11.8515625 32.24355469 12.8828125 32.24023438 13.9453125 C32.22766602 15.56566406 32.22766602 15.56566406 32.21484375 17.21875 C32.21033203 18.30671875 32.20582031 19.3946875 32.20117188 20.515625 C32.18936165 23.20835662 32.1714258 25.90106009 32.15234375 28.59375 C28.52234375 28.26375 24.89234375 27.93375 21.15234375 27.59375 C21.09175781 26.66691406 21.03117188 25.74007812 20.96875 24.78515625 C20.88496094 23.58761719 20.80117188 22.39007813 20.71484375 21.15625 C20.63363281 19.96128906 20.55242188 18.76632813 20.46875 17.53515625 C20.47578261 14.70804756 20.47578261 14.70804756 19.15234375 13.59375 C12.22234375 13.59375 5.29234375 13.59375 -1.84765625 13.59375 C-1.84765625 34.05375 -1.84765625 54.51375 -1.84765625 75.59375 C5.08234375 75.59375 12.01234375 75.59375 19.15234375 75.59375 C21.09325201 73.65284174 20.5515381 70.12081098 20.71484375 67.53125 C20.79863281 66.24089844 20.88242187 64.95054687 20.96875 63.62109375 C21.05962891 62.12255859 21.05962891 62.12255859 21.15234375 60.59375 C17.19234375 60.59375 13.23234375 60.59375 9.15234375 60.59375 C11.02734375 50.84375 11.02734375 50.84375 12.15234375 48.59375 C18.75234375 48.59375 25.35234375 48.59375 32.15234375 48.59375 C32.24425665 53.50598385 32.32386218 58.41522752 32.37207031 63.32763672 C32.39216768 64.99798702 32.41945058 66.66826713 32.45410156 68.33837891 C32.50270494 70.7413872 32.52533031 73.14346434 32.54296875 75.546875 C32.56361389 76.29181213 32.58425903 77.03674927 32.60552979 77.80426025 C32.60705022 81.32913772 32.44971393 83.21167901 30.25292969 86.03417969 C26.43670127 88.86752082 23.30420533 88.78459423 18.6953125 88.83203125 C17.95533524 88.840103 17.21535797 88.84817474 16.45295715 88.85649109 C14.8852472 88.87032883 13.31750716 88.88105238 11.74975586 88.88891602 C9.35927743 88.90611022 6.97018916 88.94999349 4.58007812 88.99414062 C3.05599974 89.00426956 1.53190961 89.01278503 0.0078125 89.01953125 C-0.70381546 89.03703934 -1.41544342 89.05454742 -2.14863586 89.07258606 C-5.77036756 89.05686258 -7.70882189 88.68390263 -10.77612305 86.69213867 C-14.29235198 83.13032516 -14.01699184 80.14166619 -14.05639648 75.37768555 C-14.07107216 74.26275726 -14.07107216 74.26275726 -14.08604431 73.12530518 C-14.11600975 70.66037797 -14.13738644 68.19550504 -14.15625 65.73046875 C-14.16282183 64.88903635 -14.16939365 64.04760395 -14.17616463 63.1806736 C-14.20876292 58.72699286 -14.23321286 54.2733361 -14.25268555 49.81958008 C-14.27050402 46.13237748 -14.30533094 42.44593891 -14.35522461 38.7590332 C-14.41538189 34.30867284 -14.44615482 29.85902131 -14.45585823 25.4082737 C-14.4644217 23.71255054 -14.48326203 22.01684676 -14.51260185 20.32135582 C-14.55149284 17.94606257 -14.55255592 15.57353376 -14.54467773 13.19799805 C-14.56467834 12.49910965 -14.58467896 11.80022125 -14.60528564 11.08015442 C-14.56456005 8.34132136 -14.34113681 6.20837316 -12.59601879 4.03485298 C-8.59371454 0.49798737 -5.15335104 -0.12121065 0 0 Z " fill="#262626" transform="translate(521.84765625,98.40625)"/>
<path d="M0 0 C3.96 0 7.92 0 12 0 C12 10.89 12 21.78 12 33 C19.92 33 27.84 33 36 33 C36 22.11 36 11.22 36 0 C39.63 0 43.26 0 47 0 C47 29.04 47 58.08 47 88 C43.37 88 39.74 88 36 88 C36 73.81 36 59.62 36 45 C28.08 45 20.16 45 12 45 C12 59.19 12 73.38 12 88 C8.04 88 4.08 88 0 88 C0 58.96 0 29.92 0 0 Z " fill="#292929" transform="translate(570,99)"/>
<path d="M0 0 C3.96 0 7.92 0 12 0 C14.11794246 8.27866331 16.03209302 16.56722196 17.75 24.9375 C18.00096436 26.15735596 18.25192871 27.37721191 18.51049805 28.6340332 C20.52065412 38.48927068 22.45590637 48.35876214 24.34411621 58.23806763 C24.65326144 59.85475538 24.96370031 61.47119637 25.2755127 63.08737183 C26.87024948 71.37080851 28.3533445 79.5766823 29 88 C25.37 88 21.74 88 18 88 C15 77.625 15 77.625 15 72 C9.06 72 3.12 72 -3 72 C-3.66 77.28 -4.32 82.56 -5 88 C-8.96 88 -12.92 88 -17 88 C-16.27447394 80.12164051 -14.838158 72.44671254 -13.3125 64.6875 C-13.18127747 64.01447845 -13.05005493 63.34145691 -12.91485596 62.64804077 C-10.77784835 51.68818015 -8.49220959 40.76364733 -6.1237793 29.85131836 C-3.96929149 19.92259483 -1.95268403 9.97017491 0 0 Z " fill="#292929" transform="translate(706,99)"/>
<path d="M0 0 C0.99 0.33 1.98 0.66 3 1 C3.75195312 2.94604492 3.75195312 2.94604492 4.28125 5.48046875 C4.48363281 6.39763672 4.68601562 7.31480469 4.89453125 8.25976562 C5.09433594 9.22591797 5.29414062 10.19207031 5.5 11.1875 C6.77449113 17.22694344 7.98357834 22.54883578 11 28 C11.391875 29.258125 11.78375 30.51625 12.1875 31.8125 C17.32345417 47.42999331 26.40086356 67.44027262 41.6484375 75.37890625 C42.54820313 75.76949219 43.44796875 76.16007812 44.375 76.5625 C45.33664063 76.98144531 46.29828125 77.40039062 47.2890625 77.83203125 C48.18367188 78.21746094 49.07828125 78.60289062 50 79 C50.66773438 79.31324219 51.33546875 79.62648438 52.0234375 79.94921875 C58.79054911 83.08781124 65.63038957 83.14389883 72.9375 83.0625 C74.10635742 83.05573242 74.10635742 83.05573242 75.29882812 83.04882812 C77.19925268 83.03716908 79.09963706 83.01923877 81 83 C81 82.34 81 81.68 81 81 C85.95 80.01 85.95 80.01 91 79 C90 82 90 82 87.8828125 83.28125 C78.93190494 87.23689187 69.84698766 90.42276279 60 91 C58.98421875 91.06445312 57.9684375 91.12890625 56.921875 91.1953125 C41.17141573 91.72503647 28.21340788 87.45695725 16.52734375 76.92578125 C5.12769813 66.24023818 -2.50438006 54.19194537 -9 40 C-9.42539062 39.10152344 -9.85078125 38.20304687 -10.2890625 37.27734375 C-10.66804688 36.42269531 -11.04703125 35.56804687 -11.4375 34.6875 C-11.76621094 33.94886719 -12.09492188 33.21023437 -12.43359375 32.44921875 C-14.13779786 25.08000511 -10.22062528 18.60562558 -7.0625 12.1875 C-6.60681641 11.23423828 -6.15113281 10.28097656 -5.68164062 9.29882812 C-2.28804301 2.28804301 -2.28804301 2.28804301 0 0 Z " fill="#4640E0" transform="translate(40,169)"/>
<path d="M0 0 C1.02685913 0.0920874 1.02685913 0.0920874 2.07446289 0.18603516 C6.4613365 0.72773526 8.53283613 1.78694801 11.25 5.25 C12.60409823 7.15865934 13.91450843 9.09881597 15.1875 11.0625 C17.45381602 14.54034197 19.73563141 17.94765265 22.25 21.25 C24.25 24.25 24.25 24.25 24.25 28.25 C18.562467 27.71344028 13.37238876 26.51657687 7.8828125 24.94921875 C4.67067886 24.09614468 1.54935298 23.61659478 -1.75 23.25 C-1.75 22.59 -1.75 21.93 -1.75 21.25 C-11.15576319 20.25991966 -20.55004949 20.11185989 -30 20.0625 C-31.1952832 20.04960938 -32.39056641 20.03671875 -33.62207031 20.0234375 C-43.51809896 20.01245107 -51.74044975 21.20489581 -60.75 25.25 C-61.74 25.25 -62.73 25.25 -63.75 25.25 C-64.08 26.24 -64.41 27.23 -64.75 28.25 C-66.41448823 28.92208717 -68.08152612 29.58786925 -69.75 30.25 C-72.15646234 32.22124063 -72.15646234 32.22124063 -74.375 34.5625 C-75.13039063 35.32175781 -75.88578125 36.08101562 -76.6640625 36.86328125 C-81.13015688 41.97336302 -83.15764086 47.61896602 -85.375 53.9375 C-85.68695313 54.78505859 -85.99890625 55.63261719 -86.3203125 56.50585938 C-88.4074292 62.42085606 -89.40666578 67.99043099 -89.75 74.25 C-90.08 74.25 -90.41 74.25 -90.75 74.25 C-91.74288997 53.30460427 -88.55245923 35.4046877 -74.4375 18.875 C-54.42898741 -2.08629891 -27.15590757 -2.7093109 0 0 Z " fill="#4842E1" transform="translate(181.75,95.75)"/>
<path d="M0 0 C5.96422446 0.87548249 9.85988679 5.98477709 14 10 C14.72058594 10.69480469 15.44117188 11.38960937 16.18359375 12.10546875 C26.4499005 22.77202138 33.10533878 38.46622016 33.375 53.25 C33.19319269 58.73452046 32.62435477 63.76075166 31 69 C30.65001953 70.20269531 30.65001953 70.20269531 30.29296875 71.4296875 C25.83762974 85.14155276 17.76193476 97.57197374 8.31738281 108.36938477 C6.93793955 109.98408709 6.93793955 109.98408709 5.90917969 111.94116211 C4.43910838 114.27565185 3.35372399 115.52532364 1 117 C-4.48269041 117.87185218 -9.84483668 117.66007438 -15.375 117.4375 C-16.88925114 117.40235642 -18.40358038 117.37042271 -19.91796875 117.34179688 C-23.61361173 117.26497324 -27.30630774 117.14435921 -31 117 C-28.36922463 114.34999683 -25.70211057 111.81512966 -22.875 109.375 C-20.85078394 107.62577178 -18.89231946 105.89231946 -17 104 C-16.01 104 -15.02 104 -14 104 C-13.773125 103.46375 -13.54625 102.9275 -13.3125 102.375 C-10.43568616 97.16933685 -6.16922473 93.16922473 -2 89 C2.19469876 84.59291143 4.73301519 80.71674431 7 75 C8.92621229 71.31792073 10.95755897 67.68861167 13.140625 64.15234375 C18.3083769 55.68725762 18.26849999 47.63657612 18.125 38 C18.11597656 36.84371094 18.10695312 35.68742187 18.09765625 34.49609375 C18.07424922 31.66384353 18.04145995 28.83203381 18 26 C17.34 26 16.68 26 16 26 C15.505 23.03 15.505 23.03 15 20 C14.34 20 13.68 20 13 20 C12.71125 18.906875 12.4225 17.81375 12.125 16.6875 C10.11590878 11.16497341 6.07482293 7.37538808 2.08203125 3.22265625 C0 1 0 1 0 0 Z " fill="#453FE1" transform="translate(197,177)"/>
<path d="M0 0 C15.51 0 31.02 0 47 0 C47 3.96 47 7.92 47 12 C41.06 12 35.12 12 29 12 C29 37.08 29 62.16 29 88 C25.37 88 21.74 88 18 88 C18 62.92 18 37.84 18 12 C12.06 12 6.12 12 0 12 C0 8.04 0 4.08 0 0 Z " fill="#252525" transform="translate(632,99)"/>
<path d="M0 0 C14.36461391 2.33424976 26.65248871 15.00168008 35.15625 26.171875 C40.88008136 34.95165022 45.75956468 44.72431922 48 55 C48.20238281 55.84820312 48.40476562 56.69640625 48.61328125 57.5703125 C51.51383593 71.73764762 51.93293227 88.54103327 46 102 C43.28148708 104.66858105 42.26499628 104.97258659 38.375 105.375 C37.26125 105.25125 36.1475 105.1275 35 105 C32.4915585 101.23733775 32.70678382 99.47612826 33 95 C33.4484092 93.0282006 33.90071197 91.05633561 34.42382812 89.10302734 C39.81853725 68.82715025 38.51688632 47.7941507 28.26879883 29.30444336 C21.79001004 18.24909829 13.24075051 8.9171329 2.171875 2.3125 C1.45515625 1.879375 0.7384375 1.44625 0 1 C0 0.67 0 0.34 0 0 Z " fill="#718ADC" transform="translate(216,179)"/>
<path d="M0 0 C2.32416325 1.60858118 4.12184939 3.06694703 6.125 5 C23.28035291 20.44679134 42.90728346 27.24953482 65.95166016 26.13916016 C78.78900916 25.26701606 88.81593278 21.18274139 100 15 C101.32907374 14.32488133 102.65996753 13.65309663 104 13 C100.78036274 20.92792401 90.52691758 25.12087574 83.2265625 28.6484375 C62.28797621 37.41932232 40.01675075 37.22863797 19 29 C8.68165982 24.47671238 -3.25715898 18.40107643 -10 9 C-10.64986657 5.62069382 -10.62210201 4.09782708 -8.9375 1.125 C-5.84886211 -0.66840265 -3.5141006 -0.35761356 0 0 Z " fill="#758CDF" transform="translate(19,250)"/>
<path d="M0 0 C2.0625 2.3125 2.0625 2.3125 2.75 4.8125 C1.91030614 7.8659322 0.61353296 8.62613914 -1.99584961 10.27734375 C-5.83353893 12.32333931 -9.96816549 13.62548818 -14.0625 15.0625 C-22.6240299 18.21519818 -29.78828295 21.54132044 -36.9375 27.3125 C-37.95070313 28.12332031 -38.96390625 28.93414062 -40.0078125 29.76953125 C-53.1806586 40.8120201 -63.2456143 57.25191672 -65.18823242 74.54443359 C-65.35068781 76.8003537 -65.46850635 79.05273588 -65.5625 81.3125 C-65.60117188 82.08722656 -65.63984375 82.86195313 -65.6796875 83.66015625 C-65.77271357 85.54393415 -65.85613175 87.42818256 -65.9375 89.3125 C-66.9275 89.3125 -67.9175 89.3125 -68.9375 89.3125 C-68.96636537 85.00001391 -68.98425255 80.68755238 -69 76.375 C-69.00837891 75.14330078 -69.01675781 73.91160156 -69.02539062 72.64257812 C-69.02861328 71.47275391 -69.03183594 70.30292969 -69.03515625 69.09765625 C-69.04039307 68.01363525 -69.04562988 66.92961426 -69.05102539 65.81274414 C-68.9375 63.3125 -68.9375 63.3125 -67.9375 62.3125 C-67.66229733 60.85871198 -67.41802652 59.39903811 -67.1875 57.9375 C-63.09393669 36.80748937 -47.47932912 19.91788156 -30.375 8.0625 C-9.45719612 -5.43285734 -9.45719612 -5.43285734 0 0 Z " fill="#7187DD" transform="translate(149.9375,53.6875)"/>
<path d="M0 0 C3.63 0 7.26 0 11 0 C11 29.04 11 58.08 11 88 C7.37 88 3.74 88 0 88 C0 58.96 0 29.92 0 0 Z " fill="#252525" transform="translate(482,99)"/>
<path d="M0 0 C3.63 0 7.26 0 11 0 C11 29.04 11 58.08 11 88 C7.37 88 3.74 88 0 88 C0 58.96 0 29.92 0 0 Z " fill="#242424" transform="translate(332,99)"/>
<path d="M0 0 C3.63 0 7.26 0 11 0 C11.36351562 1.10794922 11.36351562 1.10794922 11.734375 2.23828125 C13.78713316 8.45182228 15.93143591 14.60887636 18.265625 20.72265625 C19 23 19 23 19 26 C19.66 26 20.32 26 21 26 C21.309375 24.2984375 21.309375 24.2984375 21.625 22.5625 C23.31648767 14.82643138 26.28945991 7.42415226 29 0 C32.63 0 36.26 0 40 0 C40 1.32 40 2.64 40 4 C39.01 4 38.02 4 37 4 C37 13.9 37 23.8 37 34 C37.99 34 38.98 34 40 34 C40 35.32 40 36.64 40 38 C36.04 38 32.08 38 28 38 C28 36.68 28 35.36 28 34 C29.32 34 30.64 34 32 34 C31.505 22.12 31.505 22.12 31 10 C30.48050781 11.64871094 29.96101562 13.29742187 29.42578125 14.99609375 C28.72245299 17.14358936 28.01796576 19.29070563 27.3125 21.4375 C26.97283203 22.52611328 26.63316406 23.61472656 26.28320312 24.73632812 C25.93837891 25.77080078 25.59355469 26.80527344 25.23828125 27.87109375 C24.774823 29.30859985 24.774823 29.30859985 24.30200195 30.77514648 C23 33 23 33 20.36010742 33.82055664 C19.58127197 33.87977295 18.80243652 33.93898926 18 34 C14.73578095 26.08563649 11.84865362 18.07118524 9 10 C8.67 17.92 8.34 25.84 8 34 C9.32 34 10.64 34 12 34 C12 35.32 12 36.64 12 38 C8.04 38 4.08 38 0 38 C0 36.68 0 35.36 0 34 C0.99 34 1.98 34 3 34 C3 24.1 3 14.2 3 4 C2.01 4 1.02 4 0 4 C0 2.68 0 1.36 0 0 Z " fill="#777777" transform="translate(620,235)"/>
<path d="M0 0 C3.39537852 -0.14575327 6.78994902 -0.23421542 10.1875 -0.3125 C11.14720703 -0.35439453 12.10691406 -0.39628906 13.09570312 -0.43945312 C17.74029359 -0.51980936 20.2222934 -0.53007862 24.140625 2.140625 C26.27589438 5.42427455 26.64605112 7.17491549 26.5625 11.0625 C26.56378906 12.08472656 26.56507813 13.10695312 26.56640625 14.16015625 C25.876986 17.61676677 24.53877314 18.65846222 22 21 C22.09874151 25.5421093 23.66560026 29.13926197 26 33 C27.485 33.495 27.485 33.495 29 34 C29 35.32 29 36.64 29 38 C25.7 38 22.4 38 19 38 C19.2475 37.360625 19.495 36.72125 19.75 36.0625 C20.0805905 32.01276632 18.68578799 29.56964017 16.91015625 25.98828125 C16 24 16 24 16 22 C13.36 22 10.72 22 8 22 C8 25.96 8 29.92 8 34 C8.99 34 9.98 34 11 34 C11 35.32 11 36.64 11 38 C7.37 38 3.74 38 0 38 C0 36.68 0 35.36 0 34 C0.99 34 1.98 34 3 34 C3 24.1 3 14.2 3 4 C2.01 4 1.02 4 0 4 C0 2.68 0 1.36 0 0 Z " fill="#757575" transform="translate(565,235)"/>
<path d="M0 0 C4.62 0 9.24 0 14 0 C14 1.32 14 2.64 14 4 C13.34 4 12.68 4 12 4 C12.40992188 5.24394531 12.81984375 6.48789063 13.2421875 7.76953125 C16.06075853 16.43502681 18.81757275 24.92792883 20 34 C20.99 34 21.98 34 23 34 C23 35.32 23 36.64 23 38 C19.37 38 15.74 38 12 38 C12 36.68 12 35.36 12 34 C13.32 34 14.64 34 16 34 C15.67 33.236875 15.34 32.47375 15 31.6875 C14 29 14 29 14 26 C9.38 26 4.76 26 0 26 C-0.33 28.31 -0.66 30.62 -1 33 C-0.01 33.33 0.98 33.66 2 34 C2 35.32 2 36.64 2 38 C-1.63 38 -5.26 38 -9 38 C-9 36.68 -9 35.36 -9 34 C-8.01 34 -7.02 34 -6 34 C-5.90847656 33.09121094 -5.81695312 32.18242187 -5.72265625 31.24609375 C-4.92882137 25.68924956 -3.11202536 20.4044017 -1.4375 15.0625 C-0.9434668 13.46438477 -0.9434668 13.46438477 -0.43945312 11.83398438 C0.369 9.22115762 1.18226535 6.60993378 2 4 C1.34 4 0.68 4 0 4 C0 2.68 0 1.36 0 0 Z " fill="#757575" transform="translate(383,235)"/>
<path d="M0 0 C1.96453125 0.03287109 1.96453125 0.03287109 3.96875 0.06640625 C5.2784375 0.06511719 6.588125 0.06382812 7.9375 0.0625 C11.46875 0.62890625 11.46875 0.62890625 13.921875 2.3984375 C16.37884376 5.94118791 15.74999282 8.41026401 15.46875 12.62890625 C14.14875 12.62890625 12.82875 12.62890625 11.46875 12.62890625 C11.159375 11.65953125 10.85 10.69015625 10.53125 9.69140625 C9.77351658 6.78824833 9.77351658 6.78824833 8.46875 5.62890625 C6.97136876 5.53100055 5.46932108 5.49915761 3.96875 5.50390625 C3.1540625 5.50132812 2.339375 5.49875 1.5 5.49609375 C-0.52655377 5.40438845 -0.52655377 5.40438845 -1.53125 6.62890625 C-1.63096786 8.54348907 -1.66205589 10.46172942 -1.6640625 12.37890625 C-1.66535156 13.54421875 -1.66664063 14.70953125 -1.66796875 15.91015625 C-1.66410156 17.13734375 -1.66023437 18.36453125 -1.65625 19.62890625 C-1.66011719 20.85609375 -1.66398438 22.08328125 -1.66796875 23.34765625 C-1.66667969 24.51296875 -1.66539062 25.67828125 -1.6640625 26.87890625 C-1.66293457 27.9565625 -1.66180664 29.03421875 -1.66064453 30.14453125 C-1.81217371 32.57110622 -1.81217371 32.57110622 -0.53125 33.62890625 C1.53647734 33.82832493 1.53647734 33.82832493 3.90625 33.81640625 C4.70933594 33.83058594 5.51242187 33.84476562 6.33984375 33.859375 C8.68505633 33.83052981 8.68505633 33.83052981 10.46875 31.62890625 C11.11642793 29.05829314 11.11642793 29.05829314 11.46875 26.62890625 C12.78875 26.62890625 14.10875 26.62890625 15.46875 26.62890625 C15.77379777 30.51826529 15.88665806 32.91588286 13.88671875 36.328125 C10.69113194 39.36883684 8.88737252 39.30039635 4.53125 39.25390625 C2.72333984 39.27324219 2.72333984 39.27324219 0.87890625 39.29296875 C-2.53125 38.62890625 -2.53125 38.62890625 -5.4375 36.96484375 C-8.85513137 31.51958781 -8.21169481 25.9150459 -8.09375 19.62890625 C-8.10470703 18.35789063 -8.11566406 17.086875 -8.12695312 15.77734375 C-8.05333672 6.45259937 -8.05333672 6.45259937 -5.71655273 2.76586914 C-3.53125 0.62890625 -3.53125 0.62890625 0 0 Z " fill="#747474" transform="translate(522.53125,234.37109375)"/>
<path d="M0 0 C4.62 0 9.24 0 14 0 C14 1.32 14 2.64 14 4 C12.35 4 10.7 4 9 4 C9 13.9 9 23.8 9 34 C10.65 34 12.3 34 14 34 C14 35.32 14 36.64 14 38 C9.38 38 4.76 38 0 38 C0 36.68 0 35.36 0 34 C1.65 34 3.3 34 5 34 C5 24.1 5 14.2 5 4 C3.35 4 1.7 4 0 4 C0 2.68 0 1.36 0 0 Z " fill="#727272" transform="translate(429,235)"/>
<path d="M0 0 C1.98235473 2.9735321 2.4542262 4.50172011 3.0703125 7.9296875 C3.24433594 8.89003906 3.41835938 9.85039062 3.59765625 10.83984375 C3.77167969 11.84144531 3.94570313 12.84304687 4.125 13.875 C4.30675781 14.86886719 4.48851562 15.86273438 4.67578125 16.88671875 C5.47902345 21.39816177 6 25.383372 6 30 C2.04 30 -1.92 30 -6 30 C-4.92540638 22.72582781 -3.76765074 15.48131672 -2.4375 8.25 C-2.31076904 7.54681641 -2.18403809 6.84363281 -2.0534668 6.11914062 C-1.11865183 1.11865183 -1.11865183 1.11865183 0 0 Z " fill="#F0F0F0" transform="translate(712,129)"/>
<path d="M0 0 C14.13299329 2.29661141 26.70838122 14.86554049 35 26 C35 26.99 35 27.98 35 29 C32.03 29.495 32.03 29.495 29 30 C28.49210937 29.28714844 27.98421875 28.57429688 27.4609375 27.83984375 C20.15859906 17.67947397 13.12293886 8.83535165 2.19140625 2.328125 C1.46824219 1.88984375 0.74507812 1.4515625 0 1 C0 0.67 0 0.34 0 0 Z " fill="#6F6EE9" transform="translate(216,179)"/>
<path d="M0 0 C1.65 0 3.3 0 5 0 C5 1.65 5 3.3 5 5 C4.41299316 5.10183594 3.82598633 5.20367187 3.22119141 5.30859375 C0.61247553 6.12062753 -0.58193116 7.17159347 -2.5390625 9.0625 C-3.19616211 9.6908374 -3.85326172 10.3191748 -4.53027344 10.96655273 C-5.2215332 11.63759033 -5.91279297 12.30862793 -6.625 13 C-7.34719727 13.67683838 -8.06939453 14.35367676 -8.81347656 15.05102539 C-11.88698874 17.93821192 -14.82205307 20.79257554 -17.5703125 23.99609375 C-21.44260302 28.33333671 -24.23987866 30.15253507 -30.0546875 30.5390625 C-35.05524372 30.64894059 -40.01789885 30.42424005 -45 30 C-45 29.01 -45 28.02 -45 27 C-43.11667969 27.04833984 -43.11667969 27.04833984 -41.1953125 27.09765625 C-30.13361607 27.37650001 -30.13361607 27.37650001 -20.75 22.3125 C-19.15449425 20.55262599 -17.57292791 18.78008228 -16 17 C-13.35435814 14.49570161 -10.64062004 12.06698725 -7.9375 9.625 C-6.6277827 8.4366288 -5.3239458 7.2417298 -4.02734375 6.0390625 C-3.46781006 5.52553223 -2.90827637 5.01200195 -2.33178711 4.48291016 C-0.75288722 2.92302342 -0.75288722 2.92302342 0 0 Z " fill="#8B84FF" transform="translate(170,172)"/>
<path d="M0 0 C8.3984375 -0.1953125 8.3984375 -0.1953125 11 0 C13 2 13 2 13.1953125 4.3828125 C13.17210937 5.28773438 13.14890625 6.19265625 13.125 7.125 C13.10695313 8.03507813 13.08890625 8.94515625 13.0703125 9.8828125 C13.04710937 10.58148438 13.02390625 11.28015625 13 12 C12.34 12 11.68 12 11 12 C11 12.66 11 13.32 11 14 C7.37 14 3.74 14 0 14 C0 9.38 0 4.76 0 0 Z " fill="#F7F7F7" transform="translate(573,239)"/>
<path d="M0 0 C0.66 0.99 1.32 1.98 2 3 C1.23538452 3.75676025 1.23538452 3.75676025 0.45532227 4.52880859 C-1.84488095 6.80827034 -4.14122877 9.09157761 -6.4375 11.375 C-7.23994141 12.1690625 -8.04238281 12.963125 -8.86914062 13.78125 C-9.63291016 14.54179687 -10.39667969 15.30234375 -11.18359375 16.0859375 C-11.89056396 16.7876709 -12.59753418 17.4894043 -13.32592773 18.21240234 C-15.07219984 19.90693091 -15.07219984 19.90693091 -16 22 C-19.65213973 21.67775238 -20.92629337 21.06937094 -23.65625 18.5 C-27.3356166 15.33320175 -30.66210038 15.2258509 -35.375 15.1875 C-36.11105469 15.16236328 -36.84710938 15.13722656 -37.60546875 15.11132812 C-39.40308149 15.05296407 -41.2015935 15.02349462 -43 15 C-43 14.01 -43 13.02 -43 12 C-28.67947764 11.07165881 -28.67947764 11.07165881 -24.51953125 13.37109375 C-22.75 15.0625 -22.75 15.0625 -21.359375 16.78515625 C-20.91078125 17.18605469 -20.4621875 17.58695313 -20 18 C-16.37048231 17.60647232 -14.77058374 16.07549828 -12.36328125 13.4375 C-11.70392578 12.72335938 -11.04457031 12.00921875 -10.36523438 11.2734375 C-9.68783203 10.52320313 -9.01042969 9.77296875 -8.3125 9 C-7.27899414 7.87464844 -7.27899414 7.87464844 -6.22460938 6.7265625 C-4.95495884 5.34330508 -3.68873935 3.95688542 -2.42700195 2.56640625 C-1.63407501 1.69601801 -0.83255896 0.83255896 0 0 Z " fill="#D7D4FF" transform="translate(124,200)"/>
<path d="M0 0 C0.99 0.33 1.98 0.66 3 1 C2.57589844 1.41507813 2.15179688 1.83015625 1.71484375 2.2578125 C-10.20262832 14.77770624 -12.48584062 28.43649131 -14 45 C-14.66 45 -15.32 45 -16 45 C-16 34.11 -16 23.22 -16 12 C-15.67 12 -15.34 12 -15 12 C-14.67 13.65 -14.34 15.3 -14 17 C-13.7525 16.360625 -13.505 15.72125 -13.25 15.0625 C-12.8375 14.381875 -12.425 13.70125 -12 13 C-11.34 12.855625 -10.68 12.71125 -10 12.5625 C-9.01 12.2840625 -9.01 12.2840625 -8 12 C-6.81608777 9.62374655 -6.81608777 9.62374655 -6 7 C-5.34 6.01 -4.68 5.02 -4 4 C-3.34 4 -2.68 4 -2 4 C-2 3.34 -2 2.68 -2 2 C-1.34 2 -0.68 2 0 2 C0 1.34 0 0.68 0 0 Z " fill="#7484EE" transform="translate(106,143)"/>
<path d="M0 0 C3.22172152 1.45770592 5.94683185 1.26522832 9.47265625 1.23632812 C10.15507385 1.23349823 10.83749146 1.23066833 11.54058838 1.22775269 C13.71083432 1.21659661 15.88066096 1.19150119 18.05078125 1.16601562 C19.52603569 1.15597988 21.00129662 1.14685507 22.4765625 1.13867188 C26.08477067 1.1166725 29.692735 1.08217445 33.30078125 1.04101562 C33.30078125 1.37101562 33.30078125 1.70101563 33.30078125 2.04101562 C48.15078125 2.53601563 48.15078125 2.53601563 63.30078125 3.04101562 C63.30078125 3.37101562 63.30078125 3.70101563 63.30078125 4.04101562 C38.88078125 4.04101562 14.46078125 4.04101562 -10.69921875 4.04101562 C-10.69921875 3.38101562 -10.69921875 2.72101563 -10.69921875 2.04101562 C-9.28976509 1.48084815 -7.87121565 0.9435306 -6.44921875 0.41601562 C-5.6603125 0.114375 -4.87140625 -0.18726563 -4.05859375 -0.49804688 C-1.69921875 -0.95898438 -1.69921875 -0.95898438 0 0 Z " fill="#6B67E0" transform="translate(133.69921875,290.958984375)"/>
<path d="M0 0 C0 3 0 3 -1.22265625 4.32421875 C-12.9121266 12.98584327 -26.09703108 20.35014318 -41 20 C-40.4225 19.7525 -39.845 19.505 -39.25 19.25 C-36.89539018 18.11606398 -36.89539018 18.11606398 -35.3125 16 C-32.86039574 13.87926118 -32.06464441 13.6765774 -29 13.15234375 C-23.53428014 12.02680626 -18.73202099 9.90149513 -13.6875 7.5625 C-12.80771484 7.16740234 -11.92792969 6.77230469 -11.02148438 6.36523438 C-7.00611997 4.53286231 -3.47568518 2.7512761 0 0 Z " fill="#7470E0" transform="translate(122,263)"/>
<path d="M0 0 C0.99 0.33 1.98 0.66 3 1 C3.75195312 2.94604492 3.75195312 2.94604492 4.28125 5.48046875 C4.48363281 6.39763672 4.68601562 7.31480469 4.89453125 8.25976562 C5.09433594 9.22591797 5.29414062 10.19207031 5.5 11.1875 C6.77479255 17.22837178 7.9874193 22.54590473 11 28 C11.45075006 29.32220016 11.87053403 30.65560628 12.25 32 C13.83221547 37.03901231 16.23447299 41.58938743 18.75097656 46.21484375 C19.57315706 47.77376075 20.29423334 49.38503982 21 51 C20.67 51.99 20.34 52.98 20 54 C11.75825273 38.08129525 5.49552806 22.365469 1 5 C0.01 5.33 -0.98 5.66 -2 6 C-2.33 7.98 -2.66 9.96 -3 12 C-3.99 12.33 -4.98 12.66 -6 13 C-2.86206897 2.86206897 -2.86206897 2.86206897 0 0 Z " fill="#5756F1" transform="translate(40,169)"/>
<path d="M0 0 C3.08984375 1.96875 3.08984375 1.96875 5.9375 4.5 C6.89527344 5.3353125 7.85304688 6.170625 8.83984375 7.03125 C9.90912109 8.00578125 9.90912109 8.00578125 11 9 C10.01 9.33 9.02 9.66 8 10 C5.8125 8.6875 5.8125 8.6875 4 7 C4 6.34 4 5.68 4 5 C0.21812119 3.16308743 -1.94568308 2.84162374 -6 4 C-6.33 5.32 -6.66 6.64 -7 8 C-5.9171875 8.93972656 -5.9171875 8.93972656 -4.8125 9.8984375 C-3.884375 10.71570313 -2.95625 11.53296875 -2 12.375 C-0.6078125 13.59316406 -0.6078125 13.59316406 0.8125 14.8359375 C1.534375 15.55007813 2.25625 16.26421875 3 17 C3 17.66 3 18.32 3 19 C3.99 19.33 4.98 19.66 6 20 C5.34 20.33 4.68 20.66 4 21 C-9.60013671 11.265892 -9.60013671 11.265892 -10.5625 5.8125 C-10 3 -10 3 -8.9375 1.125 C-5.86965878 -0.65632716 -3.4901348 -0.32720014 0 0 Z " fill="#87A1C5" transform="translate(19,250)"/>
<path d="M0 0 C0.66 0 1.32 0 2 0 C2.67184618 2.10251861 3.33730968 4.20707763 4 6.3125 C4.37125 7.48425781 4.7425 8.65601563 5.125 9.86328125 C6 13 6 13 6 16 C2.7 16 -0.6 16 -4 16 C-2.68 10.72 -1.36 5.44 0 0 Z " fill="#F3F3F3" transform="translate(389,241)"/>
<path d="M0 0 C0.33 0 0.66 0 1 0 C1 1.65 1 3.3 1 5 C1.66 5 2.32 5 3 5 C3.61325967 25.64640884 3.61325967 25.64640884 0 34 C-0.66 34.66 -1.32 35.32 -2 36 C-2.69748583 37.31747324 -3.36959957 38.64914193 -4 40 C-4.66 40 -5.32 40 -6 40 C-4.99601985 37.4855272 -3.98973123 34.97586465 -2.9296875 32.484375 C1.00522898 22.28273969 1.16538303 11.66501734 -1 1 C-0.67 0.67 -0.34 0.34 0 0 Z " fill="#7E88D6" transform="translate(202,192)"/>
<path d="M0 0 C43.37472342 -1.0508226 43.37472342 -1.0508226 58 7 C53.9254028 8.64874165 50.29259336 7.29583182 46.25 6.1875 C45.57195312 6.00896484 44.89390625 5.83042969 44.1953125 5.64648438 C43.51726562 5.46794922 42.83921875 5.28941406 42.140625 5.10546875 C41.44582031 4.92338867 40.75101563 4.74130859 40.03515625 4.55371094 C38.1628257 4.04430047 36.30678146 3.47599735 34.453125 2.90234375 C27.9648895 1.29143305 21.15071046 1.52494556 14.5 1.375 C13.09112362 1.33674703 11.6822688 1.29769125 10.2734375 1.2578125 C6.84908673 1.16399467 3.42473492 1.07829784 0 1 C0 0.67 0 0.34 0 0 Z " fill="#9A9CE2" transform="translate(129,133)"/>
<path d="M0 0 C0.33 0 0.66 0 1 0 C0.98839844 0.89203125 0.97679688 1.7840625 0.96484375 2.703125 C0.95582031 3.87359375 0.94679688 5.0440625 0.9375 6.25 C0.92589844 7.41015625 0.91429688 8.5703125 0.90234375 9.765625 C0.87243178 12.81374303 0.87243178 12.81374303 1.51367188 14.9453125 C2.03218976 17.1359985 2.0316452 18.86920379 1.87890625 21.109375 C1.83056641 21.86347656 1.78222656 22.61757812 1.73242188 23.39453125 C1.64831055 24.56048828 1.64831055 24.56048828 1.5625 25.75 C1.51029297 26.54277344 1.45808594 27.33554688 1.40429688 28.15234375 C1.27510676 30.10193997 1.13830035 32.05102886 1 34 C0.01 34 -0.98 34 -2 34 C-2.02886537 29.68751391 -2.04675255 25.37505238 -2.0625 21.0625 C-2.07087891 19.83080078 -2.07925781 18.59910156 -2.08789062 17.33007812 C-2.09111328 16.16025391 -2.09433594 14.99042969 -2.09765625 13.78515625 C-2.10289307 12.70113525 -2.10812988 11.61711426 -2.11352539 10.50024414 C-2 8 -2 8 -1 7 C-0.63239269 4.67182036 -0.29758419 2.3381615 0 0 Z " fill="#8380CD" transform="translate(83,109)"/>
<path d="M0 0 C0.75925781 0.34933594 1.51851563 0.69867188 2.30078125 1.05859375 C3.29464844 1.51363281 4.28851563 1.96867188 5.3125 2.4375 C6.79169922 3.11619141 6.79169922 3.11619141 8.30078125 3.80859375 C13.61117435 6.15254439 17.97386744 6.21699707 23.6875 6.25 C24.99750977 6.2809375 24.99750977 6.2809375 26.33398438 6.3125 C32.2879397 6.34807255 36.53606839 5.35545453 42 3 C43.65672637 2.62033354 45.32070245 2.26239024 47 2 C40.53596952 8.82314328 40.53596952 8.82314328 35.37792969 9.18286133 C32.16763399 9.07335917 28.95890147 8.95802423 25.75 8.8125 C24.64269531 8.78091797 23.53539062 8.74933594 22.39453125 8.71679688 C14.00540003 8.37265297 6.97794389 7.01539717 0 2 C0 1.34 0 0.68 0 0 Z " fill="#8693E7" transform="translate(97,238)"/>
<path d="M0 0 C0.33 0 0.66 0 1 0 C4.39527166 15.60208168 6.89654633 32.69705834 1 48 C0.21349108 45.64047323 -0.04043366 44.19723634 0.46435547 41.73486328 C1.05144832 38.73731811 1.12951347 35.98317937 1.1328125 32.9296875 C1.13410156 31.78628906 1.13539063 30.64289063 1.13671875 29.46484375 C1.13285156 28.28019531 1.12898438 27.09554688 1.125 25.875 C1.12886719 24.68261719 1.13273437 23.49023438 1.13671875 22.26171875 C1.13542969 21.12089844 1.13414062 19.98007813 1.1328125 18.8046875 C1.13168457 17.76296387 1.13055664 16.72124023 1.12939453 15.64794922 C1.11400179 12.89275897 1.11400179 12.89275897 0 10 C-0.06802967 8.27204648 -0.08495645 6.54164635 -0.0625 4.8125 C-0.05347656 3.91144531 -0.04445313 3.01039063 -0.03515625 2.08203125 C-0.02355469 1.39496094 -0.01195312 0.70789063 0 0 Z " fill="#8A9BC5" transform="translate(262,229)"/>
<path d="M0 0 C3.91026371 0.63460127 6.57415445 2.53844694 9.8125 4.75 C10.86566406 5.46671875 11.91882813 6.1834375 13.00390625 6.921875 C16.36027887 9.24989356 19.69656242 11.59749994 23 14 C22.360625 14.103125 21.72125 14.20625 21.0625 14.3125 C20.381875 14.539375 19.70125 14.76625 19 15 C18.67 15.99 18.34 16.98 18 18 C17.53851563 17.43152344 17.07703125 16.86304688 16.6015625 16.27734375 C12.16696386 11.02769042 7.70439435 7.10385363 1.90625 3.41015625 C1.2771875 2.94480469 0.648125 2.47945312 0 2 C0 1.34 0 0.68 0 0 Z " fill="#6F7ADB" transform="translate(176,162)"/>
<path d="M0 0 C0.66 0.99 1.32 1.98 2 3 C1.23538452 3.75676025 1.23538452 3.75676025 0.45532227 4.52880859 C-1.84488095 6.80827034 -4.14122877 9.09157761 -6.4375 11.375 C-7.23994141 12.1690625 -8.04238281 12.963125 -8.86914062 13.78125 C-9.63291016 14.54179687 -10.39667969 15.30234375 -11.18359375 16.0859375 C-11.89056396 16.7876709 -12.59753418 17.4894043 -13.32592773 18.21240234 C-15.07219984 19.90693091 -15.07219984 19.90693091 -16 22 C-16.99 22 -17.98 22 -19 22 C-19 21.34 -19 20.68 -19 20 C-18.34 20 -17.68 20 -17 20 C-16.73646729 19.41500732 -16.47293457 18.83001465 -16.20141602 18.22729492 C-14.94839959 15.90433844 -13.58920941 14.27508011 -11.77734375 12.36328125 C-11.15666016 11.70392578 -10.53597656 11.04457031 -9.89648438 10.36523438 C-9.25001953 9.68783203 -8.60355469 9.01042969 -7.9375 8.3125 C-7.28716797 7.62349609 -6.63683594 6.93449219 -5.96679688 6.22460938 C-1.54255022 1.54255022 -1.54255022 1.54255022 0 0 Z " fill="#B1ACFF" transform="translate(124,200)"/>
<path d="M0 0 C2.09193152 7.70977988 0.61447535 14.12243925 -1.265625 21.72265625 C-2.25240363 26.12641832 -2.70560581 30.5028749 -3 35 C-3.33 35 -3.66 35 -4 35 C-4.46127001 22.60602965 -4.4248073 11.75339438 0 0 Z " fill="#5A59D1" transform="translate(95,135)"/>
<path d="M0 0 C3.23170416 1.8565109 4.69093004 2.87610924 5.6875 6.5 C4.87576199 9.45177457 3.74100056 10.47603832 1.1328125 12.01953125 C-3.41732288 14.11126015 -8.21600053 15.5446733 -13 17 C-13.33 16.34 -13.66 15.68 -14 15 C-9.05 13.02 -4.1 11.04 1 9 C1 7.02 1 5.04 1 3 C-1.75078884 2.08307039 -3.35948913 1.89113917 -6.1875 1.9375 C-7.445625 1.958125 -8.70375 1.97875 -10 2 C-6.2626144 -0.4915904 -4.42668417 -0.45793285 0 0 Z " fill="#88A2C6" transform="translate(147,52)"/>
<path d="M0 0 C4.53141426 6.79712139 3.73437724 15.82150483 2.62109375 23.671875 C2.15283088 25.81039834 1.61446366 27.89919858 1 30 C0.80921875 30.69351563 0.6184375 31.38703125 0.421875 32.1015625 C-0.03485807 33.73927678 -0.51462993 35.37054333 -1 37 C-1.33 37 -1.66 37 -2 37 C-1 28 -1 28 -0.74389648 26.02905273 C-0.03370364 20.30780972 0.12060038 14.69837577 0.0625 8.9375 C0.05798828 8.07189453 0.05347656 7.20628906 0.04882812 6.31445312 C0.03719913 4.20960461 0.01927073 2.10479242 0 0 Z " fill="#645FC6" transform="translate(227,216)"/>
<path d="M0 0 C0.33 0 0.66 0 1 0 C1.33 4.62 1.66 9.24 2 14 C2.66 13.34 3.32 12.68 4 12 C3.34 18.93 2.68 25.86 2 33 C1.34 33 0.68 33 0 33 C0 22.11 0 11.22 0 0 Z " fill="#777AB5" transform="translate(90,155)"/>
<path d="M0 0 C4.95 0 9.9 0 15 0 C15 1.32 15 2.64 15 4 C10.05 4 5.1 4 0 4 C0 2.68 0 1.36 0 0 Z " fill="#6D6D6D" transform="translate(471,252)"/>
<path d="M0 0 C1.65 0 3.3 0 5 0 C5 1.65 5 3.3 5 5 C4.17242187 5.10634766 4.17242187 5.10634766 3.328125 5.21484375 C0.09280325 6.30595058 -1.76642713 8.24232008 -4.25 10.5625 C-5.14203125 11.38878906 -6.0340625 12.21507812 -6.953125 13.06640625 C-7.62859375 13.70449219 -8.3040625 14.34257812 -9 15 C-9.33 14.01 -9.66 13.02 -10 12 C-9.04287109 11.07767578 -9.04287109 11.07767578 -8.06640625 10.13671875 C-6.82697266 8.92435547 -6.82697266 8.92435547 -5.5625 7.6875 C-4.73878906 6.88699219 -3.91507813 6.08648437 -3.06640625 5.26171875 C-0.80596523 3.09529192 -0.80596523 3.09529192 0 0 Z " fill="#564BFF" transform="translate(170,172)"/>
<path d="M0 0 C0.33 0 0.66 0 1 0 C1.02694851 1.95825873 1.04637218 3.91662226 1.0625 5.875 C1.07410156 6.96554687 1.08570313 8.05609375 1.09765625 9.1796875 C1 12 1 12 0 14 C-0.0689472 15.37342831 -0.08467708 16.75002102 -0.0625 18.125 C-0.041875 19.40375 -0.02125 20.6825 0 22 C3.96 21.505 3.96 21.505 8 21 C6 23 6 23 2.5 23.3125 C1.345 23.209375 0.19 23.10625 -1 23 C-3.39778812 19.40331782 -3.48210066 17.1432709 -3 13 C-2.11897716 8.63562676 -1.09046084 4.31640748 0 0 Z " fill="#86A0C1" transform="translate(252,261)"/>
<path d="M0 0 C-1 3 -1 3 -3.328125 4.421875 C-4.77445313 5.07929688 -4.77445313 5.07929688 -6.25 5.75 C-7.68085937 6.42289063 -7.68085937 6.42289063 -9.140625 7.109375 C-12.26389594 8.0821971 -13.90527415 7.92615883 -17 7 C-17.33 6.01 -17.66 5.02 -18 4 C-15.36 4 -12.72 4 -10 4 C-10 3.34 -10 2.68 -10 2 C-8.7090864 1.66376204 -7.41723903 1.33110751 -6.125 1 C-5.40570313 0.814375 -4.68640625 0.62875 -3.9453125 0.4375 C-2 0 -2 0 0 0 Z " fill="#4F4DD5" transform="translate(131,248)"/>
<path d="M0 0 C0.99 0 1.98 0 3 0 C5.68949387 10.24569094 6.36886082 19.48063576 6 30 C5.67 30 5.34 30 5 30 C4.83564453 28.51113281 4.83564453 28.51113281 4.66796875 26.9921875 C3.61504477 17.84420281 2.10343225 8.97464426 0 0 Z " fill="#6E7AD1" transform="translate(250,220)"/>
<path d="M0 0 C0 0.66 0 1.32 0 2 C12.54 2 25.08 2 38 2 C38 2.33 38 2.66 38 3 C24.14 3 10.28 3 -4 3 C-4 2.34 -4 1.68 -4 1 C-2 0 -2 0 0 0 Z " fill="#A09EDC" transform="translate(127,292)"/>
<path d="M0 0 C-7.25006015 5.23615455 -14.96895405 9.13870053 -23 13 C-22 10 -22 10 -20.328125 8.97265625 C-19.64234375 8.67230469 -18.9565625 8.37195313 -18.25 8.0625 C-14.72668074 6.41995614 -12.01939162 4.4631879 -9 2 C-3.52554745 -1.17518248 -3.52554745 -1.17518248 0 0 Z " fill="#6369C7" transform="translate(154,237)"/>
<path d="M0 0 C0 0.99 0 1.98 0 3 C-3.99648414 6.89505053 -8.93991322 9.72296095 -14 12 C-14 11.34 -14 10.68 -14 10 C-14.99 9.67 -15.98 9.34 -17 9 C-15.85660156 8.43410156 -14.71320313 7.86820312 -13.53515625 7.28515625 C-12.04421862 6.54437592 -10.55333604 5.80348478 -9.0625 5.0625 C-8.30775391 4.68931641 -7.55300781 4.31613281 -6.77539062 3.93164062 C-6.05673828 3.57392578 -5.33808594 3.21621094 -4.59765625 2.84765625 C-3.93258057 2.51773682 -3.26750488 2.18781738 -2.58227539 1.84790039 C-1.00380637 1.10022992 -1.00380637 1.10022992 0 0 Z " fill="#837ED2" transform="translate(122,263)"/>
<path d="M0 0 C0.66 0 1.32 0 2 0 C2.33 8.25 2.66 16.5 3 25 C0.93636319 20.87272638 0.57832417 17.73160349 0.375 13.25 C0.33632813 12.55261719 0.29765625 11.85523438 0.2578125 11.13671875 C0.16401376 9.42489182 0.08093826 7.71248318 0 6 C-0.33 6.66 -0.66 7.32 -1 8 C-1.66 8 -2.32 8 -3 8 C-1.125 2.25 -1.125 2.25 0 0 Z " fill="#6863D0" transform="translate(58,131)"/>
<path d="M0 0 C4.14298667 0.59834725 7.18194377 2.00664285 10.8125 4.0625 C11.78832031 4.61035156 12.76414063 5.15820312 13.76953125 5.72265625 C14.50558594 6.14417969 15.24164063 6.56570312 16 7 C15.01 7.495 15.01 7.495 14 8 C13.67 8.99 13.34 9.98 13 11 C12.48050781 10.52949219 11.96101562 10.05898437 11.42578125 9.57421875 C7.76822319 6.30878337 4.2921774 3.41434979 0 1 C0 0.67 0 0.34 0 0 Z " fill="#7D76B9" transform="translate(216,179)"/>
<path d="M0 0 C0 0.66 0 1.32 0 2 C-1.98 2 -3.96 2 -6 2 C-6.33 2.99 -6.66 3.98 -7 5 C-10.3 5.33 -13.6 5.66 -17 6 C-15.68 5.34 -14.36 4.68 -13 4 C-12.443125 3.29875 -11.88625 2.5975 -11.3125 1.875 C-7.8084341 -0.96613451 -4.34648526 -0.33434502 0 0 Z " fill="#6566F2" transform="translate(98,277)"/>
<path d="M0 0 C0 0.66 0 1.32 0 2 C-1.49104489 3.19283591 -2.98244298 4.38523631 -4.4765625 5.57421875 C-6.73804295 7.6907325 -7.74870717 10.19948749 -9 13 C-10.5625 15.375 -10.5625 15.375 -12 17 C-12.66 17 -13.32 17 -14 17 C-12.67288846 13.26295953 -11.03431904 10.46876061 -8.5625 7.375 C-7.96566406 6.61960937 -7.36882812 5.86421875 -6.75390625 5.0859375 C-2.47752809 0 -2.47752809 0 0 0 Z " fill="#5D57CB" transform="translate(114,110)"/>
<path d="M0 0 C0.80244141 0.04833984 1.60488281 0.09667969 2.43164062 0.14648438 C3.68170898 0.2305957 3.68170898 0.2305957 4.95703125 0.31640625 C6.22450195 0.3947168 6.22450195 0.3947168 7.51757812 0.47460938 C9.60189424 0.60414314 11.68576307 0.74083802 13.76953125 0.87890625 C13.43953125 1.53890625 13.10953125 2.19890625 12.76953125 2.87890625 C9.81095716 2.93269851 6.85335404 2.97247718 3.89453125 3.00390625 C2.63189453 3.02904297 2.63189453 3.02904297 1.34375 3.0546875 C0.53808594 3.06113281 -0.26757812 3.06757813 -1.09765625 3.07421875 C-1.84128418 3.08469238 -2.58491211 3.09516602 -3.35107422 3.10595703 C-5.23046875 2.87890625 -5.23046875 2.87890625 -7.23046875 0.87890625 C-4.35516794 -0.07952735 -2.93996944 -0.18765762 0 0 Z " fill="#8387D7" transform="translate(66.23046875,282.12109375)"/>
<path d="M0 0 C3.82990706 0.64743667 6.5283898 2.45311237 9.75 4.5625 C11.22726563 5.52349609 11.22726563 5.52349609 12.734375 6.50390625 C13.85585937 7.24447266 13.85585937 7.24447266 15 8 C13.02 8.99 13.02 8.99 11 10 C9.16106176 8.71632558 7.32897375 7.42283239 5.5 6.125 C4.4790625 5.40570313 3.458125 4.68640625 2.40625 3.9453125 C1.6121875 3.30335938 0.818125 2.66140625 0 2 C0 1.34 0 0.68 0 0 Z " fill="#7E83BC" transform="translate(176,162)"/>
<path d="M0 0 C2.14450446 3.8460127 3.37479564 7.94379352 4.6875 12.125 C4.92533203 12.85332031 5.16316406 13.58164063 5.40820312 14.33203125 C7.11930449 19.76139101 7.11930449 19.76139101 6 22 C1.62034917 14.69519493 0.16052627 8.49329886 0 0 Z " fill="#8585DD" transform="translate(64,175)"/>
<path d="M0 0 C4.3708194 0.35439076 6.10866835 1.81953518 9 5 C9.99 5.66 10.98 6.32 12 7 C11.34 7 10.68 7 10 7 C9.67 7.66 9.34 8.32 9 9 C8.52949219 8.59007812 8.05898437 8.18015625 7.57421875 7.7578125 C6.95160156 7.21898437 6.32898438 6.68015625 5.6875 6.125 C5.07261719 5.59132812 4.45773438 5.05765625 3.82421875 4.5078125 C1.86501788 2.8359553 1.86501788 2.8359553 -1 1 C-0.67 0.67 -0.34 0.34 0 0 Z " fill="#C4C1FF" transform="translate(95,213)"/>
<path d="M0 0 C3.35595828 0.59927826 5.37801226 1.84622436 8 4 C7.67 5.32 7.34 6.64 7 8 C4.37098712 6.47793991 2.15634036 5.15634036 0 3 C0 2.01 0 1.02 0 0 Z " fill="#6A64DE" transform="translate(230,187)"/>
<path d="M0 0 C1.32 1.32 2.64 2.64 4 4 C3.34 4 2.68 4 2 4 C2.33 5.65 2.66 7.3 3 9 C3.66 9 4.32 9 5 9 C4.67 10.32 4.34 11.64 4 13 C1.69 9.7 -0.62 6.4 -3 3 C-2.01 2.01 -1.02 1.02 0 0 Z " fill="#716ED8" transform="translate(238,192)"/>
<path d="M0 0 C0.671875 1.796875 0.671875 1.796875 1 4 C-0.109375 5.703125 -0.109375 5.703125 -1.75 7.25 C-2.54664063 8.03117188 -2.54664063 8.03117188 -3.359375 8.828125 C-5 10 -5 10 -8 10 C-6.34908222 5.70761377 -3.26245434 3.1206085 0 0 Z " fill="#6E64FF" transform="translate(159,184)"/>
<path d="M0 0 C0.99 0.33 1.98 0.66 3 1 C2.54109375 1.51949219 2.0821875 2.03898438 1.609375 2.57421875 C-1.68382608 6.31712166 -4.92952189 10.06978801 -8 14 C-7.43697042 10.05879291 -6.3208055 7.2491277 -4 4 C-3.34 4 -2.68 4 -2 4 C-2 3.34 -2 2.68 -2 2 C-1.34 2 -0.68 2 0 2 C0 1.34 0 0.68 0 0 Z " fill="#828FE2" transform="translate(106,143)"/>
<path d="M0 0 C2.31 0 4.62 0 7 0 C7 0.66 7 1.32 7 2 C11.455 2.99 11.455 2.99 16 4 C12 6 12 6 8.984375 5.1015625 C7.91703125 4.61429688 6.8496875 4.12703125 5.75 3.625 C4.67234375 3.14289063 3.5946875 2.66078125 2.484375 2.1640625 C1.66453125 1.77992188 0.8446875 1.39578125 0 1 C0 0.67 0 0.34 0 0 Z " fill="#7F7EE0" transform="translate(187,141)"/>
<path d="M0 0 C1.40403242 4.21209727 -0.16298908 6.05382839 -2 10 C-2.67276716 11.6642135 -3.34206835 13.32986582 -4 15 C-4.99 15 -5.98 15 -7 15 C-5.63408831 11.45756548 -4.09068516 8.07372071 -2.375 4.6875 C-1.70597656 3.36298828 -1.70597656 3.36298828 -1.0234375 2.01171875 C-0.68570313 1.34785156 -0.34796875 0.68398437 0 0 Z " fill="#7780E2" transform="translate(203,217)"/>
<path d="M0 0 C0.66 0.99 1.32 1.98 2 3 C-0.31 5.31 -2.62 7.62 -5 10 C-5.33 8.68 -5.66 7.36 -6 6 C-4.78515625 4.296875 -4.78515625 4.296875 -3.0625 2.75 C-2.21365234 1.96882812 -2.21365234 1.96882812 -1.34765625 1.171875 C-0.90292969 0.78515625 -0.45820312 0.3984375 0 0 Z " fill="#A49EFF" transform="translate(124,200)"/>
<path d="M0 0 C4.37859255 0.50522222 6.81651224 3.17827222 10 6 C9.01 6.495 9.01 6.495 8 7 C7.67 7.66 7.34 8.32 7 9 C5.83037314 7.69013727 4.66437056 6.3770374 3.5 5.0625 C2.8503125 4.33160156 2.200625 3.60070312 1.53125 2.84765625 C0 1 0 1 0 0 Z " fill="#5657D8" transform="translate(197,177)"/>
<path d="M0 0 C3.18005028 3.88672813 6.10554447 7.89952133 9 12 C8.67 12.66 8.34 13.32 8 14 C5 12 5 12 4.3125 9.375 C4.209375 8.59125 4.10625 7.8075 4 7 C3.34 7 2.68 7 2 7 C2 6.01 2 5.02 2 4 C0.68 3.34 -0.64 2.68 -2 2 C-1.34 2 -0.68 2 0 2 C0 1.34 0 0.68 0 0 Z " fill="#7571D9" transform="translate(206,122)"/>
<path d="M0 0 C0.66 0 1.32 0 2 0 C1.67 1.65 1.34 3.3 1 5 C0.34 5 -0.32 5 -1 5 C-1.33 6.98 -1.66 8.96 -2 11 C-2.99 11.33 -3.98 11.66 -5 12 C-3.68938409 7.76570244 -2.05643741 3.92592596 0 0 Z " fill="#5C59CB" transform="translate(39,170)"/>
<path d="M0 0 C0.66 0.33 1.32 0.66 2 1 C-1.95825209 5.82485166 -5.59160025 9.83410746 -11 13 C-9.46356148 9.31930113 -7.21849055 7.01224796 -4.375 4.25 C-3.55773437 3.45078125 -2.74046875 2.6515625 -1.8984375 1.828125 C-0.95871094 0.92320313 -0.95871094 0.92320313 0 0 Z " fill="#5A62F1" transform="translate(113,124)"/>
<path d="M0 0 C-1 3 -1 3 -2.99609375 4.203125 C-3.80175781 4.54859375 -4.60742188 4.8940625 -5.4375 5.25 C-6.24058594 5.60578125 -7.04367188 5.9615625 -7.87109375 6.328125 C-10 7 -10 7 -12 6 C-10.37829621 4.99466333 -8.75252763 3.99588093 -7.125 3 C-5.76761719 2.1646875 -5.76761719 2.1646875 -4.3828125 1.3125 C-2 0 -2 0 0 0 Z " fill="#807DE2" transform="translate(139,285)"/>
<path d="M0 0 C0.66 0 1.32 0 2 0 C0.59023295 3.03852705 -1.08870228 5.5939595 -3.125 8.25 C-3.66382812 8.95640625 -4.20265625 9.6628125 -4.7578125 10.390625 C-5.16773437 10.92171875 -5.57765625 11.4528125 -6 12 C-6.33 11.01 -6.66 10.02 -7 9 C-6.34 8.01 -5.68 7.02 -5 6 C-4.34 6 -3.68 6 -3 6 C-2.67 4.68 -2.34 3.36 -2 2 C-1.34 2 -0.68 2 0 2 C0 1.34 0 0.68 0 0 Z " fill="#7074D9" transform="translate(101,88)"/>
<path d="M0 0 C1.65 0 3.3 0 5 0 C1.97727468 3.25524265 -1.25718301 5.61820737 -5 8 C-4.67 6.68 -4.34 5.36 -4 4 C-3.34 4 -2.68 4 -2 4 C-2 3.34 -2 2.68 -2 2 C-1.34 2 -0.68 2 0 2 C0 1.34 0 0.68 0 0 Z " fill="#7F8DD1" transform="translate(115,75)"/>
<path d="M0 0 C0.66 0.33 1.32 0.66 2 1 C-0.31 3.64 -2.62 6.28 -5 9 C-6.32 8.67 -7.64 8.34 -9 8 C-6.03 5.36 -3.06 2.72 0 0 Z " fill="#7E8DD7" transform="translate(112,67)"/>
<path d="M0 0 C2.08304538 -0.05418326 4.16649768 -0.09287551 6.25 -0.125 C7.99023438 -0.15980469 7.99023438 -0.15980469 9.765625 -0.1953125 C12.82786046 -0.0103949 14.44202751 0.39176977 17 2 C14.36 2.33 11.72 2.66 9 3 C9 2.34 9 1.68 9 1 C6.03 1 3.06 1 0 1 C0 0.67 0 0.34 0 0 Z " fill="#6E81F4" transform="translate(115,246)"/>
<path d="M0 0 C0.66 0.33 1.32 0.66 2 1 C-2.455 3.97 -2.455 3.97 -7 7 C-7 6.01 -7 5.02 -7 4 C-4.68806023 1.92722641 -2.97064418 0.99021473 0 0 Z " fill="#8290E2" transform="translate(142,240)"/>
<path d="M0 0 C0.33 0 0.66 0 1 0 C1.33872513 1.41538717 1.67074624 2.83237963 2 4.25 C2.185625 5.03890625 2.37125 5.8278125 2.5625 6.640625 C3 9 3 9 3 13 C2.34 13 1.68 13 1 13 C-0.00496852 9.98509443 -0.10335303 7.95818308 -0.0625 4.8125 C-0.05347656 3.91144531 -0.04445313 3.01039063 -0.03515625 2.08203125 C-0.02355469 1.39496094 -0.01195312 0.70789063 0 0 Z " fill="#8790CF" transform="translate(262,229)"/>
<path d="M0 0 C4.75 0.75 4.75 0.75 7 3 C6.34 3 5.68 3 5 3 C4.67 3.99 4.34 4.98 4 6 C2.62437146 4.71034824 1.29233607 3.37310707 0 2 C0 1.34 0 0.68 0 0 Z " fill="#756FCD" transform="translate(225,184)"/>
<path d="M0 0 C5.4611399 0.35233161 5.4611399 0.35233161 8 1 C9.5 3.0625 9.5 3.0625 10 5 C6.08788267 3.84414715 3.1254959 2.64465038 0 0 Z " fill="#7C79DC" transform="translate(215,153)"/>
<path d="M0 0 C2.625 0.375 2.625 0.375 5 1 C4.67 1.66 4.34 2.32 4 3 C1.71484375 3.4140625 1.71484375 3.4140625 -1.0625 3.625 C-1.98160156 3.69976562 -2.90070313 3.77453125 -3.84765625 3.8515625 C-4.55792969 3.90054687 -5.26820312 3.94953125 -6 4 C-5.38125 3.71125 -4.7625 3.4225 -4.125 3.125 C-1.86674235 2.06279958 -1.86674235 2.06279958 0 0 Z " fill="#6867E3" transform="translate(87,279)"/>
<path d="M0 0 C0 0.99 0 1.98 0 3 C-4.22857143 7 -4.22857143 7 -8 7 C-8 6.34 -8 5.68 -8 5 C-6.25 3.7109375 -6.25 3.7109375 -4 2.375 C-3.2575 1.92898438 -2.515 1.48296875 -1.75 1.0234375 C-1.1725 0.68570312 -0.595 0.34796875 0 0 Z " fill="#8782B8" transform="translate(122,263)"/>
<path d="M0 0 C0.66 0.33 1.32 0.66 2 1 C-0.475 5.455 -0.475 5.455 -3 10 C-3.33 10 -3.66 10 -4 10 C-4 8.35 -4 6.7 -4 5 C-3.34 5 -2.68 5 -2 5 C-1.34 3.35 -0.68 1.7 0 0 Z " fill="#524CC9" transform="translate(221,258)"/>
<path d="M0 0 C0.66 0 1.32 0 2 0 C2 0.66 2 1.32 2 2 C2.99 2 3.98 2 5 2 C6.0625 3.8125 6.0625 3.8125 7 6 C6.67 6.99 6.34 7.98 6 9 C4.99712471 7.68969568 3.99777175 6.37669473 3 5.0625 C2.443125 4.33160156 1.88625 3.60070312 1.3125 2.84765625 C0 1 0 1 0 0 Z " fill="#524DC7" transform="translate(42,228)"/>
<path d="M0 0 C2.79872437 2.52788007 4.45773019 4.20411134 5 8 C3.02 7.34 1.04 6.68 -1 6 C-0.34 5.67 0.32 5.34 1 5 C0.67 3.35 0.34 1.7 0 0 Z " fill="#8A86CE" transform="translate(226,153)"/>
<path d="M0 0 C6.52307692 0.61538462 6.52307692 0.61538462 8.9375 2.5625 C9.288125 3.036875 9.63875 3.51125 10 4 C7.36 3.67 4.72 3.34 2 3 C2 2.34 2 1.68 2 1 C1.34 0.67 0.68 0.34 0 0 Z " fill="#7576E0" transform="translate(177,137)"/>
<path d="M0 0 C0.66 0 1.32 0 2 0 C2 0.66 2 1.32 2 2 C0.01739574 3.68732277 -1.9832342 5.35366057 -4 7 C-4.33 7.66 -4.66 8.32 -5 9 C-5.66 8.67 -6.32 8.34 -7 8 C-5.88200014 6.66079162 -4.75538103 5.32877444 -3.625 4 C-2.68527344 2.88625 -2.68527344 2.88625 -1.7265625 1.75 C-1.15679687 1.1725 -0.58703125 0.595 0 0 Z " fill="#6E68CD" transform="translate(112,110)"/>
<path d="M0 0 C0.66 0.33 1.32 0.66 2 1 C-0.475 5.455 -0.475 5.455 -3 10 C-4 6 -4 6 -2.0625 2.75 C-1.381875 1.8425 -0.70125 0.935 0 0 Z " fill="#7071DC" transform="translate(92,101)"/>
<path d="M0 0 C2.62187494 1.04874998 3.79371361 1.64931313 5.25 4.125 C5.4975 4.74375 5.745 5.3625 6 6 C4.02 5.34 2.04 4.68 0 4 C0 2.68 0 1.36 0 0 Z " fill="#6B7BF5" transform="translate(195,177)"/>
<path d="M0 0 C0.6875 1.625 0.6875 1.625 1 4 C-0.4375 7.25 -0.4375 7.25 -2 10 C-2.66 10 -3.32 10 -4 10 C-2.8905928 6.51329166 -1.73662334 3.22515763 0 0 Z " fill="#8581DD" transform="translate(44,159)"/>
<path d="M0 0 C1.27875 -0.061875 2.5575 -0.12375 3.875 -0.1875 C4.95394531 -0.23970703 4.95394531 -0.23970703 6.0546875 -0.29296875 C6.69664063 -0.19628906 7.33859375 -0.09960938 8 0 C8.66 0.99 9.32 1.98 10 3 C3.375 2.25 3.375 2.25 0 0 Z " fill="#7C88D1" transform="translate(44,280)"/>
<path d="M0 0 C0.66 0 1.32 0 2 0 C2.28875 1.134375 2.5775 2.26875 2.875 3.4375 C3.24625 4.613125 3.6175 5.78875 4 7 C4.66 7.33 5.32 7.66 6 8 C5.34 8.66 4.68 9.32 4 10 C0 3.375 0 3.375 0 0 Z " fill="#4F49C0" transform="translate(34,213)"/>
<path d="M0 0 C1.65 0 3.3 0 5 0 C5 1.65 5 3.3 5 5 C3.68 4.67 2.36 4.34 1 4 C0.67 2.68 0.34 1.36 0 0 Z " fill="#3123FF" transform="translate(170,172)"/>
<path d="M0 0 C1.37432457 3.81756824 0.67975039 7.07255329 0 11 C-2.1642235 7.75366476 -2.37569856 6.75698557 -2 3 C-1.34 2.01 -0.68 1.02 0 0 Z " fill="#7F89D1" transform="translate(93,167)"/>
<path d="M0 0 C0 0.66 0 1.32 0 2 C-0.99 2.33 -1.98 2.66 -3 3 C-3.99 4.485 -3.99 4.485 -5 6 C-6.32 5.67 -7.64 5.34 -9 5 C-7.87926138 4.16094435 -6.75325453 3.32892169 -5.625 2.5 C-4.99851562 2.0359375 -4.37203125 1.571875 -3.7265625 1.09375 C-2 0 -2 0 0 0 Z " fill="#8797CD" transform="translate(124,60)"/>
<path d="M0 0 C0 0.66 0 1.32 0 2 C2.31 2 4.62 2 7 2 C7 2.33 7 2.66 7 3 C3.37 3 -0.26 3 -4 3 C-4 2.34 -4 1.68 -4 1 C-2 0 -2 0 0 0 Z " fill="#8B87D2" transform="translate(127,292)"/>
<path d="M0 0 C1.65 0 3.3 0 5 0 C5 0.66 5 1.32 5 2 C5.66 2 6.32 2 7 2 C7.33 2.99 7.66 3.98 8 5 C4.62496331 3.8141763 2.35277269 2.72426311 0 0 Z " fill="#615CC6" transform="translate(63,250)"/>
<path d="M0 0 C-1.98 1.32 -3.96 2.64 -6 4 C-6.99 3.34 -7.98 2.68 -9 2 C-3.375 -1.125 -3.375 -1.125 0 0 Z " fill="#9599B8" transform="translate(154,237)"/>
</svg>
