<?xml version="1.0" encoding="UTF-8"?>
<svg version="1.1" xmlns="http://www.w3.org/2000/svg" width="785" height="347">
<path d="M0 0 C259.05 0 518.1 0 785 0 C785 114.51 785 229.02 785 347 C525.95 347 266.9 347 0 347 C0 232.49 0 117.98 0 0 Z " fill="#EEEEEE" transform="translate(0,0)"/>
<path d="M0 0 C3.56254123 4.46018941 6.48286412 9.25450642 9.48046875 14.10546875 C10.62044198 15.87488298 11.76620058 17.64058447 12.91796875 19.40234375 C13.49603271 20.28768799 14.07409668 21.17303223 14.66967773 22.08520508 C15.56601929 23.4564856 15.56601929 23.4564856 16.48046875 24.85546875 C17.11476807 25.82830811 17.74906738 26.80114746 18.40258789 27.8034668 C21.85147138 33.09135951 25.31241111 38.37094398 28.7890625 43.640625 C29.82643555 45.2179541 29.82643555 45.2179541 30.88476562 46.82714844 C32.22216046 48.86021984 33.5632083 50.89089374 34.90820312 52.91894531 C35.50826172 53.83256836 36.10832031 54.74619141 36.7265625 55.6875 C37.25950928 56.49421143 37.79245605 57.30092285 38.34155273 58.13208008 C39.48046875 60.10546875 39.48046875 60.10546875 39.48046875 62.10546875 C33.36366832 60.34140856 27.80328474 57.45510196 22.10546875 54.66796875 C15.64161315 51.50666148 9.26265826 48.51626845 2.48046875 46.10546875 C1.49046875 45.71746094 0.50046875 45.32945312 -0.51953125 44.9296875 C-16.59099571 38.84010917 -32.62558074 34.57192684 -49.89453125 34.48046875 C-51.00465576 34.46975342 -52.11478027 34.45903809 -53.25854492 34.44799805 C-60.46924777 34.57312125 -66.05163355 35.95404841 -72.51953125 39.10546875 C-73.61523438 39.60691406 -74.7109375 40.10835937 -75.83984375 40.625 C-86.35779137 46.43593608 -93.00264055 55.77924268 -96.51953125 67.10546875 C-98.10498446 74.353782 -98.89855658 81.71913851 -99.51953125 89.10546875 C-100.17953125 89.10546875 -100.83953125 89.10546875 -101.51953125 89.10546875 C-102.12581572 62.74841743 -102.41118374 37.42671888 -84.41796875 16.0546875 C-67.72351302 -1.08632775 -21.78611822 -16.38180983 0 0 Z " fill="#6A6FF9" transform="translate(210.51953125,105.89453125)"/>
<path d="M0 0 C2.95007998 0.60174352 5.02777045 1.48509208 7.50390625 3.1875 C8.15673584 3.63432129 8.80956543 4.08114258 9.48217773 4.54150391 C10.51193726 5.26345947 10.51193726 5.26345947 11.5625 6 C12.27414307 6.4954834 12.98578613 6.9909668 13.71899414 7.50146484 C32.88233625 20.9804533 49.69698901 36.92247785 54 61 C54.42516203 68.93965381 54.19430488 76.35532495 52 84 C51.77763672 85.07507813 51.77763672 85.07507813 51.55078125 86.171875 C48.31710991 99.84044321 38.60403194 112.81170025 29.4526062 123.2155304 C27.94585699 124.97609649 27.94585699 124.97609649 26.79446411 127.03953552 C24.18008528 130.95697649 22.20957145 132.756388 17.51243591 133.70240784 C13.05077451 134.0322028 8.59678823 133.90018027 4.12890625 133.78125 C2.47984063 133.7663134 0.8307393 133.75493307 -0.81837463 133.74694824 C-5.14134181 133.71652417 -9.46212973 133.63805093 -13.78424072 133.54931641 C-18.20156374 133.46721116 -22.61924188 133.4308845 -27.03710938 133.390625 C-35.69240205 133.30504208 -44.34592932 133.16865936 -53 133 C-53 132.34 -53 131.68 -53 131 C-51.54150391 129.96948242 -51.54150391 129.96948242 -49.4765625 128.85546875 C-48.71142334 128.43241455 -47.94628418 128.00936035 -47.15795898 127.57348633 C-46.32208252 127.11611084 -45.48620605 126.65873535 -44.625 126.1875 C-34.5220911 120.50503108 -25.2193829 114.00883175 -16 107 C-15.02289063 106.2575 -14.04578125 105.515 -13.0390625 104.75 C4.44640765 91.07051547 23.3418355 73.19808613 26.25097656 49.99853516 C27.35111423 38.08774824 25.19622096 27.99640988 17.9140625 18.19140625 C9.9012001 8.94849144 9.9012001 8.94849144 0 2 C0 1.34 0 0.68 0 0 Z " fill="#696EFA" transform="translate(195,169)"/>
<path d="M0 0 C0.66 0 1.32 0 2 0 C2.06469482 0.80816162 2.12938965 1.61632324 2.19604492 2.44897461 C4.52902127 30.77511235 7.96859128 58.32234735 21 84 C21.78503906 85.546875 21.78503906 85.546875 22.5859375 87.125 C29.06186802 99.04314443 37.33347991 106.96682266 50 112 C54.41094543 113.28496701 58.68613373 113.22187139 63.25 113.25 C64.07113281 113.270625 64.89226562 113.29125 65.73828125 113.3125 C71.45537331 113.34874147 75.80419971 112.33544967 81 110 C81.92167969 109.62617188 82.84335938 109.25234375 83.79296875 108.8671875 C85.39783338 108.20220281 87.00199442 107.53551767 88.60546875 106.8671875 C91.05698765 105.97936173 93.43459265 105.44655403 96 105 C92.72347486 108.67468515 88.9579033 110.96995492 84.6875 113.3125 C83.98471924 113.70131348 83.28193848 114.09012695 82.55786133 114.49072266 C67.44414615 122.74993442 54.09825531 128.54641773 36.5625 128.4375 C35.42490234 128.45748047 34.28730469 128.47746094 33.11523438 128.49804688 C18.3855302 128.48964431 6.46827713 123.13649762 -4.09375 112.98828125 C-5.82228599 111.05153525 -7.4150467 109.05542606 -9 107 C-9.64324219 106.24074219 -10.28648438 105.48148437 -10.94921875 104.69921875 C-18.23676994 95.99580047 -23.51328581 86.57393373 -28 76.1875 C-28.31525635 75.48230225 -28.6305127 74.77710449 -28.95532227 74.05053711 C-31.26328349 68.47685349 -31.39879446 64.49622963 -29.09716797 58.7434082 C-27.93590733 56.15078439 -26.70122806 53.60670657 -25.4375 51.0625 C-24.98568359 50.13373047 -24.53386719 49.20496094 -24.06835938 48.24804688 C-21.11004316 42.18537626 -18.09718782 36.14891401 -15.05395508 30.12841797 C-11.68892097 23.44927082 -8.50168991 16.68603301 -5.32421875 9.91601562 C-4.92074219 9.06072266 -4.51726562 8.20542969 -4.1015625 7.32421875 C-3.74400879 6.56197998 -3.38645508 5.79974121 -3.01806641 5.0144043 C-2 3 -2 3 0 0 Z " fill="#6A6FF8" transform="translate(77,138)"/>
<path d="M0 0 C3.96 0 7.92 0 12 0 C12.70125 1.835625 13.4025 3.67125 14.125 5.5625 C17.01255771 13.07015004 19.99889193 20.53716853 23 28 C24.02193095 30.54122754 25.04256622 33.08297032 26.0625 35.625 C26.50722656 36.73101562 26.95195312 37.83703125 27.41015625 38.9765625 C29.64629368 44.63558351 31.81568297 50.32077571 34 56 C34.33 37.52 34.66 19.04 35 0 C38.63 0 42.26 0 46 0 C46 29.04 46 58.08 46 88 C42.37 88 38.74 88 35 88 C31.65947102 80.76175926 28.5131219 73.49140618 25.57421875 66.08203125 C25.22540649 65.20848999 24.87659424 64.33494873 24.51721191 63.43493652 C23.2377733 60.22860062 21.96288869 57.020449 20.6875 53.8125 C17.820625 46.614375 14.95375 39.41625 12 32 C11.67 50.48 11.34 68.96 11 88 C7.37 88 3.74 88 0 88 C0 58.96 0 29.92 0 0 Z " fill="#252525" transform="translate(377,106)"/>
<path d="M0 0 C0.73431747 -0.00004028 1.46863495 -0.00008057 2.22520447 -0.00012207 C3.76912043 0.00521278 5.31303758 0.02270843 6.85668945 0.05175781 C9.21194874 0.09369845 11.56435108 0.09281436 13.91992188 0.0859375 C15.425801 0.09642899 16.93166548 0.10936689 18.4375 0.125 C19.13657974 0.12520142 19.83565948 0.12540283 20.55592346 0.12561035 C24.90893765 0.23040397 27.695997 0.91908814 31.15234375 3.59375 C33.18355082 6.64056061 33.3989425 7.19493324 33.34765625 10.60546875 C33.34121094 11.36279297 33.33476562 12.12011719 33.328125 12.90039062 C33.31136719 13.68607422 33.29460937 14.47175781 33.27734375 15.28125 C33.26832031 16.07853516 33.25929688 16.87582031 33.25 17.69726562 C33.2264596 19.662889 33.19058922 21.62835775 33.15234375 23.59375 C29.19234375 22.60375 25.23234375 21.61375 21.15234375 20.59375 C20.49234375 18.28375 19.83234375 15.97375 19.15234375 13.59375 C16.00652952 13.56486486 12.86074906 13.54699077 9.71484375 13.53125 C8.81701172 13.52287109 7.91917969 13.51449219 6.99414062 13.50585938 C6.14013672 13.50263672 5.28613281 13.49941406 4.40625 13.49609375 C3.61549072 13.49085693 2.82473145 13.48562012 2.01000977 13.48022461 C0.13641686 13.38879091 0.13641686 13.38879091 -0.84765625 14.59375 C-0.947526 17.43710048 -0.98643506 20.25072163 -0.97265625 23.09375 C-0.97652344 23.89167969 -0.98039062 24.68960938 -0.984375 25.51171875 C-1.35665235 29.3621432 -1.35665235 29.3621432 0.15234375 32.59375 C2.01949892 32.71539 3.89086614 32.77345887 5.76171875 32.8046875 C7.48261719 32.84722656 7.48261719 32.84722656 9.23828125 32.890625 C11.6652167 32.94237202 14.09232158 32.98674103 16.51953125 33.0234375 C17.67195313 33.054375 18.824375 33.0853125 20.01171875 33.1171875 C21.06842773 33.13700684 22.12513672 33.15682617 23.21386719 33.17724609 C26.56570041 33.65233977 28.44292729 34.58972628 31.15234375 36.59375 C33.18141019 39.63734966 33.40666786 40.26892683 33.44287109 43.69458008 C33.4556308 44.51585892 33.4683905 45.33713776 33.48153687 46.18330383 C33.48376251 47.06769638 33.48598816 47.95208893 33.48828125 48.86328125 C33.49493805 49.77704025 33.50159485 50.69079926 33.50845337 51.63224792 C33.51858018 53.56641629 33.52327038 55.5006196 33.52294922 57.43481445 C33.52731213 60.38486881 33.56360249 63.33341454 33.6015625 66.28320312 C33.60743281 68.1640574 33.61140077 70.04491876 33.61328125 71.92578125 C33.62765228 72.8041011 33.64202332 73.68242096 33.65682983 74.58735657 C33.61639208 80.04675149 32.90025312 83.32574508 29.15234375 87.59375 C25.5891035 88.78149675 22.30939846 88.79355143 18.59765625 88.83203125 C17.85909393 88.840103 17.12053162 88.84817474 16.35958862 88.85649109 C14.79785494 88.87030873 13.23609136 88.88104125 11.67431641 88.88891602 C10.07982517 88.90044676 8.48537287 88.92091613 6.89111328 88.95043945 C4.5846947 88.99315091 2.27942138 89.00928795 -0.02734375 89.01953125 C-0.73583466 89.03703934 -1.44432556 89.05454742 -2.17428589 89.07258606 C-5.78776743 89.0568229 -7.71422378 88.68045995 -10.77392578 86.69213867 C-13.86618056 83.56311468 -13.96993507 81.87026439 -13.9453125 77.5859375 C-13.94208984 76.59980469 -13.93886719 75.61367187 -13.93554688 74.59765625 C-13.92716797 73.56511719 -13.91878906 72.53257812 -13.91015625 71.46875 C-13.90564453 70.42847656 -13.90113281 69.38820313 -13.89648438 68.31640625 C-13.88467577 65.74213038 -13.868207 63.16796854 -13.84765625 60.59375 C-5.27622768 61.59375 -5.27622768 61.59375 -1.84765625 62.59375 C-1.78707031 63.44839844 -1.72648437 64.30304688 -1.6640625 65.18359375 C-1.58027344 66.28832031 -1.49648438 67.39304687 -1.41015625 68.53125 C-1.32894531 69.63339844 -1.24773437 70.73554688 -1.1640625 71.87109375 C-1.14347541 74.50484903 -1.14347541 74.50484903 0.15234375 75.59375 C1.5558311 75.69235131 2.96414852 75.72453937 4.37109375 75.7265625 C5.22058594 75.72785156 6.07007813 75.72914063 6.9453125 75.73046875 C7.83863281 75.72660156 8.73195313 75.72273438 9.65234375 75.71875 C10.54566406 75.72261719 11.43898438 75.72648437 12.359375 75.73046875 C13.63361328 75.72853516 13.63361328 75.72853516 14.93359375 75.7265625 C15.71798828 75.72543457 16.50238281 75.72430664 17.31054688 75.72314453 C19.16987363 75.79482442 19.16987363 75.79482442 20.15234375 74.59375 C20.23992378 72.59410018 20.25930951 70.5913889 20.25 68.58984375 C20.24677734 67.37490234 20.24355469 66.15996094 20.24023438 64.90820312 C20.23185547 63.62880859 20.22347656 62.34941406 20.21484375 61.03125 C20.21033203 59.74798828 20.20582031 58.46472656 20.20117188 57.14257812 C20.1893392 53.95958978 20.17285443 50.77669238 20.15234375 47.59375 C17.49371356 46.2644349 15.41950917 46.44978201 12.4453125 46.41796875 C10.72924805 46.38219727 10.72924805 46.38219727 8.97851562 46.34570312 C6.56462953 46.30294508 4.1505131 46.27158065 1.73632812 46.25195312 C0.58841797 46.22423828 -0.55949219 46.19652344 -1.7421875 46.16796875 C-2.79253174 46.15338623 -3.84287598 46.13880371 -4.92504883 46.1237793 C-8.53481173 45.46913096 -10.22355805 44.10739696 -12.84765625 41.59375 C-15.14262064 37.00382122 -14.20103826 30.28754917 -14.25268555 25.19116211 C-14.27426327 23.58970574 -14.30836455 21.98836724 -14.35522461 20.38745117 C-14.42230035 18.07417367 -14.44969121 15.76333201 -14.46875 13.44921875 C-14.49658066 12.73759079 -14.52441132 12.02596283 -14.55308533 11.29277039 C-14.53655954 7.27898464 -13.94595235 5.70768797 -11.29931641 2.63989258 C-7.75251283 0.13021127 -4.24363581 -0.09981347 0 0 Z " fill="#292929" transform="translate(452.84765625,105.40625)"/>
<path d="M0 0 C0.73431747 -0.00004028 1.46863495 -0.00008057 2.22520447 -0.00012207 C3.76912043 0.00521278 5.31303758 0.02270843 6.85668945 0.05175781 C9.21194874 0.09369845 11.56435108 0.09281436 13.91992188 0.0859375 C15.425801 0.09642899 16.93166548 0.10936689 18.4375 0.125 C19.13657974 0.12520142 19.83565948 0.12540283 20.55592346 0.12561035 C24.89860164 0.23015514 27.69158221 0.93918628 31.15234375 3.59375 C32.4309599 6.15098229 32.26570984 7.96112102 32.25 10.8203125 C32.24677734 11.8515625 32.24355469 12.8828125 32.24023438 13.9453125 C32.22766602 15.56566406 32.22766602 15.56566406 32.21484375 17.21875 C32.21033203 18.30671875 32.20582031 19.3946875 32.20117188 20.515625 C32.18936165 23.20835662 32.1714258 25.90106009 32.15234375 28.59375 C28.52234375 28.26375 24.89234375 27.93375 21.15234375 27.59375 C21.09175781 26.66691406 21.03117188 25.74007812 20.96875 24.78515625 C20.88496094 23.58761719 20.80117188 22.39007813 20.71484375 21.15625 C20.63363281 19.96128906 20.55242188 18.76632813 20.46875 17.53515625 C20.47578261 14.70804756 20.47578261 14.70804756 19.15234375 13.59375 C12.22234375 13.59375 5.29234375 13.59375 -1.84765625 13.59375 C-1.84765625 34.05375 -1.84765625 54.51375 -1.84765625 75.59375 C5.08234375 75.59375 12.01234375 75.59375 19.15234375 75.59375 C21.09325201 73.65284174 20.5515381 70.12081098 20.71484375 67.53125 C20.79863281 66.24089844 20.88242187 64.95054687 20.96875 63.62109375 C21.05962891 62.12255859 21.05962891 62.12255859 21.15234375 60.59375 C17.19234375 60.59375 13.23234375 60.59375 9.15234375 60.59375 C11.02734375 50.84375 11.02734375 50.84375 12.15234375 48.59375 C18.75234375 48.59375 25.35234375 48.59375 32.15234375 48.59375 C32.24425665 53.50598385 32.32386218 58.41522752 32.37207031 63.32763672 C32.39216768 64.99798702 32.41945058 66.66826713 32.45410156 68.33837891 C32.50270494 70.7413872 32.52533031 73.14346434 32.54296875 75.546875 C32.56361389 76.29181213 32.58425903 77.03674927 32.60552979 77.80426025 C32.60705022 81.32913772 32.44971393 83.21167901 30.25292969 86.03417969 C26.43670127 88.86752082 23.30420533 88.78459423 18.6953125 88.83203125 C17.95533524 88.840103 17.21535797 88.84817474 16.45295715 88.85649109 C14.8852472 88.87032883 13.31750716 88.88105238 11.74975586 88.88891602 C9.35927743 88.90611022 6.97018916 88.94999349 4.58007812 88.99414062 C3.05599974 89.00426956 1.53190961 89.01278503 0.0078125 89.01953125 C-0.70381546 89.03703934 -1.41544342 89.05454742 -2.14863586 89.07258606 C-5.77036756 89.05686258 -7.70882189 88.68390263 -10.77612305 86.69213867 C-14.29235198 83.13032516 -14.01699184 80.14166619 -14.05639648 75.37768555 C-14.07107216 74.26275726 -14.07107216 74.26275726 -14.08604431 73.12530518 C-14.11600975 70.66037797 -14.13738644 68.19550504 -14.15625 65.73046875 C-14.16282183 64.88903635 -14.16939365 64.04760395 -14.17616463 63.1806736 C-14.20876292 58.72699286 -14.23321286 54.2733361 -14.25268555 49.81958008 C-14.27050402 46.13237748 -14.30533094 42.44593891 -14.35522461 38.7590332 C-14.41538189 34.30867284 -14.44615482 29.85902131 -14.45585823 25.4082737 C-14.4644217 23.71255054 -14.48326203 22.01684676 -14.51260185 20.32135582 C-14.55149284 17.94606257 -14.55255592 15.57353376 -14.54467773 13.19799805 C-14.56467834 12.49910965 -14.58467896 11.80022125 -14.60528564 11.08015442 C-14.56456005 8.34132136 -14.34113681 6.20837316 -12.59601879 4.03485298 C-8.59371454 0.49798737 -5.15335104 -0.12121065 0 0 Z " fill="#262626" transform="translate(540.84765625,105.40625)"/>
<path d="M0 0 C3.96 0 7.92 0 12 0 C12 10.89 12 21.78 12 33 C19.92 33 27.84 33 36 33 C36 22.11 36 11.22 36 0 C39.63 0 43.26 0 47 0 C47 29.04 47 58.08 47 88 C43.37 88 39.74 88 36 88 C36 73.81 36 59.62 36 45 C28.08 45 20.16 45 12 45 C12 59.19 12 73.38 12 88 C8.04 88 4.08 88 0 88 C0 58.96 0 29.92 0 0 Z " fill="#292929" transform="translate(589,106)"/>
<path d="M0 0 C3.96 0 7.92 0 12 0 C14.11794246 8.27866331 16.03209302 16.56722196 17.75 24.9375 C18.00096436 26.15735596 18.25192871 27.37721191 18.51049805 28.6340332 C20.52065412 38.48927068 22.45590637 48.35876214 24.34411621 58.23806763 C24.65326144 59.85475538 24.96370031 61.47119637 25.2755127 63.08737183 C26.87024948 71.37080851 28.3533445 79.5766823 29 88 C25.37 88 21.74 88 18 88 C15 77.625 15 77.625 15 72 C9.06 72 3.12 72 -3 72 C-3.66 77.28 -4.32 82.56 -5 88 C-8.96 88 -12.92 88 -17 88 C-16.27447394 80.12164051 -14.838158 72.44671254 -13.3125 64.6875 C-13.18127747 64.01447845 -13.05005493 63.34145691 -12.91485596 62.64804077 C-10.77784835 51.68818015 -8.49220959 40.76364733 -6.1237793 29.85131836 C-3.96929149 19.92259483 -1.95268403 9.97017491 0 0 Z " fill="#292929" transform="translate(725,106)"/>
<path d="M0 0 C3.65391816 2.99715113 6.05966718 6.35765965 8.5 10.375 C10.53080161 13.67671903 12.58763518 16.85538268 14.9375 19.9375 C17 23 17 23 17 27 C11.312467 26.46344028 6.12238876 25.26657687 0.6328125 23.69921875 C-2.57932114 22.84614468 -5.70064702 22.36659478 -9 22 C-9 21.34 -9 20.68 -9 20 C-18.40576319 19.00991966 -27.80004949 18.86185989 -37.25 18.8125 C-38.4452832 18.79960938 -39.64056641 18.78671875 -40.87207031 18.7734375 C-50.76809896 18.76245107 -58.99044975 19.95489581 -68 24 C-68.99 24 -69.98 24 -71 24 C-71.33 24.99 -71.66 25.98 -72 27 C-73.66448823 27.67208717 -75.33152612 28.33786925 -77 29 C-79.40646234 30.97124063 -79.40646234 30.97124063 -81.625 33.3125 C-82.38039063 34.07175781 -83.13578125 34.83101562 -83.9140625 35.61328125 C-88.38015688 40.72336302 -90.40764086 46.36896602 -92.625 52.6875 C-92.93695313 53.53505859 -93.24890625 54.38261719 -93.5703125 55.25585938 C-95.6574292 61.17085606 -96.65666578 66.74043099 -97 73 C-97.33 73 -97.66 73 -98 73 C-98.99288997 52.05460427 -95.80245923 34.1546877 -81.6875 17.625 C-61.70412541 -3.30996386 -27.15751209 -7.47541274 0 0 Z " fill="#4640E2" transform="translate(208,104)"/>
<path d="M0 0 C0.33 0 0.66 0 1 0 C1.14695312 0.82177734 1.14695312 0.82177734 1.296875 1.66015625 C4.27191466 17.43299582 9.34510569 31.44826553 16 46 C16.72509766 47.63775391 16.72509766 47.63775391 17.46484375 49.30859375 C19.24954803 52.43750278 21.41374761 54.50333165 24 57 C26.30836997 60.0079958 28.51098864 63.07784153 30.71875 66.16015625 C37.46800041 74.56204845 47.6176429 78.27896062 58 80 C58.90363281 80.16886719 59.80726562 80.33773437 60.73828125 80.51171875 C64.61598428 81.09221322 68.4628343 81.34672956 72.375 81.5625 C73.11105469 81.60568359 73.84710938 81.64886719 74.60546875 81.69335938 C76.40348068 81.79843799 78.20171958 81.89962093 80 82 C80 81.34 80 80.68 80 80 C84.95 79.01 84.95 79.01 90 78 C89 81 89 81 86.8828125 82.28125 C85.51769531 82.88453125 85.51769531 82.88453125 84.125 83.5 C83.24070312 83.9021875 82.35640625 84.304375 81.4453125 84.71875 C72.03640039 88.21775587 63.60436057 89.4998718 53.5625 89.4375 C52.42490234 89.45748047 51.28730469 89.47746094 50.11523438 89.49804688 C35.3855302 89.48964431 23.46827713 84.13649762 12.90625 73.98828125 C11.17771401 72.05153525 9.5849533 70.05542606 8 68 C7.35675781 67.24074219 6.71351562 66.48148437 6.05078125 65.69921875 C-1.23676994 56.99580047 -6.51328581 47.57393373 -11 37.1875 C-11.31525635 36.48230225 -11.6305127 35.77710449 -11.95532227 35.05053711 C-13.92415716 30.29583729 -14.40603635 27.1093368 -13 22 C-11.55498482 18.60450133 -9.87700119 15.37091722 -8.125 12.125 C-7.67769531 11.25875 -7.23039062 10.3925 -6.76953125 9.5 C-3.38373512 3.12791171 -3.38373512 3.12791171 0 2 C0 1.34 0 0.68 0 0 Z " fill="#453FE0" transform="translate(60,177)"/>
<path d="M0 0 C6.28050744 2.13068725 10.31549539 6.45875241 15 11 C15.71929687 11.69351563 16.43859375 12.38703125 17.1796875 13.1015625 C27.44797394 23.76939316 34.10529049 39.463573 34.375 54.25 C34.19870453 59.74555544 33.51300125 64.72889886 32 70 C31.85175781 70.71671875 31.70351562 71.4334375 31.55078125 72.171875 C28.28981627 85.9558121 18.48136681 98.87172641 9.30126953 109.38549805 C7.93682288 110.98674564 7.93682288 110.98674564 6.91357422 112.93676758 C5.44236133 115.27272343 4.35491498 116.52369007 2 118 C-3.48262265 118.87216538 -8.84485939 118.66007346 -14.375 118.4375 C-15.88925114 118.40235642 -17.40358038 118.37042271 -18.91796875 118.34179688 C-22.61361173 118.26497324 -26.30630774 118.14435921 -30 118 C-27.36922463 115.34999683 -24.70211057 112.81512966 -21.875 110.375 C-19.85078394 108.62577178 -17.89231946 106.89231946 -16 105 C-15.01 105 -14.02 105 -13 105 C-12.773125 104.46375 -12.54625 103.9275 -12.3125 103.375 C-9.43568616 98.16933685 -5.16922473 94.16922473 -1 90 C3.19469876 85.59291143 5.73301519 81.71674431 8 76 C10.15164693 71.87601004 12.4195582 67.8706627 15 64 C15.66158043 61.95415921 15.66158043 61.95415921 16.125 59.8125 C16.558125 57.9253125 16.558125 57.9253125 17 56 C17.66 56 18.32 56 19 56 C19 46.43 19 36.86 19 27 C18.34 27 17.68 27 17 27 C16.505 24.03 16.505 24.03 16 21 C15.34 21 14.68 21 14 21 C13.731875 19.9275 13.46375 18.855 13.1875 17.75 C11.06074645 11.88563502 6.55406152 7.83767186 2.30078125 3.44140625 C0 1 0 1 0 0 Z " fill="#453FE1" transform="translate(215,183)"/>
<path d="M0 0 C15.51 0 31.02 0 47 0 C47 3.96 47 7.92 47 12 C41.06 12 35.12 12 29 12 C29 37.08 29 62.16 29 88 C25.37 88 21.74 88 18 88 C18 62.92 18 37.84 18 12 C12.06 12 6.12 12 0 12 C0 8.04 0 4.08 0 0 Z " fill="#252525" transform="translate(651,106)"/>
<path d="M0 0 C10.56671122 1.66942655 18.64809757 8.6720062 26 16 C26.76183594 16.73863281 27.52367187 17.47726563 28.30859375 18.23828125 C38.23657847 28.4759778 44.70363441 41.1825919 48 55 C48.17370117 55.65613281 48.34740234 56.31226563 48.52636719 56.98828125 C50.04080197 63.05681851 50.38545486 68.88345028 50.375 75.125 C50.37258301 76.62981934 50.37258301 76.62981934 50.37011719 78.16503906 C50.04490238 98.05415645 50.04490238 98.05415645 44.0859375 103.8671875 C40.96215014 105.56362633 38.47877436 105.38653048 35 105 C32.4915585 101.23733775 32.70678382 99.47612826 33 95 C33.44837836 93.02833625 33.90065864 91.05660018 34.42407227 89.10351562 C39.68816841 69.30569409 38.63514069 47.60661255 28.5546875 29.41796875 C21.51098744 18.46306841 13.44681761 9.06115747 2.14453125 2.2890625 C1.43683594 1.86367187 0.72914063 1.43828125 0 1 C0 0.67 0 0.34 0 0 Z " fill="#7089DD" transform="translate(235,186)"/>
<path d="M0 0 C2.32416325 1.60858118 4.12184939 3.06694703 6.125 5 C23.28035291 20.44679134 42.90728346 27.24953482 65.95166016 26.13916016 C78.78900916 25.26701606 88.81593278 21.18274139 100 15 C101.32907374 14.32488133 102.65996753 13.65309663 104 13 C102.51697598 17.44907205 98.91714499 19.74579392 95 22 C94.34 22 93.68 22 93 22 C93 22.66 93 23.32 93 24 C71.04954958 34.93876267 48.47926164 38.6298158 24.8125 31.125 C19.9734021 29.43505731 15.49250752 27.45212223 11 25 C10.29488281 24.65453125 9.58976562 24.3090625 8.86328125 23.953125 C1.51440495 20.2081479 -4.20253397 14.79746603 -10 9 C-10.3267107 5.92891945 -10.48138276 3.84949899 -8.9375 1.125 C-5.84886211 -0.66840265 -3.5141006 -0.35761356 0 0 Z " fill="#748BDD" transform="translate(38,257)"/>
<path d="M0 0 C2.0625 2.3125 2.0625 2.3125 2.8125 4.75 C1.87476264 7.95393598 0.34094415 9.26554445 -2.421875 11.0625 C-6.21790598 12.94872657 -10.20757582 14.1683817 -14.23876953 15.43969727 C-23.20750502 18.28975223 -30.71563969 22.30565967 -37.9375 28.3125 C-38.75347656 28.9828125 -39.56945312 29.653125 -40.41015625 30.34375 C-52.45074574 40.65906649 -63.58673848 57.26332079 -65.14697266 73.49121094 C-65.54687804 78.76067657 -65.77065667 84.03104559 -65.9375 89.3125 C-66.9275 89.3125 -67.9175 89.3125 -68.9375 89.3125 C-68.96636537 85.00001391 -68.98425255 80.68755238 -69 76.375 C-69.00837891 75.14330078 -69.01675781 73.91160156 -69.02539062 72.64257812 C-69.02861328 71.47275391 -69.03183594 70.30292969 -69.03515625 69.09765625 C-69.04039307 68.01363525 -69.04562988 66.92961426 -69.05102539 65.81274414 C-68.9375 63.3125 -68.9375 63.3125 -67.9375 62.3125 C-67.66229733 60.85871198 -67.41802652 59.39903811 -67.1875 57.9375 C-63.46539546 38.72487213 -49.47945778 21.49648392 -33.9375 10.3125 C-9.83404381 -5.64934432 -9.83404381 -5.64934432 0 0 Z " fill="#7189DC" transform="translate(168.9375,60.6875)"/>
<path d="M0 0 C3.63 0 7.26 0 11 0 C11 29.04 11 58.08 11 88 C7.37 88 3.74 88 0 88 C0 58.96 0 29.92 0 0 Z " fill="#252525" transform="translate(501,106)"/>
<path d="M0 0 C3.63 0 7.26 0 11 0 C11 29.04 11 58.08 11 88 C7.37 88 3.74 88 0 88 C0 58.96 0 29.92 0 0 Z " fill="#242424" transform="translate(351,106)"/>
<path d="M0 0 C3.63 0 7.26 0 11 0 C11.36351562 1.10794922 11.36351562 1.10794922 11.734375 2.23828125 C13.78713316 8.45182228 15.93143591 14.60887636 18.265625 20.72265625 C19 23 19 23 19 26 C19.66 26 20.32 26 21 26 C21.309375 24.2984375 21.309375 24.2984375 21.625 22.5625 C23.31648767 14.82643138 26.28945991 7.42415226 29 0 C32.63 0 36.26 0 40 0 C40 1.32 40 2.64 40 4 C39.01 4 38.02 4 37 4 C37 13.9 37 23.8 37 34 C37.99 34 38.98 34 40 34 C40 35.32 40 36.64 40 38 C36.04 38 32.08 38 28 38 C28 36.68 28 35.36 28 34 C29.32 34 30.64 34 32 34 C31.505 22.12 31.505 22.12 31 10 C30.48050781 11.64871094 29.96101562 13.29742187 29.42578125 14.99609375 C28.72245299 17.14358936 28.01796576 19.29070563 27.3125 21.4375 C26.97283203 22.52611328 26.63316406 23.61472656 26.28320312 24.73632812 C25.93837891 25.77080078 25.59355469 26.80527344 25.23828125 27.87109375 C24.774823 29.30859985 24.774823 29.30859985 24.30200195 30.77514648 C23 33 23 33 20.36010742 33.82055664 C19.58127197 33.87977295 18.80243652 33.93898926 18 34 C14.73578095 26.08563649 11.84865362 18.07118524 9 10 C8.67 17.92 8.34 25.84 8 34 C9.32 34 10.64 34 12 34 C12 35.32 12 36.64 12 38 C8.04 38 4.08 38 0 38 C0 36.68 0 35.36 0 34 C0.99 34 1.98 34 3 34 C3 24.1 3 14.2 3 4 C2.01 4 1.02 4 0 4 C0 2.68 0 1.36 0 0 Z " fill="#767676" transform="translate(639,242)"/>
<path d="M0 0 C3.39537852 -0.14575327 6.78994902 -0.23421542 10.1875 -0.3125 C11.14720703 -0.35439453 12.10691406 -0.39628906 13.09570312 -0.43945312 C17.74029359 -0.51980936 20.2222934 -0.53007862 24.140625 2.140625 C26.27589438 5.42427455 26.64605112 7.17491549 26.5625 11.0625 C26.56378906 12.08472656 26.56507813 13.10695312 26.56640625 14.16015625 C25.876986 17.61676677 24.53877314 18.65846222 22 21 C22.09874151 25.5421093 23.66560026 29.13926197 26 33 C27.485 33.495 27.485 33.495 29 34 C29 35.32 29 36.64 29 38 C25.7 38 22.4 38 19 38 C19.2475 37.360625 19.495 36.72125 19.75 36.0625 C20.0805905 32.01276632 18.68578799 29.56964017 16.91015625 25.98828125 C16 24 16 24 16 22 C13.36 22 10.72 22 8 22 C8 25.96 8 29.92 8 34 C8.99 34 9.98 34 11 34 C11 35.32 11 36.64 11 38 C7.37 38 3.74 38 0 38 C0 36.68 0 35.36 0 34 C0.99 34 1.98 34 3 34 C3 24.1 3 14.2 3 4 C2.01 4 1.02 4 0 4 C0 2.68 0 1.36 0 0 Z " fill="#747474" transform="translate(584,242)"/>
<path d="M0 0 C4.62 0 9.24 0 14 0 C14 1.32 14 2.64 14 4 C13.34 4 12.68 4 12 4 C12.40992188 5.24394531 12.81984375 6.48789063 13.2421875 7.76953125 C16.06075853 16.43502681 18.81757275 24.92792883 20 34 C20.99 34 21.98 34 23 34 C23 35.32 23 36.64 23 38 C19.37 38 15.74 38 12 38 C12 36.68 12 35.36 12 34 C13.32 34 14.64 34 16 34 C15.67 33.236875 15.34 32.47375 15 31.6875 C14 29 14 29 14 26 C9.38 26 4.76 26 0 26 C-0.33 28.31 -0.66 30.62 -1 33 C-0.01 33.33 0.98 33.66 2 34 C2 35.32 2 36.64 2 38 C-1.63 38 -5.26 38 -9 38 C-9 36.68 -9 35.36 -9 34 C-8.01 34 -7.02 34 -6 34 C-5.90847656 33.09121094 -5.81695312 32.18242187 -5.72265625 31.24609375 C-4.92882137 25.68924956 -3.11202536 20.4044017 -1.4375 15.0625 C-0.9434668 13.46438477 -0.9434668 13.46438477 -0.43945312 11.83398438 C0.369 9.22115762 1.18226535 6.60993378 2 4 C1.34 4 0.68 4 0 4 C0 2.68 0 1.36 0 0 Z " fill="#747474" transform="translate(402,242)"/>
<path d="M0 0 C1.96453125 0.03287109 1.96453125 0.03287109 3.96875 0.06640625 C5.2784375 0.06511719 6.588125 0.06382812 7.9375 0.0625 C11.46875 0.62890625 11.46875 0.62890625 13.921875 2.3984375 C16.37884376 5.94118791 15.74999282 8.41026401 15.46875 12.62890625 C14.14875 12.62890625 12.82875 12.62890625 11.46875 12.62890625 C11.159375 11.65953125 10.85 10.69015625 10.53125 9.69140625 C9.77351658 6.78824833 9.77351658 6.78824833 8.46875 5.62890625 C6.97136876 5.53100055 5.46932108 5.49915761 3.96875 5.50390625 C3.1540625 5.50132812 2.339375 5.49875 1.5 5.49609375 C-0.52655377 5.40438845 -0.52655377 5.40438845 -1.53125 6.62890625 C-1.63096786 8.54348907 -1.66205589 10.46172942 -1.6640625 12.37890625 C-1.66535156 13.54421875 -1.66664063 14.70953125 -1.66796875 15.91015625 C-1.66410156 17.13734375 -1.66023437 18.36453125 -1.65625 19.62890625 C-1.66011719 20.85609375 -1.66398438 22.08328125 -1.66796875 23.34765625 C-1.66667969 24.51296875 -1.66539062 25.67828125 -1.6640625 26.87890625 C-1.66293457 27.9565625 -1.66180664 29.03421875 -1.66064453 30.14453125 C-1.81217371 32.57110622 -1.81217371 32.57110622 -0.53125 33.62890625 C1.53647734 33.82832493 1.53647734 33.82832493 3.90625 33.81640625 C4.70933594 33.83058594 5.51242187 33.84476562 6.33984375 33.859375 C8.68505633 33.83052981 8.68505633 33.83052981 10.46875 31.62890625 C11.11642793 29.05829314 11.11642793 29.05829314 11.46875 26.62890625 C12.78875 26.62890625 14.10875 26.62890625 15.46875 26.62890625 C15.77379777 30.51826529 15.88665806 32.91588286 13.88671875 36.328125 C10.69113194 39.36883684 8.88737252 39.30039635 4.53125 39.25390625 C2.72333984 39.27324219 2.72333984 39.27324219 0.87890625 39.29296875 C-2.53125 38.62890625 -2.53125 38.62890625 -5.4375 36.96484375 C-8.85513137 31.51958781 -8.21169481 25.9150459 -8.09375 19.62890625 C-8.10470703 18.35789062 -8.11566406 17.086875 -8.12695312 15.77734375 C-8.05333672 6.45259937 -8.05333672 6.45259937 -5.71655273 2.76586914 C-3.53125 0.62890625 -3.53125 0.62890625 0 0 Z " fill="#737373" transform="translate(541.53125,241.37109375)"/>
<path d="M0 0 C1.65 0 3.3 0 5 0 C5 1.65 5 3.3 5 5 C4.41822998 5.09659912 3.83645996 5.19319824 3.23706055 5.29272461 C0.52279003 6.15087606 -0.7536372 7.3408281 -2.79296875 9.31640625 C-3.50050293 9.99501709 -4.20803711 10.67362793 -4.93701172 11.37280273 C-5.67967285 12.09540283 -6.42233398 12.81800293 -7.1875 13.5625 C-7.95852051 14.28961182 -8.72954102 15.01672363 -9.52392578 15.76586914 C-12.62510477 18.69417725 -15.64216131 21.59022619 -18.44921875 24.8046875 C-23.03260334 29.88080918 -23.03260334 29.88080918 -26.92626953 30.11669922 C-29.2643147 30.05502168 -31.60042395 29.96606698 -33.9375 29.875 C-40.41504727 29.65385309 -44.21767694 30.68839873 -49.19921875 34.97265625 C-57.00528318 42.27615886 -57.00528318 42.27615886 -63 51 C-66.30806332 49.96032296 -67.87148329 49.15086744 -70.15625 46.46875 C-73.90726785 43.21237186 -76.50377015 43.22617611 -81.3125 43.1875 C-82.05306641 43.16236328 -82.79363281 43.13722656 -83.55664062 43.11132812 C-85.37052969 43.05281557 -87.18531903 43.02345651 -89 43 C-89 42.01 -89 41.02 -89 40 C-74.67947764 39.07165881 -74.67947764 39.07165881 -70.51953125 41.37109375 C-68.75 43.0625 -68.75 43.0625 -67.359375 44.78515625 C-66.91078125 45.18605469 -66.4621875 45.58695313 -66 46 C-62.51958034 45.59275058 -60.96006634 44.27754347 -58.65234375 41.7265625 C-58.04712891 41.0665625 -57.44191406 40.4065625 -56.81835938 39.7265625 C-56.19767578 39.03304687 -55.57699219 38.33953125 -54.9375 37.625 C-53.69689417 36.26276615 -52.45601838 34.90077811 -51.21484375 33.5390625 C-50.66948975 32.93271973 -50.12413574 32.32637695 -49.56225586 31.70166016 C-49.04671143 31.1401123 -48.53116699 30.57856445 -48 30 C-47.28481201 29.15405273 -47.28481201 29.15405273 -46.55517578 28.29101562 C-44.53866423 26.61702613 -43.49176846 26.69231899 -40.90234375 26.8046875 C-30.00323259 27.27379586 -30.00323259 27.27379586 -20.75 22.3125 C-19.15449425 20.55262599 -17.57292791 18.78008228 -16 17 C-13.35435814 14.49570161 -10.64062004 12.06698725 -7.9375 9.625 C-6.6277827 8.4366288 -5.3239458 7.2417298 -4.02734375 6.0390625 C-3.46781006 5.52553223 -2.90827637 5.01200195 -2.33178711 4.48291016 C-0.75288722 2.92302342 -0.75288722 2.92302342 0 0 Z " fill="#9993F6" transform="translate(189,179)"/>
<path d="M0 0 C4.62 0 9.24 0 14 0 C14 1.32 14 2.64 14 4 C12.35 4 10.7 4 9 4 C9 13.9 9 23.8 9 34 C10.65 34 12.3 34 14 34 C14 35.32 14 36.64 14 38 C9.38 38 4.76 38 0 38 C0 36.68 0 35.36 0 34 C1.65 34 3.3 34 5 34 C5 24.1 5 14.2 5 4 C3.35 4 1.7 4 0 4 C0 2.68 0 1.36 0 0 Z " fill="#717171" transform="translate(448,242)"/>
<path d="M0 0 C1.98235473 2.9735321 2.4542262 4.50172011 3.0703125 7.9296875 C3.24433594 8.89003906 3.41835938 9.85039062 3.59765625 10.83984375 C3.77167969 11.84144531 3.94570313 12.84304687 4.125 13.875 C4.30675781 14.86886719 4.48851562 15.86273438 4.67578125 16.88671875 C5.47902345 21.39816177 6 25.383372 6 30 C2.04 30 -1.92 30 -6 30 C-4.92540638 22.72582781 -3.76765074 15.48131672 -2.4375 8.25 C-2.31076904 7.54681641 -2.18403809 6.84363281 -2.0534668 6.11914062 C-1.11865183 1.11865183 -1.11865183 1.11865183 0 0 Z " fill="#E1E1E1" transform="translate(731,136)"/>
<path d="M0 0 C14.27292401 2.25496825 26.68255684 14.8698949 35 26 C35 26.99 35 27.98 35 29 C33.02 29.66 31.04 30.32 29 31 C28.5875 30.31035156 28.175 29.62070313 27.75 28.91015625 C20.46306865 17.05262733 12.09156325 8.02090769 0 1 C0 0.67 0 0.34 0 0 Z " fill="#6F6BDA" transform="translate(235,186)"/>
<path d="M0 0 C8.3984375 -0.1953125 8.3984375 -0.1953125 11 0 C13 2 13 2 13.1953125 4.3828125 C13.17210937 5.28773438 13.14890625 6.19265625 13.125 7.125 C13.10695313 8.03507813 13.08890625 8.94515625 13.0703125 9.8828125 C13.04710937 10.58148438 13.02390625 11.28015625 13 12 C12.34 12 11.68 12 11 12 C11 12.66 11 13.32 11 14 C7.37 14 3.74 14 0 14 C0 9.38 0 4.76 0 0 Z " fill="#E8E8E8" transform="translate(592,246)"/>
<path d="M0 0 C0 0.99 0 1.98 0 3 C-1.6796875 4.60546875 -1.6796875 4.60546875 -3.875 6.1875 C-4.59429687 6.71730469 -5.31359375 7.24710937 -6.0546875 7.79296875 C-8 9 -8 9 -10 9 C-10 9.66 -10 10.32 -10 11 C-19.9860972 15.97694199 -29.6634651 20.3005267 -41 20 C-40.443125 19.7525 -39.88625 19.505 -39.3125 19.25 C-36.87544341 18.05414644 -36.87544341 18.05414644 -34.75 15.9375 C-31.07294922 13.34685059 -28.45004047 13.30169766 -24 13 C-24 12.34 -24 11.68 -24 11 C-22.80375 10.649375 -21.6075 10.29875 -20.375 9.9375 C-14.15925786 7.88213479 -4.69746486 4.69746486 0 0 Z " fill="#7774DC" transform="translate(141,270)"/>
<path d="M0 0 C0.99 0.33 1.98 0.66 3 1 C2.49210937 1.49886719 1.98421875 1.99773437 1.4609375 2.51171875 C-10.52007862 15.00877114 -12.35221192 28.41717881 -14 45 C-14.66 45 -15.32 45 -16 45 C-16 34.11 -16 23.22 -16 12 C-15.67 12 -15.34 12 -15 12 C-14.67 13.65 -14.34 15.3 -14 17 C-13.7525 16.360625 -13.505 15.72125 -13.25 15.0625 C-12.8375 14.381875 -12.425 13.70125 -12 13 C-11.34 12.855625 -10.68 12.71125 -10 12.5625 C-9.01 12.2840625 -9.01 12.2840625 -8 12 C-6.81608777 9.62374655 -6.81608777 9.62374655 -6 7 C-5.34 6.01 -4.68 5.02 -4 4 C-3.34 4 -2.68 4 -2 4 C-2 3.34 -2 2.68 -2 2 C-1.34 2 -0.68 2 0 2 C0 1.34 0 0.68 0 0 Z " fill="#7484EC" transform="translate(125,150)"/>
<path d="M0 0 C3.22172152 1.45770592 5.94683185 1.26522832 9.47265625 1.23632812 C10.15507385 1.23349823 10.83749146 1.23066833 11.54058838 1.22775269 C13.71083432 1.21659661 15.88066096 1.19150119 18.05078125 1.16601562 C19.52603569 1.15597988 21.00129662 1.14685507 22.4765625 1.13867188 C26.08477067 1.1166725 29.692735 1.08217445 33.30078125 1.04101562 C33.30078125 1.37101562 33.30078125 1.70101563 33.30078125 2.04101562 C48.15078125 2.53601563 48.15078125 2.53601563 63.30078125 3.04101562 C63.30078125 3.37101562 63.30078125 3.70101563 63.30078125 4.04101562 C38.88078125 4.04101562 14.46078125 4.04101562 -10.69921875 4.04101562 C-10.69921875 3.38101562 -10.69921875 2.72101563 -10.69921875 2.04101562 C-9.28976509 1.48084815 -7.87121565 0.9435306 -6.44921875 0.41601562 C-5.6603125 0.114375 -4.87140625 -0.18726563 -4.05859375 -0.49804688 C-1.69921875 -0.95898438 -1.69921875 -0.95898438 0 0 Z " fill="#6965DE" transform="translate(152.69921875,297.958984375)"/>
<path d="M0 0 C1.65 0 3.3 0 5 0 C5 1.65 5 3.3 5 5 C4.41895508 5.09587402 3.83791016 5.19174805 3.23925781 5.29052734 C0.51078969 6.15499838 -0.7778432 7.36473935 -2.828125 9.3515625 C-3.54613281 10.03863281 -4.26414063 10.72570312 -5.00390625 11.43359375 C-5.74511719 12.15675781 -6.48632812 12.87992188 -7.25 13.625 C-9.44216314 15.73928878 -11.63760553 17.84871007 -13.8515625 19.94018555 C-15.25330128 21.28410261 -16.62530309 22.659947 -17.9609375 24.06958008 C-21.55350982 27.65624356 -23.99833114 29.41422101 -29.15625 29.68359375 C-30.93879768 29.63771936 -32.72074881 29.5551685 -34.5 29.4375 C-35.4178125 29.40591797 -36.335625 29.37433594 -37.28125 29.34179688 C-39.52427552 29.2600199 -41.76036507 29.14557627 -44 29 C-44 28.67 -44 28.34 -44 28 C-38.06 28 -32.12 28 -26 28 C-25.67 27.01 -25.34 26.02 -25 25 C-23.44897461 23.44824219 -23.44897461 23.44824219 -21.46484375 21.796875 C-17.05796153 18.05579489 -12.79500214 14.18666089 -8.5625 10.25 C-7.48452148 9.26193359 -7.48452148 9.26193359 -6.38476562 8.25390625 C-5.70220703 7.61839844 -5.01964844 6.98289063 -4.31640625 6.328125 C-3.70224854 5.7599707 -3.08809082 5.19181641 -2.45532227 4.60644531 C-0.7603917 2.95213557 -0.7603917 2.95213557 0 0 Z " fill="#736AF9" transform="translate(189,179)"/>
<path d="M0 0 C2.23828125 0.015625 2.23828125 0.015625 5 1 C6.79749917 3.38838335 7.96106907 6.03416074 9.1875 8.75 C9.52974609 9.46671875 9.87199219 10.1834375 10.22460938 10.921875 C11.17809627 12.93623179 12.09004338 14.9657284 13 17 C13.4021875 17.81726563 13.804375 18.63453125 14.21875 19.4765625 C15.36888867 23.19151039 15.3399187 26.7569466 15.3125 30.625 C15.30831055 31.42172119 15.30412109 32.21844238 15.29980469 33.03930664 C15.18285988 39.17953108 14.82106243 45.4315596 12 51 C9.890625 52.78515625 9.890625 52.78515625 8 54 C8.20496094 53.25234375 8.40992188 52.5046875 8.62109375 51.734375 C8.89050781 50.74953125 9.15992188 49.7646875 9.4375 48.75 C9.70433594 47.77546875 9.97117188 46.8009375 10.24609375 45.796875 C10.49488281 44.87390625 10.74367187 43.9509375 11 43 C11.18820313 42.38382813 11.37640625 41.76765625 11.5703125 41.1328125 C14.21676164 27.99680133 11.57098272 16.49449392 4.265625 5.35546875 C2.90345577 3.50356725 1.51392205 1.72866277 0 0 Z " fill="#747FD7" transform="translate(209,182)"/>
<path d="M0 0 C0.66 0 1.32 0 2 0 C2.67184618 2.10251861 3.33730968 4.20707763 4 6.3125 C4.37125 7.48425781 4.7425 8.65601563 5.125 9.86328125 C6 13 6 13 6 16 C2.7 16 -0.6 16 -4 16 C-2.68 10.72 -1.36 5.44 0 0 Z " fill="#E5E5E5" transform="translate(408,248)"/>
<path d="M0 0 C0.33 0 0.66 0 1 0 C1.13575439 0.60473145 1.27150879 1.20946289 1.41137695 1.83251953 C2.03708548 4.598559 2.67468148 7.36172895 3.3125 10.125 C3.52583984 11.07632813 3.73917969 12.02765625 3.95898438 13.0078125 C5.13680943 18.07070228 6.48193015 22.41027711 9 27 C9.45075006 28.32220016 9.87053403 29.65560628 10.25 31 C11.83221547 36.03901231 14.23447299 40.58938743 16.75097656 45.21484375 C17.57315706 46.77376075 18.29423334 48.38503982 19 50 C18.67 50.99 18.34 51.98 18 53 C-1.2634541 15.79317622 -1.2634541 15.79317622 0 0 Z " fill="#5856F2" transform="translate(61,177)"/>
<path d="M0 0 C2.60495882 1.7450695 4.80974004 3.76313876 7 6 C6.01 6.33 5.02 6.66 4 7 C4 6.34 4 5.68 4 5 C0.21812119 3.16308743 -1.94568308 2.84162374 -6 4 C-6.33 5.32 -6.66 6.64 -7 8 C-5.9171875 8.93972656 -5.9171875 8.93972656 -4.8125 9.8984375 C-3.884375 10.71570313 -2.95625 11.53296875 -2 12.375 C-0.6078125 13.59316406 -0.6078125 13.59316406 0.8125 14.8359375 C1.534375 15.55007813 2.25625 16.26421875 3 17 C3 17.66 3 18.32 3 19 C3.66 19 4.32 19 5 19 C4.67 19.66 4.34 20.32 4 21 C-9.60013671 11.265892 -9.60013671 11.265892 -10.5625 5.8125 C-10 3 -10 3 -8.9375 1.125 C-5.73526522 -0.73436213 -3.63713897 -0.54557085 0 0 Z " fill="#849EC1" transform="translate(38,257)"/>
<path d="M0 0 C0.74765625 0.34933594 1.4953125 0.69867188 2.265625 1.05859375 C3.74289063 1.74115234 3.74289063 1.74115234 5.25 2.4375 C6.22453125 2.88996094 7.1990625 3.34242188 8.203125 3.80859375 C13.60371417 6.10912405 18.44917428 6.21424761 24.25 6.25 C25.48169922 6.2809375 25.48169922 6.2809375 26.73828125 6.3125 C32.53456241 6.34924346 36.67281946 5.27393842 42 3 C43.65672637 2.62033354 45.32070245 2.26239024 47 2 C40.53596952 8.82314328 40.53596952 8.82314328 35.37792969 9.18286133 C32.16763399 9.07335917 28.95890147 8.95802423 25.75 8.8125 C24.64269531 8.78091797 23.53539062 8.74933594 22.39453125 8.71679688 C14.00540003 8.37265297 6.97794389 7.01539717 0 2 C0 1.34 0 0.68 0 0 Z " fill="#8491E3" transform="translate(116,245)"/>
<path d="M0 0 C14.17369727 -0.91882311 14.17369727 -0.91882311 18.515625 1.265625 C20.17827271 2.75477904 21.57043392 4.29160215 23 6 C23.99 6.66 24.98 7.32 26 8 C26 8.99 26 9.98 26 11 C22.69193668 9.96032296 21.12851671 9.15086744 18.84375 6.46875 C15.09273215 3.21237186 12.49622985 3.22617611 7.6875 3.1875 C6.94693359 3.16236328 6.20636719 3.13722656 5.44335938 3.11132812 C3.62947031 3.05281557 1.81468097 3.02345651 0 3 C0 2.01 0 1.02 0 0 Z " fill="#BBB7F3" transform="translate(100,219)"/>
<path d="M0 0 C3.19410533 1.83491157 4.65947954 2.89330849 5.75 6.4375 C4.82344891 9.60321621 3.35134001 10.94246964 0.62109375 12.73046875 C-5.2808741 15.58909699 -11.70543487 17.22422232 -18 19 C-18 18.34 -18 17.68 -18 17 C-11.73 14.36 -5.46 11.72 1 9 C1 7.02 1 5.04 1 3 C-1.75078884 2.08307039 -3.35948913 1.89113917 -6.1875 1.9375 C-7.445625 1.958125 -8.70375 1.97875 -10 2 C-6.2626144 -0.4915904 -4.42668417 -0.45793285 0 0 Z " fill="#839CC3" transform="translate(166,59)"/>
<path d="M0 0 C0.33 0 0.66 0 1 0 C1.30823993 11.14230258 1.1592199 21.5293208 -1.34375 32.421875 C-2.07553096 36.41182359 -2.10696307 39.95323034 -2 44 C0.64 43.67 3.28 43.34 6 43 C4 45 4 45 0.5 45.3125 C-0.655 45.209375 -1.81 45.10625 -3 45 C-5.69143048 40.96285429 -5.51198469 37.76376288 -4.63330078 33.02050781 C-4.13798072 30.88076604 -3.60453838 28.75336659 -3.0625 26.625 C-0.92744554 17.75245629 -0.23042889 9.10194132 0 0 Z " fill="#8197BB" transform="translate(273,246)"/>
<path d="M0 0 C-1 3 -1 3 -3.328125 4.421875 C-4.77445313 5.07929688 -4.77445313 5.07929688 -6.25 5.75 C-7.20390625 6.19859375 -8.1578125 6.6471875 -9.140625 7.109375 C-12.26389594 8.0821971 -13.90527415 7.92615883 -17 7 C-17 6.34 -17 5.68 -17 5 C-17.92619141 5.03480469 -17.92619141 5.03480469 -18.87109375 5.0703125 C-24.87882303 5.19833108 -30.20249382 4.56840747 -36 3 C-32.37276171 1.74441752 -29.7306181 2.31887283 -26 3 C-23.21203174 3.25376425 -20.42004951 3.40834266 -17.625 3.5625 C-16.88894531 3.60568359 -16.15289062 3.64886719 -15.39453125 3.69335938 C-13.59651932 3.79843799 -11.79828042 3.89962093 -10 4 C-10 3.34 -10 2.68 -10 2 C-8.7090864 1.66376204 -7.41723903 1.33110751 -6.125 1 C-5.40570313 0.814375 -4.68640625 0.62875 -3.9453125 0.4375 C-2 0 -2 0 0 0 Z " fill="#504FDB" transform="translate(150,255)"/>
<path d="M0 0 C0.66 0.33 1.32 0.66 2 1 C2.88973654 27.25749401 2.88973654 27.25749401 -2 39 C-2.99 39.495 -2.99 39.495 -4 40 C-3.67 37.03 -3.34 34.06 -3 31 C-2.34 31 -1.68 31 -1 31 C-0.67 20.77 -0.34 10.54 0 0 Z " fill="#889AC2" transform="translate(283,249)"/>
<path d="M0 0 C2.09193152 7.70977988 0.61447535 14.12243925 -1.265625 21.72265625 C-2.25240363 26.12641832 -2.70560581 30.5028749 -3 35 C-3.33 35 -3.66 35 -4 35 C-4.46127001 22.60602965 -4.4248073 11.75339438 0 0 Z " fill="#5857CE" transform="translate(114,142)"/>
<path d="M0 0 C4.53141426 6.79712139 3.73437724 15.82150483 2.62109375 23.671875 C2.15283088 25.81039834 1.61446366 27.89919858 1 30 C0.80921875 30.69351563 0.6184375 31.38703125 0.421875 32.1015625 C-0.03485807 33.73927678 -0.51462993 35.37054333 -1 37 C-1.33 37 -1.66 37 -2 37 C-1 28 -1 28 -0.74389648 26.02905273 C-0.03370364 20.30780972 0.12060038 14.69837577 0.0625 8.9375 C0.05798828 8.07189453 0.05347656 7.20628906 0.04882812 6.31445312 C0.03719913 4.20960461 0.01927073 2.10479242 0 0 Z " fill="#605BC2" transform="translate(246,223)"/>
<path d="M0 0 C0.33 0 0.66 0 1 0 C1.33 4.62 1.66 9.24 2 14 C2.66 13.34 3.32 12.68 4 12 C3.34 18.93 2.68 25.86 2 33 C1.34 33 0.68 33 0 33 C0 22.11 0 11.22 0 0 Z " fill="#757AB9" transform="translate(109,162)"/>
<path d="M0 0 C0.33 0 0.66 0 1 0 C1.125 7.625 1.125 7.625 0 11 C-0.09225211 12.49774018 -0.1300019 13.99942974 -0.125 15.5 C-0.12757812 16.2734375 -0.13015625 17.046875 -0.1328125 17.84375 C-0.08145813 20.18447017 -0.08145813 20.18447017 1 23 C1.0685495 24.89470816 1.08480372 26.7916834 1.0625 28.6875 C1.05347656 29.68136719 1.04445313 30.67523438 1.03515625 31.69921875 C1.02355469 32.45847656 1.01195313 33.21773437 1 34 C0.01 34 -0.98 34 -2 34 C-2.02886537 29.68751391 -2.04675255 25.37505238 -2.0625 21.0625 C-2.07087891 19.83080078 -2.07925781 18.59910156 -2.08789062 17.33007812 C-2.09111328 16.16025391 -2.09433594 14.99042969 -2.09765625 13.78515625 C-2.10289307 12.70113525 -2.10812988 11.61711426 -2.11352539 10.50024414 C-2 8 -2 8 -1 7 C-0.63239269 4.67182036 -0.29758419 2.3381615 0 0 Z " fill="#8783C4" transform="translate(102,116)"/>
<path d="M0 0 C1.125 3.75 1.125 3.75 0 6 C0.99 5.67 1.98 5.34 3 5 C1.66666667 11.66666667 0.33333333 18.33333333 -1 25 C-5.1422295 18.78665576 -2.72661681 10.39615196 -1.53515625 3.40625 C-1 1 -1 1 0 0 Z " fill="#6461DC" transform="translate(104,114)"/>
<path d="M0 0 C0 3 0 3 -2.1875 5.375 C-3.115625 6.24125 -4.04375 7.1075 -5 8 C-5.886875 8.886875 -6.77375 9.77375 -7.6875 10.6875 C-9.125 12.125 -10.5625 13.5625 -12 15 C-12.99 15 -13.98 15 -15 15 C-15 15.66 -15 16.32 -15 17 C-16.96466413 18.06775224 -18.96855359 19.06553465 -21 20 C-21.66 19.67 -22.32 19.34 -23 19 C-22.09378906 18.29875 -21.18757812 17.5975 -20.25390625 16.875 C-13.29524463 11.46430117 -6.48161139 5.98434491 0 0 Z " fill="#7675DD" transform="translate(197,261)"/>
<path d="M0 0 C4.95 0 9.9 0 15 0 C15 1.32 15 2.64 15 4 C10.05 4 5.1 4 0 4 C0 2.68 0 1.36 0 0 Z " fill="#6D6D6D" transform="translate(490,259)"/>
<path d="M0 0 C1.65 0 3.3 0 5 0 C5 1.65 5 3.3 5 5 C4.17242187 5.10634766 4.17242187 5.10634766 3.328125 5.21484375 C0.09280325 6.30595058 -1.76642713 8.24232008 -4.25 10.5625 C-5.14203125 11.38878906 -6.0340625 12.21507812 -6.953125 13.06640625 C-7.62859375 13.70449219 -8.3040625 14.34257812 -9 15 C-9.33 14.01 -9.66 13.02 -10 12 C-9.04287109 11.07767578 -9.04287109 11.07767578 -8.06640625 10.13671875 C-6.82697266 8.92435547 -6.82697266 8.92435547 -5.5625 7.6875 C-4.73878906 6.88699219 -3.91507813 6.08648437 -3.06640625 5.26171875 C-0.80596523 3.09529192 -0.80596523 3.09529192 0 0 Z " fill="#5449FC" transform="translate(189,179)"/>
<path d="M0 0 C3.9974416 0.61163041 7.11845719 1.86079316 10.6875 3.75 C11.64011719 4.23984375 12.59273437 4.7296875 13.57421875 5.234375 C16.40392866 7.29400283 17.10140465 8.65785589 18 12 C18 12.99 18 13.98 18 15 C17.3709375 14.40832031 16.741875 13.81664062 16.09375 13.20703125 C10.97217523 8.47883044 5.98945132 4.54930448 0 1 C0 0.67 0 0.34 0 0 Z " fill="#6B65CC" transform="translate(235,186)"/>
<path d="M0 0 C3.77081636 -0.0294985 7.54160231 -0.04696364 11.3125 -0.0625 C12.36501953 -0.07087891 13.41753906 -0.07925781 14.50195312 -0.08789062 C21.39311686 -0.10909421 28.15030513 0.24328318 35 1 C35 1.33 35 1.66 35 2 C31.89635771 2.19696449 28.79207808 2.38093262 25.6875 2.5625 C24.36588867 2.64661133 24.36588867 2.64661133 23.01757812 2.73242188 C21.74624023 2.80493164 21.74624023 2.80493164 20.44921875 2.87890625 C19.27879028 2.94960327 19.27879028 2.94960327 18.0847168 3.02172852 C16 3 16 3 13 2 C10.77425665 1.77548542 8.54418481 1.59217122 6.3125 1.4375 C5.13300781 1.35371094 3.95351562 1.26992187 2.73828125 1.18359375 C1.83464844 1.12300781 0.93101562 1.06242187 0 1 C0 0.67 0 0.34 0 0 Z " fill="#726ED0" transform="translate(167,102)"/>
<path d="M0 0 C0 0.66 0 1.32 0 2 C12.54 2 25.08 2 38 2 C38 2.33 38 2.66 38 3 C24.14 3 10.28 3 -4 3 C-4 2.34 -4 1.68 -4 1 C-2 0 -2 0 0 0 Z " fill="#9997D5" transform="translate(146,299)"/>
<path d="M0 0 C0 0.99 0 1.98 0 3 C-1.6796875 4.60546875 -1.6796875 4.60546875 -3.875 6.1875 C-4.59429687 6.71730469 -5.31359375 7.24710937 -6.0546875 7.79296875 C-8 9 -8 9 -10 9 C-10 9.66 -10 10.32 -10 11 C-11.32 11.33 -12.64 11.66 -14 12 C-14 11.34 -14 10.68 -14 10 C-14.99 9.67 -15.98 9.34 -17 9 C-15.85660156 8.43410156 -14.71320313 7.86820312 -13.53515625 7.28515625 C-12.04421862 6.54437592 -10.55333604 5.80348478 -9.0625 5.0625 C-8.30775391 4.68931641 -7.55300781 4.31613281 -6.77539062 3.93164062 C-6.05673828 3.57392578 -5.33808594 3.21621094 -4.59765625 2.84765625 C-3.93258057 2.51773682 -3.26750488 2.18781738 -2.58227539 1.84790039 C-1.00380637 1.10022992 -1.00380637 1.10022992 0 0 Z " fill="#7F7ACD" transform="translate(141,270)"/>
<path d="M0 0 C-7.25006015 5.23615455 -14.96895405 9.13870053 -23 13 C-22 10 -22 10 -20.328125 8.97265625 C-19.64234375 8.67230469 -18.9565625 8.37195313 -18.25 8.0625 C-14.72668074 6.41995614 -12.01939162 4.4631879 -9 2 C-3.52554745 -1.17518248 -3.52554745 -1.17518248 0 0 Z " fill="#6167C5" transform="translate(173,244)"/>
<path d="M0 0 C4.07453229 0.62304741 6.89539701 2.76532621 10.25 5.0625 C11.32765625 5.79597656 12.4053125 6.52945313 13.515625 7.28515625 C14.33546875 7.85105469 15.1553125 8.41695312 16 9 C15.01 10.32 14.02 11.64 13 13 C12.48050781 12.45730469 11.96101562 11.91460937 11.42578125 11.35546875 C7.80447315 7.64044843 4.54957526 4.55913609 0 2 C0 1.34 0 0.68 0 0 Z " fill="#7C81BC" transform="translate(195,169)"/>
<path d="M0 0 C2.64 0.33 5.28 0.66 8 1 C8.33 1.99 8.66 2.98 9 4 C9.99 4 10.98 4 12 4 C11.67 2.68 11.34 1.36 11 0 C13.79872437 2.52788007 15.45773019 4.20411134 16 8 C10.31497465 6.35433477 5.23318364 3.70967216 0 1 C0 0.67 0 0.34 0 0 Z " fill="#7D79D2" transform="translate(234,160)"/>
<path d="M0 0 C5.57142857 5.14285714 5.57142857 5.14285714 6 9 C4.02 9.66 2.04 10.32 0 11 C-0.66 9.35 -1.32 7.7 -2 6 C-1.01 6 -0.02 6 1 6 C0.67 4.02 0.34 2.04 0 0 Z " fill="#7374E2" transform="translate(264,206)"/>
<path d="M0 0 C2.26171875 0.078125 2.26171875 0.078125 5 1 C6.54879759 3.28874538 7.67635793 5.27205659 8.8125 7.75 C9.12380859 8.37132812 9.43511719 8.99265625 9.75585938 9.6328125 C11.4747445 13.214138 12.38690159 16.02477579 12 20 C9.77986049 17.77986049 9.28401865 16.3047195 8.25 13.375 C6.26996419 8.21490667 3.53315677 4.21623375 0 0 Z " fill="#808DD5" transform="translate(209,182)"/>
<path d="M0 0 C0 0.66 0 1.32 0 2 C-1.49104489 3.19283591 -2.98244298 4.38523631 -4.4765625 5.57421875 C-6.73804295 7.6907325 -7.74870717 10.19948749 -9 13 C-10.5625 15.375 -10.5625 15.375 -12 17 C-12.66 17 -13.32 17 -14 17 C-12.67288846 13.26295953 -11.03431904 10.46876061 -8.5625 7.375 C-7.96566406 6.61960937 -7.36882812 5.86421875 -6.75390625 5.0859375 C-2.47752809 0 -2.47752809 0 0 0 Z " fill="#5A54C9" transform="translate(133,117)"/>
<path d="M0 0 C4.06498881 1.37184347 6.67396561 3.22068459 9.8125 6.125 C10.99779297 7.21167969 10.99779297 7.21167969 12.20703125 8.3203125 C12.79871094 8.87460938 13.39039063 9.42890625 14 10 C12 11 12 11 9.8125 10.5625 C5.64210695 8.24561497 2.87373952 4.76815989 0 1 C0 0.67 0 0.34 0 0 Z " fill="#5252D5" transform="translate(215,183)"/>
<path d="M0 0 C0.80244141 0.04833984 1.60488281 0.09667969 2.43164062 0.14648438 C3.68170898 0.2305957 3.68170898 0.2305957 4.95703125 0.31640625 C6.22450195 0.3947168 6.22450195 0.3947168 7.51757812 0.47460938 C9.60189424 0.60414314 11.68576307 0.74083802 13.76953125 0.87890625 C10.0193971 3.37899568 7.04441219 3.17492621 2.70703125 3.12890625 C1.97419922 3.13664062 1.24136719 3.144375 0.48632812 3.15234375 C-4.97709893 3.13227607 -4.97709893 3.13227607 -7.23046875 0.87890625 C-4.35516794 -0.07952735 -2.93996944 -0.18765762 0 0 Z " fill="#7B7FD2" transform="translate(85.23046875,289.12109375)"/>
<path d="M0 0 C2.9375 1.6875 2.9375 1.6875 5 4 C5.3125 6.75 5.3125 6.75 5 9 C4.01 9 3.02 9 2 9 C1.67 7.02 1.34 5.04 1 3 C-1.75078884 2.08307039 -3.35948913 1.89113917 -6.1875 1.9375 C-7.445625 1.958125 -8.70375 1.97875 -10 2 C-6.2626144 -0.4915904 -4.42668417 -0.45793285 0 0 Z " fill="#8DA5C4" transform="translate(166,59)"/>
<path d="M0 0 C0.80859375 1.671875 0.80859375 1.671875 1 4 C-1.08984375 6.578125 -1.08984375 6.578125 -3.9375 9.25 C-4.87464844 10.14203125 -5.81179687 11.0340625 -6.77734375 11.953125 C-7.51082031 12.62859375 -8.24429688 13.3040625 -9 14 C-9.66 13.34 -10.32 12.68 -11 12 C-10.34 12 -9.68 12 -9 12 C-8.61714844 11.14148438 -8.61714844 11.14148438 -8.2265625 10.265625 C-6.86912841 7.75826267 -5.28025896 5.8669544 -3.375 3.75 C-2.74335938 3.04359375 -2.11171875 2.3371875 -1.4609375 1.609375 C-0.97882813 1.07828125 -0.49671875 0.5471875 0 0 Z " fill="#A7A2F4" transform="translate(135,215)"/>
<path d="M0 0 C5.28 0 10.56 0 16 0 C16 0.33 16 0.66 16 1 C14.2984375 1.2165625 14.2984375 1.2165625 12.5625 1.4375 C9.19222799 1.61171478 9.19222799 1.61171478 8 3 C5.32941149 3.14115161 2.67567762 3.04247107 0 3 C0 2.01 0 1.02 0 0 Z " fill="#CECBF1" transform="translate(100,219)"/>
<path d="M0 0 C0.671875 1.796875 0.671875 1.796875 1 4 C-0.109375 5.703125 -0.109375 5.703125 -1.75 7.25 C-2.54664063 8.03117188 -2.54664063 8.03117188 -3.359375 8.828125 C-5 10 -5 10 -8 10 C-6.34908222 5.70761377 -3.26245434 3.1206085 0 0 Z " fill="#695FFA" transform="translate(178,191)"/>
<path d="M0 0 C-3.68734758 2.45823172 -6.69699971 3.01242616 -11 4 C-11 4.66 -11 5.32 -11 6 C-12.98 6 -14.96 6 -17 6 C-16.443125 5.7525 -15.88625 5.505 -15.3125 5.25 C-12.86475809 4.05554721 -12.86475809 4.05554721 -10.75 1.875 C-6.93187235 -0.72826885 -4.55023159 -0.30849028 0 0 Z " fill="#6667EE" transform="translate(117,284)"/>
<path d="M0 0 C0.99 0.33 1.98 0.66 3 1 C2.45730469 1.60328125 1.91460937 2.2065625 1.35546875 2.828125 C0.28232422 4.02695313 0.28232422 4.02695313 -0.8125 5.25 C-1.52019531 6.03890625 -2.22789063 6.8278125 -2.95703125 7.640625 C-4.74168935 9.7016833 -6.39759062 11.79605523 -8 14 C-7.43697042 10.05879291 -6.3208055 7.2491277 -4 4 C-3.34 4 -2.68 4 -2 4 C-2 3.34 -2 2.68 -2 2 C-1.34 2 -0.68 2 0 2 C0 1.34 0 0.68 0 0 Z " fill="#7E8BDF" transform="translate(125,150)"/>
<path d="M0 0 C0.66 0 1.32 0 2 0 C2 4.29 2 8.58 2 13 C1.67 13 1.34 13 1 13 C0.67 10.69 0.34 8.38 0 6 C-0.33 6.66 -0.66 7.32 -1 8 C-1.66 8 -2.32 8 -3 8 C-1.125 2.25 -1.125 2.25 0 0 Z " fill="#6864C6" transform="translate(77,138)"/>
<path d="M0 0 C0.66 0.33 1.32 0.66 2 1 C-1.95825209 5.82485166 -5.59160025 9.83410746 -11 13 C-9.46356148 9.31930113 -7.21849055 7.01224796 -4.375 4.25 C-3.55773437 3.45078125 -2.74046875 2.6515625 -1.8984375 1.828125 C-0.95871094 0.92320312 -0.95871094 0.92320312 0 0 Z " fill="#5A62F1" transform="translate(132,131)"/>
<path d="M0 0 C-1 3 -1 3 -2.99609375 4.203125 C-3.80175781 4.54859375 -4.60742188 4.8940625 -5.4375 5.25 C-6.24058594 5.60578125 -7.04367188 5.9615625 -7.87109375 6.328125 C-10 7 -10 7 -12 6 C-10.37829621 4.99466333 -8.75252763 3.99588093 -7.125 3 C-5.76761719 2.1646875 -5.76761719 2.1646875 -4.3828125 1.3125 C-2 0 -2 0 0 0 Z " fill="#7D79DE" transform="translate(158,292)"/>
<path d="M0 0 C1.93784265 0.14120714 3.87526955 0.28812873 5.8125 0.4375 C7.43091797 0.55931641 7.43091797 0.55931641 9.08203125 0.68359375 C12 1 12 1 15 2 C15 2.66 15 3.32 15 4 C9.76119922 3.44854729 5.02649303 2.57077907 0 1 C0 0.67 0 0.34 0 0 Z " fill="#8183DD" transform="translate(175,140)"/>
<path d="M0 0 C0.66 0 1.32 0 2 0 C0.59023295 3.03852705 -1.08870228 5.5939595 -3.125 8.25 C-3.66382812 8.95640625 -4.20265625 9.6628125 -4.7578125 10.390625 C-5.16773437 10.92171875 -5.57765625 11.4528125 -6 12 C-6.33 11.01 -6.66 10.02 -7 9 C-6.34 8.01 -5.68 7.02 -5 6 C-4.34 6 -3.68 6 -3 6 C-2.67 4.68 -2.34 3.36 -2 2 C-1.34 2 -0.68 2 0 2 C0 1.34 0 0.68 0 0 Z " fill="#6E72D7" transform="translate(120,95)"/>
<path d="M0 0 C2.4375 1.125 2.4375 1.125 5 3 C5.8125 6.1875 5.8125 6.1875 6 9 C5.01 9 4.02 9 3 9 C1.76078698 6.02588876 0.69941596 3.14737182 0 0 Z " fill="#6663F2" transform="translate(259,203)"/>
<path d="M0 0 C0.33 0 0.66 0 1 0 C0.53680089 4.72463088 -0.09891706 8.17057052 -3 12 C-3.66 12 -4.32 12 -5 12 C-3.68938409 7.76570244 -2.05643741 3.92592596 0 0 Z " fill="#7C78DA" transform="translate(65,162)"/>
<path d="M0 0 C2.31 0 4.62 0 7 0 C7 0.66 7 1.32 7 2 C7.639375 2.12375 8.27875 2.2475 8.9375 2.375 C9.618125 2.58125 10.29875 2.7875 11 3 C11.33 3.66 11.66 4.32 12 5 C10.18504338 4.55149342 8.37306866 4.09090429 6.5625 3.625 C5.55316406 3.36976563 4.54382813 3.11453125 3.50390625 2.8515625 C1 2 1 2 0 0 Z " fill="#7B7ADB" transform="translate(206,148)"/>
<path d="M0 0 C1.60407328 -0.02708567 3.2082785 -0.04643483 4.8125 -0.0625 C5.70582031 -0.07410156 6.59914062 -0.08570313 7.51953125 -0.09765625 C10 0 10 0 13 1 C13.33 1.99 13.66 2.98 14 4 C9.38 3.01 4.76 2.02 0 1 C0 0.67 0 0.34 0 0 Z " fill="#8080D9" transform="translate(190,144)"/>
<path d="M0 0 C1.65 0 3.3 0 5 0 C2.92141021 2.18092036 0.78143382 3.96390469 -1.6875 5.6875 C-2.62142578 6.34298828 -2.62142578 6.34298828 -3.57421875 7.01171875 C-4.04472656 7.33785156 -4.51523438 7.66398437 -5 8 C-4.67 6.68 -4.34 5.36 -4 4 C-3.34 4 -2.68 4 -2 4 C-2 3.34 -2 2.68 -2 2 C-1.34 2 -0.68 2 0 2 C0 1.34 0 0.68 0 0 Z " fill="#7A89CE" transform="translate(134,82)"/>
<path d="M0 0 C2.08304538 -0.05418326 4.16649768 -0.09287551 6.25 -0.125 C7.99023438 -0.15980469 7.99023438 -0.15980469 9.765625 -0.1953125 C12.82786046 -0.0103949 14.44202751 0.39176977 17 2 C14.36 2.33 11.72 2.66 9 3 C9 2.34 9 1.68 9 1 C6.03 1 3.06 1 0 1 C0 0.67 0 0.34 0 0 Z " fill="#6E81F4" transform="translate(134,253)"/>
<path d="M0 0 C0.33 0 0.66 0 1 0 C1.69640673 2.12209776 2.38188357 4.24778527 3.0625 6.375 C3.44535156 7.55835938 3.82820313 8.74171875 4.22265625 9.9609375 C5 13 5 13 4 15 C0.40621058 9.60931587 -0.45356243 6.46326465 0 0 Z " fill="#8D8DD8" transform="translate(85,189)"/>
<path d="M0 0 C3.38297413 0.17805127 4.76272061 0.78837244 7.3125 3.0625 C8.1478125 4.0215625 8.1478125 4.0215625 9 5 C8.67 5.66 8.34 6.32 8 7 C7.46375 6.360625 6.9275 5.72125 6.375 5.0625 C3.55632807 2.61470596 1.66139268 2.33285388 -2 2 C-1.34 1.34 -0.68 0.68 0 0 Z " fill="#635ECD" transform="translate(204,104)"/>
<path d="M0 0 C0.66 0.33 1.32 0.66 2 1 C-2.455 3.97 -2.455 3.97 -7 7 C-7 6.01 -7 5.02 -7 4 C-4.68806023 1.92722641 -2.97064418 0.99021473 0 0 Z " fill="#7F8DDF" transform="translate(161,247)"/>
<path d="M0 0 C0.33 0 0.66 0 1 0 C1.33872513 1.41538717 1.67074624 2.83237963 2 4.25 C2.185625 5.03890625 2.37125 5.8278125 2.5625 6.640625 C3 9 3 9 3 13 C2.34 13 1.68 13 1 13 C-0.00496852 9.98509443 -0.10335303 7.95818308 -0.0625 4.8125 C-0.05347656 3.91144531 -0.04445313 3.01039063 -0.03515625 2.08203125 C-0.02355469 1.39496094 -0.01195312 0.70789063 0 0 Z " fill="#838CCA" transform="translate(281,236)"/>
<path d="M0 0 C-0.66 1.32 -1.32 2.64 -2 4 C-4.31 4 -6.62 4 -9 4 C-8 2 -8 2 -5.625 0.875 C-3 0 -3 0 0 0 Z " fill="#6C67E2" transform="translate(127,280)"/>
<path d="M0 0 C2.875 0.3125 2.875 0.3125 6 1 C6.66 1.99 7.32 2.98 8 4 C6 5 6 5 3.4375 4.25 C1 3 1 3 0 0 Z " fill="#656FE1" transform="translate(208,179)"/>
<path d="M0 0 C0.66 0.33 1.32 0.66 2 1 C-0.475 5.455 -0.475 5.455 -3 10 C-3.33 10 -3.66 10 -4 10 C-4 8.35 -4 6.7 -4 5 C-3.34 5 -2.68 5 -2 5 C-1.34 3.35 -0.68 1.7 0 0 Z " fill="#504AC8" transform="translate(240,265)"/>
<path d="M0 0 C0.66 0 1.32 0 2 0 C2 0.66 2 1.32 2 2 C2.99 2 3.98 2 5 2 C6.0625 3.8125 6.0625 3.8125 7 6 C6.67 6.99 6.34 7.98 6 9 C4.99712471 7.68969568 3.99777175 6.37669473 3 5.0625 C2.443125 4.33160156 1.88625 3.60070312 1.3125 2.84765625 C0 1 0 1 0 0 Z " fill="#504BC5" transform="translate(61,235)"/>
<path d="M0 0 C0.33 0 0.66 0 1 0 C1.390625 5.95703125 1.390625 5.95703125 1 8 C-0.32 8.99 -1.64 9.98 -3 11 C-2.01 7.37 -1.02 3.74 0 0 Z " fill="#8187D8" transform="translate(220,225)"/>
<path d="M0 0 C0.66 0 1.32 0 2 0 C2 0.66 2 1.32 2 2 C0.01739574 3.68732277 -1.9832342 5.35366057 -4 7 C-4.33 7.66 -4.66 8.32 -5 9 C-5.66 8.67 -6.32 8.34 -7 8 C-5.88200014 6.66079162 -4.75538103 5.32877444 -3.625 4 C-2.68527344 2.88625 -2.68527344 2.88625 -1.7265625 1.75 C-1.15679687 1.1725 -0.58703125 0.595 0 0 Z " fill="#6964C9" transform="translate(131,117)"/>
<path d="M0 0 C1.39195915 4.17587745 -0.17676781 6.13474776 -2 10 C-2.66 10 -3.32 10 -4 10 C-3.43454163 6.04179141 -2.19097652 3.3340947 0 0 Z " fill="#7172DA" transform="translate(111,108)"/>
<path d="M0 0 C0.66 0 1.32 0 2 0 C0.92598892 2.91517292 0.22189824 4.77810176 -2 7 C-2.99 6.67 -3.98 6.34 -5 6 C-3.38405168 3.95880212 -1.7143618 1.95927063 0 0 Z " fill="#7C87D5" transform="translate(124,80)"/>
<path d="M0 0 C0 0.66 0 1.32 0 2 C2.97 2 5.94 2 9 2 C9 2.33 9 2.66 9 3 C4.71 3 0.42 3 -4 3 C-4 2.34 -4 1.68 -4 1 C-2 0 -2 0 0 0 Z " fill="#8783CD" transform="translate(146,299)"/>
<path d="M0 0 C0 0.99 0 1.98 0 3 C-2.5 5.1875 -2.5 5.1875 -5 7 C-5.99 6.34 -6.98 5.68 -8 5 C-4.04 2.525 -4.04 2.525 0 0 Z " fill="#8782B3" transform="translate(141,270)"/>
<path d="M0 0 C1.65 0 3.3 0 5 0 C5.33 1.32 5.66 2.64 6 4 C6.66 4 7.32 4 8 4 C7.67 4.66 7.34 5.32 7 6 C5.83054208 5.19152271 4.66449539 4.37810888 3.5 3.5625 C2.8503125 3.11003906 2.200625 2.65757812 1.53125 2.19140625 C1.0259375 1.79824219 0.520625 1.40507812 0 1 C0 0.67 0 0.34 0 0 Z " fill="#5F5AC6" transform="translate(75,252)"/>
<path d="M0 0 C3.34373475 0.55728913 6.03312999 1.35173889 9 3 C9 3.66 9 4.32 9 5 C5.51694958 4.35499066 2.93797836 2.95865224 0 1 C0 0.67 0 0.34 0 0 Z " fill="#766FB1" transform="translate(235,186)"/>
<path d="M0 0 C0.33 1.32 0.66 2.64 1 4 C0.34 4 -0.32 4 -1 4 C-1.33 5.65 -1.66 7.3 -2 9 C-2.99 9.33 -3.98 9.66 -5 10 C-3.66511872 6.40608886 -2.03977277 3.24509304 0 0 Z " fill="#8181D0" transform="translate(112,95)"/>
<path d="M0 0 C0.66 0 1.32 0 2 0 C2.28875 1.134375 2.5775 2.26875 2.875 3.4375 C3.24625 4.613125 3.6175 5.78875 4 7 C4.66 7.33 5.32 7.66 6 8 C5.34 8.66 4.68 9.32 4 10 C0 3.375 0 3.375 0 0 Z " fill="#4D47BE" transform="translate(53,220)"/>
<path d="M0 0 C1.65 0 3.3 0 5 0 C5 1.65 5 3.3 5 5 C3.68 4.67 2.36 4.34 1 4 C0.67 2.68 0.34 1.36 0 0 Z " fill="#3022FE" transform="translate(189,179)"/>
<path d="M0 0 C-1.98 1.32 -3.96 2.64 -6 4 C-6.99 3.34 -7.98 2.68 -9 2 C-3.375 -1.125 -3.375 -1.125 0 0 Z " fill="#8E92B1" transform="translate(173,244)"/>
<path d="M0 0 C0.556875 0.226875 1.11375 0.45375 1.6875 0.6875 C-1.64583333 2.35416667 -4.97916667 4.02083333 -8.3125 5.6875 C-7.3125 2.6875 -7.3125 2.6875 -5 0.9375 C-2.3125 -0.3125 -2.3125 -0.3125 0 0 Z " fill="#7D89E0" transform="translate(136.3125,144.3125)"/>
<path d="M0 0 C0.99 0 1.98 0 3 0 C1.63016497 3.16115776 1.0109362 3.9927092 -2 6 C-1.125 1.125 -1.125 1.125 0 0 Z " fill="#757BDE" transform="translate(115,91)"/>
</svg>
