<?xml version="1.0" encoding="UTF-8"?>
<svg version="1.1" xmlns="http://www.w3.org/2000/svg" width="477" height="236">
<path d="M0 0 C157.41 0 314.82 0 477 0 C477 77.88 477 155.76 477 236 C319.59 236 162.18 236 0 236 C0 158.12 0 80.24 0 0 Z " fill="#EEEEEE" transform="translate(0,0)"/>
<path d="M0 0 C0.71607422 -0.01224609 1.43214844 -0.02449219 2.16992188 -0.03710938 C13.16940423 -0.06713526 13.16940423 -0.06713526 16.83618164 3.57788086 C18.23676137 5.410981 19.46942072 7.29094572 20.6875 9.25 C21.14350586 9.95012207 21.59951172 10.65024414 22.06933594 11.37158203 C23.03617387 12.86011647 23.99464214 14.35411566 24.9453125 15.85302734 C26.47335579 18.24359508 28.04300043 20.60187763 29.625 22.95703125 C30.64667349 24.49162849 31.66753071 26.02676954 32.6875 27.5625 C33.17766602 28.293479 33.66783203 29.02445801 34.17285156 29.77758789 C35.3236295 31.54162586 36.38977648 33.3603724 37.4375 35.1875 C36.9425 36.1775 36.9425 36.1775 36.4375 37.1875 C35.38433594 36.66800781 34.33117187 36.14851563 33.24609375 35.61328125 C23.8155477 31.02788736 14.506454 27.14825195 4.4375 24.1875 C3.6434375 23.94128906 2.849375 23.69507812 2.03125 23.44140625 C-7.145283 20.95894863 -18.24598672 20.40649285 -26.76953125 24.99609375 C-33.31138572 29.34307766 -36.71407778 35.0077024 -38.25390625 42.59375 C-38.7503308 45.7875303 -39.19055612 48.97703707 -39.5625 52.1875 C-40.2225 52.1875 -40.8825 52.1875 -41.5625 52.1875 C-41.87638098 36.99914836 -41.31569023 23.72731601 -31.5625 11.1875 C-22.36017009 1.79688712 -12.72381578 0.01151477 0 0 Z " fill="#636DF7" transform="translate(110.5625,75.8125)"/>
<path d="M0 0 C0.66 0 1.32 0 2 0 C2.10957031 1.13695313 2.21914063 2.27390625 2.33203125 3.4453125 C4.25535688 22.56616663 6.72499289 44.62316414 21.5625 58.375 C28.54875398 63.03250265 35.84428771 62.71570536 44 62 C47.54255027 61.00635785 50.74805291 59.71396741 54 58 C54 58.66 54 59.32 54 60 C41.527325 67.19711779 27.29052524 75.175992 12.4453125 71.33984375 C6.13733705 69.12534173 1.65608955 65.72413262 -3 61 C-3.91072266 60.12214844 -3.91072266 60.12214844 -4.83984375 59.2265625 C-10.18310064 53.68454113 -15.59138264 45.90444756 -16.13623047 38.03149414 C-15.75554001 30.77942331 -12.34353512 24.68550103 -9.125 18.3125 C-8.31095703 16.66024414 -8.31095703 16.66024414 -7.48046875 14.97460938 C-6.00025436 11.97617999 -4.50355436 8.9867765 -3 6 C-1.999593 4.00020355 -0.99948229 2.00025877 0 0 Z " fill="#656FF6" transform="translate(51,96)"/>
<path d="M0 0 C12.14209368 7.1790706 24.53923833 15.93144398 29 30 C30.16542265 44.36345577 27.25681607 53.24168231 19 65 C18.65638428 65.76965088 18.31276855 66.53930176 17.95874023 67.33227539 C16.25698847 70.45118143 14.98001907 72.01200737 12 74 C5.03331735 75.55535951 -2.36175569 74.84040284 -9.4375 74.5625 C-11.42894644 74.51732449 -13.42049078 74.47626527 -15.41210938 74.43945312 C-20.27716486 74.34057987 -25.13750705 74.18547033 -30 74 C-26.78426229 71.39433367 -23.60756162 69.07327672 -20.0625 66.9375 C-7.16403399 58.77369358 9.29882268 47.78515362 13 32 C13.75823323 25.07214269 14.14461129 17.98172596 10.48828125 11.8125 C7.94163095 8.71106762 4.93958394 6.18334055 1.828125 3.6640625 C1.22484375 3.11492187 0.6215625 2.56578125 0 2 C0 1.34 0 0.68 0 0 Z " fill="#636CF6" transform="translate(118,113)"/>
<path d="M0 0 C1.98 0 3.96 0 6 0 C9.94223561 7.42959788 12.93540977 15.18091694 16 23 C16.66 24.65 17.32 26.3 18 28 C18.33 18.76 18.66 9.52 19 0 C21.31 0 23.62 0 26 0 C26 16.17 26 32.34 26 49 C23.69 49 21.38 49 19 49 C15.04 39.1 11.08 29.2 7 19 C6.67 28.9 6.34 38.8 6 49 C4.02 49 2.04 49 0 49 C0 32.83 0 16.66 0 0 Z " fill="#2D2D2D" transform="translate(219,78)"/>
<path d="M0 0 C0.87914062 0.00064453 1.75828125 0.00128906 2.6640625 0.00195312 C4.03691406 0.02612305 4.03691406 0.02612305 5.4375 0.05078125 C6.35273438 0.04755859 7.26796875 0.04433594 8.2109375 0.04101562 C15.03667092 0.09606186 15.03667092 0.09606186 18.4375 2.36328125 C18.73046875 5.62109375 18.73046875 5.62109375 18.625 9.48828125 C18.59792969 10.76960938 18.57085937 12.0509375 18.54296875 13.37109375 C18.50816406 14.35851562 18.47335937 15.3459375 18.4375 16.36328125 C15.4675 15.86828125 15.4675 15.86828125 12.4375 15.36328125 C12.1075 13.05328125 11.7775 10.74328125 11.4375 8.36328125 C7.4775 8.03328125 3.5175 7.70328125 -0.5625 7.36328125 C-0.5625 18.91328125 -0.5625 30.46328125 -0.5625 42.36328125 C5.3775 41.86828125 5.3775 41.86828125 11.4375 41.36328125 C11.7675 38.72328125 12.0975 36.08328125 12.4375 33.36328125 C10.1275 33.36328125 7.8175 33.36328125 5.4375 33.36328125 C6.3125 27.48828125 6.3125 27.48828125 7.4375 26.36328125 C9.29037502 26.29101623 11.14583878 26.27946905 13 26.30078125 C14.01191406 26.30980469 15.02382813 26.31882812 16.06640625 26.328125 C17.24009766 26.34552734 17.24009766 26.34552734 18.4375 26.36328125 C18.52456892 29.63394691 18.57791241 32.9043149 18.625 36.17578125 C18.65013672 37.10455078 18.67527344 38.03332031 18.70117188 38.99023438 C18.71083984 39.88291016 18.72050781 40.77558594 18.73046875 41.6953125 C18.7461792 42.51749268 18.76188965 43.33967285 18.77807617 44.18676758 C18.4375 46.36328125 18.4375 46.36328125 17.2043457 48.13012695 C14.95726564 49.69845656 13.60226907 49.75022745 10.875 49.76171875 C9.99585938 49.76558594 9.11671875 49.76945312 8.2109375 49.7734375 C7.29570312 49.76183594 6.38046875 49.75023437 5.4375 49.73828125 C4.52226562 49.74988281 3.60703125 49.76148438 2.6640625 49.7734375 C1.78492188 49.76957031 0.90578125 49.76570313 0 49.76171875 C-1.20462891 49.75664307 -1.20462891 49.75664307 -2.43359375 49.75146484 C-5.12247551 49.26117562 -5.87067707 48.48018457 -7.5625 46.36328125 C-7.94345093 44.39025879 -7.94345093 44.39025879 -7.95068359 42.12304688 C-7.96014008 41.27206421 -7.96959656 40.42108154 -7.9793396 39.54431152 C-7.97326691 38.62863403 -7.96719421 37.71295654 -7.9609375 36.76953125 C-7.96380768 35.82646118 -7.96667786 34.88339111 -7.96963501 33.91174316 C-7.97167646 31.91788126 -7.96614093 29.92399937 -7.95361328 27.93017578 C-7.93756089 24.87487081 -7.95345933 21.82088873 -7.97265625 18.765625 C-7.97067383 16.82942416 -7.96683019 14.89322414 -7.9609375 12.95703125 C-7.96701019 12.04135376 -7.97308289 11.12567627 -7.9793396 10.18225098 C-7.96988312 9.33126831 -7.96042664 8.48028564 -7.95068359 7.60351562 C-7.94829681 6.85533569 -7.94591003 6.10715576 -7.94345093 5.33630371 C-7.07581038 0.84261657 -4.1664839 -0.01546548 0 0 Z " fill="#2F2F2F" transform="translate(309.5625,77.63671875)"/>
<path d="M0 0 C0.87914062 0.00064453 1.75828125 0.00128906 2.6640625 0.00195312 C4.03691406 0.02612305 4.03691406 0.02612305 5.4375 0.05078125 C6.35273438 0.04755859 7.26796875 0.04433594 8.2109375 0.04101562 C15.03667092 0.09606186 15.03667092 0.09606186 18.4375 2.36328125 C18.73046875 4.74609375 18.73046875 4.74609375 18.625 7.48828125 C18.59792969 8.39835937 18.57085937 9.3084375 18.54296875 10.24609375 C18.50816406 10.94476563 18.47335937 11.6434375 18.4375 12.36328125 C16.7875 12.36328125 15.1375 12.36328125 13.4375 12.36328125 C13.23382813 11.71875 13.03015625 11.07421875 12.8203125 10.41015625 C11.5707065 8.05174253 11.5707065 8.05174253 8.6171875 7.75390625 C7.52664063 7.7075 6.43609375 7.66109375 5.3125 7.61328125 C3.66894531 7.52820313 3.66894531 7.52820313 1.9921875 7.44140625 C1.14914062 7.415625 0.30609375 7.38984375 -0.5625 7.36328125 C-0.5625 10.99328125 -0.5625 14.62328125 -0.5625 18.36328125 C0.99210937 18.31107422 0.99210937 18.31107422 2.578125 18.2578125 C3.94790042 18.22966643 5.31769341 18.20236714 6.6875 18.17578125 C7.36941406 18.15064453 8.05132812 18.12550781 8.75390625 18.09960938 C11.72774915 18.05630098 13.98156273 18.12171804 16.63598633 19.52807617 C19.10004719 22.03821921 18.93995782 23.54197955 18.93359375 27.01953125 C18.93423828 28.12425781 18.93488281 29.22898437 18.93554688 30.3671875 C18.91556641 31.52089844 18.89558594 32.67460938 18.875 33.86328125 C18.88208984 35.01699219 18.88917969 36.17070313 18.89648438 37.359375 C18.83260568 45.78153532 18.83260568 45.78153532 17.19555664 48.19189453 C14.95476611 49.68492507 13.55770073 49.75041524 10.875 49.76171875 C9.99585938 49.76558594 9.11671875 49.76945312 8.2109375 49.7734375 C7.29570312 49.76183594 6.38046875 49.75023437 5.4375 49.73828125 C4.52226562 49.74988281 3.60703125 49.76148438 2.6640625 49.7734375 C1.78492188 49.76957031 0.90578125 49.76570313 0 49.76171875 C-1.20462891 49.75664307 -1.20462891 49.75664307 -2.43359375 49.75146484 C-5.08330029 49.26831881 -5.97581208 48.51352453 -7.5625 46.36328125 C-7.85546875 43.2265625 -7.85546875 43.2265625 -7.75 39.67578125 C-7.72292969 38.49628906 -7.69585937 37.31679687 -7.66796875 36.1015625 C-7.63316406 35.19792969 -7.59835938 34.29429688 -7.5625 33.36328125 C-5.2525 33.69328125 -2.9425 34.02328125 -0.5625 34.36328125 C-0.5625 37.00328125 -0.5625 39.64328125 -0.5625 42.36328125 C5.3775 41.86828125 5.3775 41.86828125 11.4375 41.36328125 C11.4375 36.41328125 11.4375 31.46328125 11.4375 26.36328125 C10.31730469 26.32589844 9.19710938 26.28851563 8.04296875 26.25 C6.5702791 26.18433868 5.09762434 26.11789139 3.625 26.05078125 C2.51801758 26.01694336 2.51801758 26.01694336 1.38867188 25.98242188 C-4.092054 25.70962556 -4.092054 25.70962556 -6.2746582 24.1027832 C-7.88512854 21.92750337 -7.94898596 20.70805805 -7.9609375 18.01953125 C-7.96480469 17.18550781 -7.96867188 16.35148437 -7.97265625 15.4921875 C-7.95525391 14.19087891 -7.95525391 14.19087891 -7.9375 12.86328125 C-7.94910156 11.99574219 -7.96070313 11.12820312 -7.97265625 10.234375 C-7.96685547 8.98333984 -7.96685547 8.98333984 -7.9609375 7.70703125 C-7.95755371 6.94583984 -7.95416992 6.18464844 -7.95068359 5.40039062 C-7.0770342 0.81565442 -4.29496677 -0.01594239 0 0 Z " fill="#2D2D2D" transform="translate(260.5625,77.63671875)"/>
<path d="M0 0 C1.98 0 3.96 0 6 0 C6 6.27 6 12.54 6 19 C10.29 19 14.58 19 19 19 C19 12.73 19 6.46 19 0 C21.31 0 23.62 0 26 0 C26 16.17 26 32.34 26 49 C23.69 49 21.38 49 19 49 C19 41.08 19 33.16 19 25 C14.71 25 10.42 25 6 25 C6 32.92 6 40.84 6 49 C4.02 49 2.04 49 0 49 C0 32.83 0 16.66 0 0 Z " fill="#2D2D2D" transform="translate(337,78)"/>
<path d="M0 0 C2.31 0 4.62 0 7 0 C9.43263414 9.18243261 11.3741542 18.4349477 13.21704102 27.74902344 C13.69370862 30.15635562 14.17565707 32.56258995 14.65820312 34.96875 C14.96384862 36.50254303 15.26919847 38.03639501 15.57421875 39.5703125 C15.71792404 40.28792755 15.86162933 41.0055426 16.00968933 41.74490356 C17 46.76881239 17 46.76881239 17 49 C14.69 49 12.38 49 10 49 C9.67 46.03 9.34 43.06 9 40 C5.7 40 2.4 40 -1 40 C-1.33 42.97 -1.66 45.94 -2 49 C-4.31 49 -6.62 49 -9 49 C-7.48281069 38.32113759 -5.46152329 27.76659458 -3.375 17.1875 C-3.04663503 15.51241682 -2.71850846 13.83728688 -2.390625 12.16210938 C-1.59649106 8.10752993 -0.79915596 4.05359246 0 0 Z " fill="#2D2D2D" transform="translate(412,78)"/>
<path d="M0 0 C1.90673828 0.25830078 1.90673828 0.25830078 4 1 C4.90966797 2.68310547 4.90966797 2.68310547 5.4921875 4.8671875 C5.71898193 5.66535889 5.94577637 6.46353027 6.17944336 7.28588867 C6.5237439 8.56749878 6.5237439 8.56749878 6.875 9.875 C10.36322651 21.78820856 15.07372995 34.18207115 26.1875 40.9375 C35.55122034 44.47490546 45.4795266 43.58182329 55 41 C52.55229545 43.87482078 50.16175663 44.89440249 46.625 46.125 C45.68914062 46.45757812 44.75328125 46.79015625 43.7890625 47.1328125 C35.00469173 49.86408745 26.87178999 50.11212464 18.37890625 46.32421875 C14.36259452 44.08853783 11.21326951 41.26022752 8 38 C7.08927734 37.12214844 7.08927734 37.12214844 6.16015625 36.2265625 C0.52547706 30.38227817 -4.36160124 22.64206469 -5.2890625 14.4453125 C-4.89524627 9.02565098 -2.63797749 4.68028264 0 0 Z " fill="#403EDF" transform="translate(40,119)"/>
<path d="M0 0 C6.72631735 2.93538849 11.63656928 9.53648637 14.34375 16.24609375 C17.17689324 28.13517698 14.98837182 38.2598417 8.75 48.4375 C8.12222656 49.36046875 7.49445313 50.2834375 6.84765625 51.234375 C4.97094424 53.92673483 4.97094424 53.92673483 3.62109375 56.703125 C1.94459128 59.60845354 0.83817231 61.16977674 -2 63 C-7.93818561 64.08553511 -14.02586621 63.51206861 -20 63 C-20 62.34 -20 61.68 -20 61 C-18.5825933 59.82385402 -17.11317222 58.71022097 -15.625 57.625 C-5.82648133 49.98076558 4.65463483 38.57968592 7 26 C7.93924297 16.50642105 5.96915592 9.4614449 0 2 C0 1.34 0 0.68 0 0 Z " fill="#3E3CDF" transform="translate(132,124)"/>
<path d="M0 0 C0.71607422 -0.01224609 1.43214844 -0.02449219 2.16992188 -0.03710938 C6.89884399 -0.05001817 11.01528748 0.33250941 15.4375 2.1875 C17.87109375 4.9375 17.87109375 4.9375 19.875 8.1875 C20.55433594 9.26 21.23367187 10.3325 21.93359375 11.4375 C23.4375 14.1875 23.4375 14.1875 23.4375 16.1875 C20.26157158 15.68578125 17.12641071 15.11958118 13.984375 14.43359375 C-1.40301904 11.15664872 -16.131381 9.49583875 -29.875 18.3125 C-32.94135856 21.59279055 -34.6332424 24.82266167 -36.484375 28.8828125 C-37.5625 31.1875 -37.5625 31.1875 -39.5625 34.1875 C-38.95739556 23.81726179 -36.23097359 15.24311582 -28.3125 8.0625 C-19.6049066 0.98874076 -10.90757742 0.00987111 0 0 Z " fill="#3F3EE0" transform="translate(110.5625,75.8125)"/>
<path d="M0 0 C8.58 0 17.16 0 26 0 C26 2.31 26 4.62 26 7 C23.03 7 20.06 7 17 7 C17 20.86 17 34.72 17 49 C14.69 49 12.38 49 10 49 C10 35.14 10 21.28 10 7 C6.7 7 3.4 7 0 7 C0 4.69 0 2.38 0 0 Z " fill="#333333" transform="translate(371,78)"/>
<path d="M0 0 C2.31 0 4.62 0 7 0 C7 16.17 7 32.34 7 49 C4.69 49 2.38 49 0 49 C0 32.83 0 16.66 0 0 Z " fill="#363636" transform="translate(204,78)"/>
<path d="M0 0 C4.64186258 0.35265034 7.10100411 2.41066511 10.625 5.3125 C21.31746972 13.59650523 31.48690837 15.25439332 44.75732422 14.30126953 C49.11592428 13.71575761 52.86616869 12.0798001 56.75 10.09375 C59 9 59 9 62 9 C50.39138555 17.41203946 39.40105036 21.14884784 25 20 C15.2257408 17.88827733 4.22177634 13.15267244 -2 5 C-1.87165745 2.68983403 -1.63394255 1.63394255 0 0 Z " fill="#6E94D6" transform="translate(26,162)"/>
<path d="M0 0 C7.70783732 1.05661039 13.79173165 7.02341535 18.5859375 12.90234375 C24.75957533 22.060475 27.19394421 29.97271241 27.25 40.8125 C27.270625 41.79798828 27.29125 42.78347656 27.3125 43.79882812 C27.34213941 49.31546285 27.08735955 53.21459271 24 58 C22.33388095 58.042721 20.66617115 58.04063832 19 58 C18.505 57.505 18.505 57.505 18 57 C18.0859375 55.109375 18.0859375 55.109375 18.375 52.75 C18.46523437 51.98171875 18.55546875 51.2134375 18.6484375 50.421875 C19 48 19 48 19.52734375 45.59765625 C21.51369938 34.68090834 20.08796683 23.37002716 14 14 C9.80766187 8.73209947 5.86663288 4.36270844 0 1 C0 0.67 0 0.34 0 0 Z " fill="#6D8FD7" transform="translate(140,123)"/>
<path d="M0 0 C0.66 0.66 1.32 1.32 2 2 C1.63318342 4.93453261 1.13562754 5.86437246 -1 8 C-2.7994816 8.58345952 -4.61504337 9.11784042 -6.4375 9.625 C-17.98426259 13.40016909 -25.9099722 20.57064035 -32 31 C-35.08690674 37.37817316 -35.6203543 43.99619132 -36 51 C-36.33 51 -36.66 51 -37 51 C-38.62735471 39.43258678 -37.37837526 29.97008172 -31 20 C-24.17696421 11.19776299 -12.4315031 -1.77592901 0 0 Z " fill="#6E95D5" transform="translate(102,52)"/>
<path d="M0 0 C1.98 0 3.96 0 6 0 C6 16.17 6 32.34 6 49 C4.02 49 2.04 49 0 49 C0 32.83 0 16.66 0 0 Z " fill="#262626" transform="translate(288,78)"/>
<path d="M0 0 C2.31 0 4.62 0 7 0 C8.32 3.96 9.64 7.92 11 12 C12.71017726 9.4347341 13.90417811 7.12039035 15.125 4.3125 C15.47820312 3.50425781 15.83140625 2.69601563 16.1953125 1.86328125 C16.46085937 1.24839844 16.72640625 0.63351563 17 0 C18.98 0 20.96 0 23 0 C23 0.66 23 1.32 23 2 C22.34 2 21.68 2 21 2 C21 7.61 21 13.22 21 19 C21.66 19 22.32 19 23 19 C23 19.66 23 20.32 23 21 C20.69 21 18.38 21 16 21 C16 20.34 16 19.68 16 19 C16.66 19 17.32 19 18 19 C17.67 15.37 17.34 11.74 17 8 C15.68 11.63 14.36 15.26 13 19 C12.01 19 11.02 19 10 19 C8.68 15.04 7.36 11.08 6 7 C5.67 10.96 5.34 14.92 5 19 C5.66 19 6.32 19 7 19 C7 19.66 7 20.32 7 21 C4.69 21 2.38 21 0 21 C0 20.34 0 19.68 0 19 C0.66 19 1.32 19 2 19 C2 13.39 2 7.78 2 2 C1.34 2 0.68 2 0 2 C0 1.34 0 0.68 0 0 Z " fill="#7F7F7F" transform="translate(364,154)"/>
<path d="M0 0 C1.95803507 -0.05389087 3.91648909 -0.09274217 5.875 -0.125 C7.51082031 -0.15980469 7.51082031 -0.15980469 9.1796875 -0.1953125 C12 0 12 0 14 2 C14.18614028 5.78485243 14.19522958 9.04554427 13.4375 12.75 C12.96216904 15.19455924 13.22018293 16.66054878 14 19 C14.66 19 15.32 19 16 19 C16 19.66 16 20.32 16 21 C14.02 21 12.04 21 10 21 C9.67 18.69 9.34 16.38 9 14 C7.68 13.67 6.36 13.34 5 13 C5.33 15.64 5.66 18.28 6 21 C4.02 21 2.04 21 0 21 C0 20.34 0 19.68 0 19 C0.66 19 1.32 19 2 19 C2 13.39 2 7.78 2 2 C1.34 2 0.68 2 0 2 C0 1.34 0 0.68 0 0 Z " fill="#7D7D7D" transform="translate(334,154)"/>
<path d="M0 0 C2.31 0 4.62 0 7 0 C7.12375 1.36125 7.12375 1.36125 7.25 2.75 C7.90438479 7.50649843 9.56947326 11.91412877 11.16015625 16.42578125 C12 19 12 19 12 21 C10.02 21 8.04 21 6 21 C6 20.34 6 19.68 6 19 C6.66 19 7.32 19 8 19 C7.67 17.35 7.34 15.7 7 14 C4.69 14 2.38 14 0 14 C-0.33 15.65 -0.66 17.3 -1 19 C-0.34 19 0.32 19 1 19 C1 19.66 1 20.32 1 21 C-0.98 21 -2.96 21 -5 21 C-4.80664062 20.29875 -4.61328125 19.5975 -4.4140625 18.875 C-1.39198058 9.56297224 -1.39198058 9.56297224 0 0 Z " fill="#7A7A7A" transform="translate(233,154)"/>
<path d="M0 0 C0.66 0.33 1.32 0.66 2 1 C-7.62528137 7.97484157 -16.80237345 12.18381441 -28.8125 12.0625 C-29.97394531 12.05347656 -31.13539062 12.04445312 -32.33203125 12.03515625 C-33.21246094 12.02355469 -34.09289063 12.01195312 -35 12 C-35 11.34 -35 10.68 -35 10 C-35.99 10 -36.98 10 -38 10 C-38 8.68 -38 7.36 -38 6 C-37.30551758 6.02618408 -36.61103516 6.05236816 -35.89550781 6.0793457 C-17.69390892 7.18192092 -17.69390892 7.18192092 -1 1 C-0.67 0.67 -0.34 0.34 0 0 Z " fill="#6D7AE6" transform="translate(86,170)"/>
<path d="M0 0 C0.66 0.33 1.32 0.66 2 1 C0.68 2.65 -0.64 4.3 -2 6 C-0.68 5.67 0.64 5.34 2 5 C1.62488281 5.49628906 1.24976562 5.99257812 0.86328125 6.50390625 C-0.21021415 7.92892407 -1.27891455 9.35756202 -2.34375 10.7890625 C-3.34806202 12.1297243 -4.3654636 13.46089021 -5.40625 14.7734375 C-11.29370714 22.41995196 -12.48712812 30.53839816 -13 40 C-13.33 40 -13.66 40 -14 40 C-15.62883228 28.42208407 -14.36088045 18.99115961 -8 9 C-5.47803246 5.85104981 -2.81337772 2.89016967 0 0 Z " fill="#7577DB" transform="translate(79,63)"/>
<path d="M0 0 C2.09375 -0.3984375 2.09375 -0.3984375 4.5 -0.375 C5.2940625 -0.38273438 6.088125 -0.39046875 6.90625 -0.3984375 C7.5971875 -0.26695312 8.288125 -0.13546875 9 0 C11 3 11 3 11 7 C10.34 7 9.68 7 9 7 C8.34 5.68 7.68 4.36 7 3 C5.35 3 3.7 3 2 3 C2 7.95 2 12.9 2 18 C3.65 18 5.3 18 7 18 C7.66 16.68 8.32 15.36 9 14 C9.66 14 10.32 14 11 14 C10.125 19.875 10.125 19.875 9 21 C7.00390625 21.203125 7.00390625 21.203125 4.5625 21.25 C3.75941406 21.27578125 2.95632813 21.3015625 2.12890625 21.328125 C1.42636719 21.21984375 0.72382813 21.1115625 0 21 C-2.41564046 17.37653931 -2.29781669 14.68396018 -2.25 10.5 C-2.25773437 9.82324219 -2.26546875 9.14648438 -2.2734375 8.44921875 C-2.25884811 4.75080743 -2.10264442 3.15396663 0 0 Z " fill="#767676" transform="translate(308,154)"/>
<path d="M0 0 C0.99 0 1.98 0 3 0 C1.94784869 3.15645393 1.46553072 3.69567079 -1 5.6875 C-3.14964856 7.42644335 -5.14619618 9.15004345 -7.078125 11.1328125 C-12.74696423 16.82204324 -12.74696423 16.82204324 -16.66796875 17.37890625 C-17.58191406 17.37761719 -18.49585937 17.37632812 -19.4375 17.375 C-24.82942961 17.4130786 -26.93835535 19.26569673 -30.6875 23.0625 C-32.1509671 24.685287 -33.59776978 26.32401551 -35 28 C-38.875 26.125 -38.875 26.125 -40 25 C-41.51469448 24.76807135 -43.03754562 24.58784762 -44.5625 24.4375 C-45.38878906 24.35371094 -46.21507813 24.26992187 -47.06640625 24.18359375 C-48.02353516 24.09271484 -48.02353516 24.09271484 -49 24 C-49 23.34 -49 22.68 -49 22 C-47.56344146 21.91868537 -46.1255517 21.86066441 -44.6875 21.8125 C-43.48673828 21.76029297 -43.48673828 21.76029297 -42.26171875 21.70703125 C-39.52148416 22.06198392 -38.70828921 22.89366282 -37 25 C-33.56817839 23.55938917 -31.81243182 21.76382275 -29.4375 18.9375 C-26.12291036 15.4744959 -24.22354447 14.54268779 -19.4375 14.4375 C-18.50421875 14.42074219 -17.5709375 14.40398437 -16.609375 14.38671875 C-11.97350445 13.69966608 -9.8911252 10.41022997 -7 7 C-5.89682624 6.03691179 -4.77300869 5.09667946 -3.625 4.1875 C-0.9683878 2.2707913 -0.9683878 2.2707913 0 0 Z " fill="#ADADF3" transform="translate(114,119)"/>
<path d="M0 0 C1.98 0 3.96 0 6 0 C6 0.66 6 1.32 6 2 C5.34 2 4.68 2 4 2 C4 7.61 4 13.22 4 19 C4.66 19 5.32 19 6 19 C6 19.66 6 20.32 6 21 C3.69 21 1.38 21 -1 21 C-1 20.34 -1 19.68 -1 19 C-0.34 19 0.32 19 1 19 C0.85848172 16.9163691 0.71162064 14.83310062 0.5625 12.75 C0.48128906 11.58984375 0.40007812 10.4296875 0.31640625 9.234375 C0.09788188 6.13050083 0.09788188 6.13050083 -0.59765625 3.703125 C-1 2 -1 2 0 0 Z " fill="#797979" transform="translate(381,154)"/>
<path d="M0 0 C7.86955115 1.07877854 14.10192464 7.3128374 18.984375 13.30859375 C20.54503307 15.90768969 20.32075936 18.04901388 20 21 C20.291224 22.67453799 20.61070799 24.34550895 21 26 C18.94654139 23.53584967 17.70055664 21.33201098 16.375 18.375 C12.80436865 11.02694398 7.0399642 5.03525285 0 1 C0 0.67 0 0.34 0 0 Z " fill="#6D73E3" transform="translate(140,123)"/>
<path d="M0 0 C2.31 0 4.62 0 7 0 C7 0.66 7 1.32 7 2 C6.34 2 5.68 2 5 2 C5 7.61 5 13.22 5 19 C5.66 19 6.32 19 7 19 C7 19.66 7 20.32 7 21 C4.69 21 2.38 21 0 21 C0 20.34 0 19.68 0 19 C0.66 19 1.32 19 2 19 C2 13.39 2 7.78 2 2 C1.34 2 0.68 2 0 2 C0 1.34 0 0.68 0 0 Z " fill="#797979" transform="translate(259,154)"/>
<path d="M0 0 C0.33 1.32 0.66 2.64 1 4 C1.99 3.67 2.98 3.34 4 3 C4.66 3 5.32 3 6 3 C5.731875 3.66 5.46375 4.32 5.1875 5 C4.795625 5.99 4.40375 6.98 4 8 C3.62101562 8.87205078 3.62101562 8.87205078 3.234375 9.76171875 C1.01506289 15.12505635 0.34312859 20.22597414 0 26 C-0.66 26 -1.32 26 -2 26 C-2.3690205 8.14350797 -2.3690205 8.14350797 0 0 Z " fill="#8187CA" transform="translate(71,102)"/>
<path d="M0 0 C1.7541123 1.07666203 3.50312587 2.16163339 5.25 3.25 C6.71179688 4.15492187 6.71179688 4.15492187 8.203125 5.078125 C11.66788501 7.45893775 14.4892225 9.42837692 15.8125 13.5 C16.09166595 18.71109778 15.54504952 23.81783692 15 29 C14.67 29 14.34 29 14 29 C13.96132812 27.948125 13.96132812 27.948125 13.921875 26.875 C13.45792066 19.11430921 12.44671978 13.34569523 6.734375 7.80078125 C5.12512639 6.39142358 3.49064481 5.01016725 1.828125 3.6640625 C1.22484375 3.11492187 0.6215625 2.56578125 0 2 C0 1.34 0 0.68 0 0 Z " fill="#7180DA" transform="translate(118,113)"/>
<path d="M0 0 C0.66 0 1.32 0 2 0 C2.66 5.28 3.32 10.56 4 16 C2.02 16 0.04 16 -2 16 C-1.50130596 10.63108121 -0.97772468 5.30764827 0 0 Z " fill="#D9D9D9" transform="translate(415,95)"/>
<path d="M0 0 C0.66 0.33 1.32 0.66 2 1 C0.68 2.65 -0.64 4.3 -2 6 C-0.68 5.67 0.64 5.34 2 5 C1.06558465 6.27310312 0.12732889 7.543388 -0.8125 8.8125 C-1.59560547 9.87404297 -1.59560547 9.87404297 -2.39453125 10.95703125 C-3.83128877 12.78531393 -5.31815763 14.39896688 -7 16 C-7 15.01 -7 14.02 -7 13 C-7.99 13.33 -8.98 13.66 -10 14 C-8.62815653 9.93501119 -6.77931541 7.32603439 -3.875 4.1875 C-3.15054688 3.39730469 -2.42609375 2.60710937 -1.6796875 1.79296875 C-1.12539062 1.20128906 -0.57109375 0.60960937 0 0 Z " fill="#6C7AE0" transform="translate(79,63)"/>
<path d="M0 0 C0.33 0.66 0.66 1.32 1 2 C-5.7948861 5.99439074 -12.00109076 8.48819634 -20 8 C-23.6875 6.5625 -23.6875 6.5625 -26 5 C-22.9998121 3.49990605 -20.26974874 4.06408338 -16.9375 4.1875 C-10.47797122 4.329927 -5.55459736 3.3718965 0 0 Z " fill="#8494DF" transform="translate(104,154)"/>
<path d="M0 0 C0.66 0.33 1.32 0.66 2 1 C-3.75614317 5.20484217 -9.10164214 8.14086809 -16 10 C-16 9.34 -16 8.68 -16 8 C-20.29 8 -24.58 8 -29 8 C-29 7.67 -29 7.34 -29 7 C-27.47632813 6.97873047 -27.47632813 6.97873047 -25.921875 6.95703125 C-11.92581618 6.58073052 -11.92581618 6.58073052 0 0 Z " fill="#8888D9" transform="translate(86,170)"/>
<path d="M0 0 C0.80308594 -0.02578125 1.60617187 -0.0515625 2.43359375 -0.078125 C3.48740234 0.08429688 3.48740234 0.08429688 4.5625 0.25 C6.5625 3.25 6.5625 3.25 6.5625 7.25 C5.9025 7.25 5.2425 7.25 4.5625 7.25 C3.9025 5.93 3.2425 4.61 2.5625 3.25 C0.9125 3.25 -0.7375 3.25 -2.4375 3.25 C-2.7675 7.87 -3.0975 12.49 -3.4375 17.25 C-3.7675 17.25 -4.0975 17.25 -4.4375 17.25 C-4.63136492 14.60448944 -4.81788267 11.95882217 -5 9.3125 C-5.05607422 8.55775391 -5.11214844 7.80300781 -5.16992188 7.02539062 C-5.29926157 5.10254042 -5.37266912 3.17610452 -5.4375 1.25 C-3.84882134 -0.33867866 -2.19060484 0.04205961 0 0 Z " fill="#818181" transform="translate(312.4375,153.75)"/>
<path d="M0 0 C0.99 0 1.98 0 3 0 C1.74709387 3.75871839 0.02187123 4.87635678 -2.9921875 7.3046875 C-5.04001924 8.96666632 -5.04001924 8.96666632 -6.8203125 10.9453125 C-9.84061249 14.06671039 -11.77700242 15.83001387 -16.17578125 16.44140625 C-19.14970948 16.43791162 -22.04341466 16.31044146 -25 16 C-25 15.67 -25 15.34 -25 15 C-24.28714844 15.00902344 -23.57429688 15.01804688 -22.83984375 15.02734375 C-17.5625693 14.86398263 -13.96324911 14.67031608 -10.1875 10.75 C-9.12343787 9.5013295 -8.06088641 8.25136976 -7 7 C-5.89682624 6.03691179 -4.77300869 5.09667946 -3.625 4.1875 C-0.9683878 2.2707913 -0.9683878 2.2707913 0 0 Z " fill="#5050F9" transform="translate(114,119)"/>
<path d="M0 0 C1.99954746 -0.04254356 4.00041636 -0.04080783 6 0 C7 1 7 1 7.0625 3.5625 C7.041875 4.366875 7.02125 5.17125 7 6 C4.69 6.33 2.38 6.66 0 7 C0 4.69 0 2.38 0 0 Z " fill="#EAEAEA" transform="translate(339,157)"/>
<path d="M0 0 C4.22489602 0.53280216 6.54080716 1.87678199 9.8125 4.5625 C10.60269531 5.20316406 11.39289063 5.84382812 12.20703125 6.50390625 C12.79871094 6.99761719 13.39039063 7.49132812 14 8 C13.01 9.485 13.01 9.485 12 11 C11.55269531 10.52949219 11.10539063 10.05898437 10.64453125 9.57421875 C7.29774953 6.1275331 4.25390832 3.32031363 0 1 C0 0.67 0 0.34 0 0 Z " fill="#7573DA" transform="translate(140,123)"/>
<path d="M0 0 C0.66 0.33 1.32 0.66 2 1 C-6.261959 5.40774487 -6.261959 5.40774487 -11 6 C-11 5.34 -11 4.68 -11 4 C-13.31 4 -15.62 4 -18 4 C-18 3.67 -18 3.34 -18 3 C-16.95199219 2.86722656 -15.90398437 2.73445312 -14.82421875 2.59765625 C-13.44529222 2.41942765 -12.06638707 2.24103359 -10.6875 2.0625 C-9.65206055 1.93198242 -9.65206055 1.93198242 -8.59570312 1.79882812 C-5.59857712 1.40789865 -2.87549881 0.9584996 0 0 Z " fill="#4C53DD" transform="translate(93,160)"/>
<path d="M0 0 C-0.268125 0.66 -0.53625 1.32 -0.8125 2 C-2.25705047 5.64939067 -3.62871178 9.32245433 -5 13 C-5.33 13 -5.66 13 -6 13 C-6.29380531 4.18584071 -6.29380531 4.18584071 -4 1 C-2 0 -2 0 0 0 Z " fill="#758BEC" transform="translate(77,105)"/>
<path d="M0 0 C2.97 0 5.94 0 9 0 C9 0.99 9 1.98 9 3 C6.03 3 3.06 3 0 3 C0 2.01 0 1.02 0 0 Z " fill="#8F8F8F" transform="translate(281,163)"/>
<path d="M0 0 C2.76223278 2.76223278 2.57856291 5.20706617 3 9 C1.35 9 -0.3 9 -2 9 C-1.34 6.03 -0.68 3.06 0 0 Z " fill="#DCDCDC" transform="translate(236,157)"/>
<path d="M0 0 C2.31 0 4.62 0 7 0 C6.67 1.65 6.34 3.3 6 5 C4.35 5 2.7 5 1 5 C0.67 3.35 0.34 1.7 0 0 Z " fill="#6F6F6F" transform="translate(233,154)"/>
<path d="M0 0 C2 3 2 3 1.7578125 5.04296875 C1.171875 7.02864583 0.5859375 9.01432292 0 11 C-0.99 11 -1.98 11 -3 11 C-2.01 7.37 -1.02 3.74 0 0 Z " fill="#898989" transform="translate(379,157)"/>
<path d="M0 0 C4.2742558 1.5830577 6.26531794 4.50568404 9 8 C3.5 6.53333333 3.5 6.53333333 1.125 4 C0 2 0 2 0 0 Z " fill="#5052D8" transform="translate(132,124)"/>
<path d="M0 0 C0.66 0.33 1.32 0.66 2 1 C0.08864614 4.53600465 -1.62642766 6.78972846 -5 9 C-5.66 8.67 -6.32 8.34 -7 8 C-4.69 5.36 -2.38 2.72 0 0 Z " fill="#5451D4" transform="translate(83,83)"/>
<path d="M0 0 C0.99 0.33 1.98 0.66 3 1 C3.66 0.67 4.32 0.34 5 0 C4.67 1.98 4.34 3.96 4 6 C3.01 6 2.02 6 1 6 C0.67 4.02 0.34 2.04 0 0 Z " fill="#787878" transform="translate(373,167)"/>
<path d="M0 0 C0.99 0.33 1.98 0.66 3 1 C2.34 3.31 1.68 5.62 1 8 C0.01 8 -0.98 8 -2 8 C-1.34 5.36 -0.68 2.72 0 0 Z " fill="#848484" transform="translate(233,158)"/>
<path d="M0 0 C2.79872437 2.52788007 4.45773019 4.20411134 5 8 C2.69 7.01 0.38 6.02 -2 5 C-1.01 4.67 -0.02 4.34 1 4 C0.67 2.68 0.34 1.36 0 0 Z " fill="#817ED9" transform="translate(143,105)"/>
<path d="M0 0 C0.33 0 0.66 0 1 0 C1 2.31 1 4.62 1 7 C1.66 7 2.32 7 3 7 C3 7.66 3 8.32 3 9 C1.02 9 -0.96 9 -3 9 C-3 8.34 -3 7.68 -3 7 C-2.01 7 -1.02 7 0 7 C0 4.69 0 2.38 0 0 Z " fill="#6E6E6E" transform="translate(337,166)"/>
<path d="M0 0 C0.99 0 1.98 0 3 0 C2.67 4.62 2.34 9.24 2 14 C1.67 14 1.34 14 1 14 C0.67 9.38 0.34 4.76 0 0 Z " fill="#8B9ADF" transform="translate(131,128)"/>
<path d="M0 0 C1.9451 2.91765 2.45276317 4.62537285 3 8 C2.01 8 1.02 8 0 8 C-0.38063221 5.6739143 -0.71269945 3.33944736 -1 1 C-0.67 0.67 -0.34 0.34 0 0 Z " fill="#7F7F7F" transform="translate(239,158)"/>
<path d="M0 0 C2.0625 0.4375 2.0625 0.4375 4 1 C3.01 1.66 2.02 2.32 1 3 C0.27617533 5.05925139 0.27617533 5.05925139 0 7 C-0.66 6.34 -1.32 5.68 -2 5 C-1.46428571 1.46428571 -1.46428571 1.46428571 0 0 Z " fill="#87A8C7" transform="translate(26,162)"/>
<path d="M0 0 C4.31392226 0.4793247 6.16569547 1.7457985 9 5 C4.98525763 5 3.18024863 3.33218233 0 1 C0 0.67 0 0.34 0 0 Z " fill="#837EC7" transform="translate(140,123)"/>
</svg>
